<?xml version="1.0" standalone="no"?>
<!DOCTYPE svg PUBLIC "-//W3C//DTD SVG 1.1//EN" "http://www.w3.org/Graphics/SVG/1.1/DTD/svg11.dtd" >
<svg xmlns="http://www.w3.org/2000/svg">
<metadata></metadata>
<defs>
<font id="freight_text_prodemibold" horiz-adv-x="819" >
<font-face units-per-em="2048" ascent="1638" descent="-410" />
<missing-glyph horiz-adv-x="466" />
<glyph horiz-adv-x="0" />
<glyph horiz-adv-x="682" />
<glyph unicode=" "  horiz-adv-x="466" />
<glyph unicode="&#x09;" horiz-adv-x="466" />
<glyph unicode="&#xa0;" horiz-adv-x="466" />
<glyph unicode="!" horiz-adv-x="591" d="M164 102q0 53 38.5 91t96.5 38q56 0 93.5 -38t37.5 -91q0 -55 -37.5 -94t-93.5 -39q-58 0 -96.5 39t-38.5 94zM178 1210q-10 99 119 99h4q127 0 117 -99l-96 -802q-2 -14 -23.5 -14t-24.5 14z" />
<glyph unicode="&#x22;" horiz-adv-x="784" d="M20 825l224 498h4l174 -61l-316 -437h-86zM365 825l223 498h2l174 -61l-318 -437h-81z" />
<glyph unicode="#" horiz-adv-x="1175" d="M6 367v86h281l98 368h-258v88h283l104 383h90l-102 -383h334l102 383h90l-102 -383h260v-88h-285l-98 -368h260v-86h-283l-102 -379h-90l102 379h-336l-102 -379h-90l102 379h-258zM377 453h336l98 368h-334z" />
<glyph unicode="$" horiz-adv-x="1081" d="M111 408h102l90 -295q6 -4 22 -10t19 -7l125 475q-63 24 -108 45t-92.5 53.5t-76.5 68.5t-48 88.5t-19 115.5q0 71 27.5 135t80.5 116t140.5 83.5t197.5 32.5q64 0 91 -2l53 204h90l-55 -215q48 -7 79 -14l107 29v-416h-102l-68 268q-29 13 -47 17l-109 -416 q73 -27 121.5 -48t104.5 -56.5t88.5 -74t54.5 -96t22 -127.5q0 -77 -33 -147t-94 -125t-154.5 -87.5t-205.5 -33.5q-76 0 -111 4l-79 -299h-91l82 310q-75 12 -180 45zM317 1022q0 -87 53 -137t156 -90q7 26 18 67.5t34.5 130.5t39 147.5t15.5 57.5q-52 10 -88 10 q-110 0 -169 -53.5t-59 -132.5zM430 78q58 -12 113 -12q125 1 193.5 65t68.5 152q0 53 -18 94t-56.5 71.5t-77.5 50.5t-100 44q-123 -463 -123 -465z" />
<glyph unicode="%" horiz-adv-x="1527" d="M35 987q0 144 93.5 243t246.5 99q154 0 247 -99t93 -243q0 -142 -93.5 -240t-246.5 -98q-152 0 -246 98.5t-94 239.5zM135 987q0 -101 66 -173.5t174 -72.5t173.5 72.5t65.5 173.5q0 106 -65 178t-174 72t-174.5 -72t-65.5 -178zM190 -31l1039 1340h110l-1038 -1340h-111 zM813 291q0 142 93.5 240t246.5 98q152 0 246 -98.5t94 -239.5q0 -144 -93.5 -243t-246.5 -99q-154 0 -247 99t-93 243zM913 291q0 -106 65.5 -178t174.5 -72t174.5 72t65.5 178q0 101 -66 173.5t-174 72.5t-174 -72.5t-66 -173.5z" />
<glyph unicode="&#x26;" horiz-adv-x="1445" d="M51 301q0 126 82 226t211 149q-95 44 -147 121t-52 174q0 142 117.5 240t290.5 98q154 0 250 -78t96 -189q0 -103 -68 -184.5t-196 -130.5q202 -94 313 -274q107 141 107 178q26 58 -45 74l-47 10l-5 73h449l-6 -73l-53 -13q-107 -24 -193 -129l-160 -198 q69 -142 120.5 -199t137.5 -57q74 0 162 55l33 -53q-73 -75 -143.5 -114.5t-155.5 -39.5q-106 0 -175.5 58.5t-125.5 177.5q-82 -103 -193.5 -168.5t-238.5 -65.5q-167 0 -266 97t-99 235zM250 381q-1 -106 79.5 -181t194.5 -75q75 0 152 41.5t135 120.5q-33 69 -75 123 t-95.5 95t-107 70.5t-125.5 59.5q-158 -108 -158 -254zM332 1038q0 -92 55.5 -157.5t175.5 -116.5q139 79 139 252q0 83 -48 145t-132 62q-86 0 -138 -53t-52 -132z" />
<glyph unicode="'" horiz-adv-x="442" d="M20 825l226 498h2l174 -61l-316 -437h-86z" />
<glyph unicode="(" horiz-adv-x="808" d="M186 442q0 120 25 235t68 208.5t97.5 175.5t117 145.5t122 109.5t117.5 75l55 -76q-65 -35 -131 -91t-131 -139t-115.5 -179t-82 -217t-31.5 -247q0 -156 47 -304t121.5 -257t157.5 -188.5t165 -122.5l-55 -76q-70 34 -142 91.5t-145.5 146t-130.5 192t-93 239t-36 279.5 z" />
<glyph unicode=")" horiz-adv-x="808" d="M20 -432q65 35 131 91t131.5 139t116 178.5t82 217.5t31.5 248t-31.5 247t-82 217t-116 179t-131.5 139t-131 91l58 76q69 -35 141 -93t145.5 -146.5t130 -192t92.5 -239t36 -278.5q0 -144 -36 -279.5t-92.5 -239t-130 -192t-145.5 -146t-141 -91.5z" />
<glyph unicode="*" horiz-adv-x="720" d="M68 780l45 121l200 53v39l-200 58l-45 116l26 37l129 -10l109 -180l33 10l-7 211l95 78l45 -15l30 -120l-139 -164l21 -27l198 76l105 -70v-45l-105 -69l-198 77l-21 -26l135 -164l-30 -121l-43 -12l-97 78l8 213l-30 8l-109 -176l-125 -13z" />
<glyph unicode="+" horiz-adv-x="983" d="M61 424l7 113h368v374h113v-374h366l7 -113h-373v-377h-113v377h-375z" />
<glyph unicode="," horiz-adv-x="475" d="M59 -328q79 56 131 125.5t52 143.5q0 30 -12.5 57t-32 45t-41.5 33.5t-41.5 24t-32 14.5t-12.5 8q0 56 41.5 95.5t109.5 39.5q78 0 139.5 -60t61.5 -147q0 -63 -25 -123t-71 -113.5t-96 -97t-115 -88.5z" />
<glyph unicode="-" horiz-adv-x="677" d="M68 432l6 117h534l6 -117h-546z" />
<glyph unicode="." horiz-adv-x="477" d="M90 117q0 60 43.5 102.5t106.5 42.5t105 -42.5t42 -102.5t-42 -104t-105 -44q-62 0 -106 44.5t-44 103.5z" />
<glyph unicode="/" horiz-adv-x="571" d="M12 -416l441 1796h102l-440 -1796h-103z" />
<glyph unicode="0" horiz-adv-x="1155" d="M78 481q0 229 140.5 372.5t361.5 143.5t359 -141.5t138 -370.5t-140.5 -372.5t-361.5 -143.5t-359 141.5t-138 370.5zM227 485q0 -164 99 -268t254 -104t250.5 102t95.5 266q0 163 -98 267t-253 104t-251.5 -102t-96.5 -265z" />
<glyph unicode="1" horiz-adv-x="778" d="M80 844l6 65l420 84v-846q0 -39 47 -47l133 -22l6 -78h-569l6 78l127 22q47 14 47 47v678z" />
<glyph unicode="2" horiz-adv-x="978" d="M63 131q13 9 37 28q227 168 309 245q145 138 146 241q0 83 -55.5 137t-147.5 54q-121 0 -223 -136l-43 23q43 131 148 202.5t237 71.5q130 0 220.5 -75.5t90.5 -194.5q0 -67 -27 -125t-108.5 -130.5t-135.5 -112.5t-201 -141q-47 -33 -72 -50v-10h102q121 0 191.5 2 t124 7t80.5 17.5t43.5 28t31.5 43.5l43 82h72l-25 -338h-825z" />
<glyph unicode="3" horiz-adv-x="882" d="M20 -246q0 46 31.5 77.5t75.5 31.5q64 0 109 -53.5t55 -122.5q14 -4 43 -4q108 0 191 80t83 210q0 125 -72 201t-188 76q-85 0 -166 -37l-24 61q23 15 62.5 40t64.5 41t59.5 40t57 42.5t47 43.5t38.5 48t23.5 51t9.5 57q0 83 -58 141t-147 58q-68 0 -129 -39.5 t-102 -96.5q-11 0 -39 18q-7 5 -4 5q43 130 153 202t246 72q133 0 219 -75.5t86 -184.5q0 -103 -68.5 -186t-215.5 -166v-6q157 0 258.5 -86.5t101.5 -231.5q0 -125 -73.5 -234.5t-197 -174t-263.5 -64.5q-114 0 -190.5 48t-76.5 118z" />
<glyph unicode="4" horiz-adv-x="1026" d="M16 109l658 878h114v-805h240l-14 -147h-226v-412h-196v412h-567zM168 182h424v553h-8z" />
<glyph unicode="5" horiz-adv-x="892" d="M12 -250q0 46 31.5 77.5t75.5 31.5q60 0 105.5 -48t56.5 -118q33 -10 63 -10q115 0 191.5 81.5t76.5 200.5q0 272 -516 402l152 600h569l-6 -191h-510l-63 -246q284 -74 419.5 -194.5t135.5 -274.5q0 -96 -43.5 -184t-114.5 -150.5t-163.5 -99.5t-188.5 -37 q-122 0 -196.5 44t-74.5 116z" />
<glyph unicode="6" horiz-adv-x="1075" d="M80 483q0 172 72.5 329t194 270.5t285 184.5t341.5 83l14 -72q-140 -19 -256 -74t-197 -134.5t-134.5 -172t-80.5 -197.5l3 -4q64 55 143 86t156 31q165 0 265.5 -111.5t100.5 -283.5q0 -199 -134 -327t-329 -128q-137 0 -240 73.5t-153.5 190t-50.5 256.5zM301 483 q0 -79 18 -154.5t51 -136.5t85 -98t114 -37q99 0 153 84t54 213q0 149 -73 241.5t-183 92.5q-59 0 -113.5 -24.5t-89.5 -59.5q-16 -28 -16 -121z" />
<glyph unicode="7" horiz-adv-x="987" d="M53 612l45 355h836l10 -90l-641 -1254h-131l612 1159v9h-282q-53 0 -85 -0.5t-65.5 -0.5t-51.5 -2t-37 -3t-28 -5t-17.5 -7t-13.5 -10t-9 -12t-9 -16l-61 -123h-72z" />
<glyph unicode="8" horiz-adv-x="1052" d="M84 301q0 108 74 193t200 129v2q-117 64 -181.5 139t-63.5 190q0 62 27 123.5t77 114.5t133.5 86t184.5 33q165 0 276.5 -91.5t110.5 -234.5q0 -97 -65 -170t-181 -119v-2q64 -33 109 -63t91 -74t69.5 -100.5t23.5 -124.5q-2 -153 -127 -258t-334 -105q-177 0 -301 92.5 t-123 239.5zM279 311q-2 -113 75.5 -189.5t196.5 -76.5q109 0 173 57.5t64 143.5q0 28 -6 53.5t-14 46t-25.5 42t-31 36.5t-40 33.5t-42 29t-48.5 28t-49 25.5t-53 25.5t-51 24.5q-68 -54 -108.5 -126t-40.5 -153zM295 1040q-1 -57 19.5 -101.5t70.5 -82.5t85 -58t112 -58 q15 -7 22 -11q123 85 123 248q2 103 -62.5 182.5t-168.5 79.5q-89 0 -145 -59t-56 -140z" />
<glyph unicode="9" horiz-adv-x="1075" d="M82 -311q140 19 256.5 74t197.5 134.5t134.5 172t81.5 196.5l-4 4q-65 -54 -143 -85t-154 -31q-165 0 -267 112.5t-102 282.5q0 199 134.5 328t328.5 129q138 0 241.5 -74.5t154 -191.5t50.5 -257q0 -172 -72.5 -328t-194 -269t-285 -185t-341.5 -84zM293 614 q0 -149 73 -241t185 -92q118 0 203 81q14 25 14 123q0 106 -30 201.5t-92.5 159t-143.5 63.5q-100 0 -154.5 -83.5t-54.5 -211.5z" />
<glyph unicode=":" horiz-adv-x="475" d="M90 117q0 60 43.5 102.5t106.5 42.5q64 0 105.5 -42t41.5 -103q0 -60 -42 -104t-105 -44q-62 0 -106 44.5t-44 103.5zM90 739q0 60 43.5 103t106.5 43q64 0 105.5 -42.5t41.5 -103.5q0 -60 -42 -103.5t-105 -43.5q-62 0 -106 44t-44 103z" />
<glyph unicode=";" horiz-adv-x="475" d="M59 -328q79 56 131 125.5t52 143.5q0 30 -12.5 57t-32 45t-41.5 33.5t-41.5 24t-32 14.5t-12.5 8q0 56 41.5 95.5t109.5 39.5q78 0 139.5 -60t61.5 -147q0 -63 -25 -123t-71 -113.5t-96 -97t-115 -88.5zM86 739q0 60 43.5 103t106.5 43q64 0 105.5 -42.5t41.5 -103.5 q0 -60 -42 -103.5t-105 -43.5q-62 0 -106 44t-44 103z" />
<glyph unicode="&#x3c;" horiz-adv-x="983" d="M55 453v57l828 385l26 -102l-667 -308v-6l667 -309l-26 -102z" />
<glyph unicode="=" horiz-adv-x="983" d="M82 248l6 112h807l6 -112h-819zM82 713h819l-6 -113h-807z" />
<glyph unicode="&#x3e;" horiz-adv-x="983" d="M74 170l667 309v6l-667 308l26 102l828 -385v-57l-828 -385z" />
<glyph unicode="?" horiz-adv-x="774" d="M106 1180q0 57 48.5 93t132.5 36q107 0 203 -50.5t153 -134.5t57 -176q0 -44 -6.5 -79t-22.5 -61.5t-33 -45t-47 -36t-55 -29t-67 -27.5q-92 -35 -118 -53q-45 -33 -46 -82q0 -65 84 -152h-72q-55 38 -98 97t-43 124q0 42 13 75.5t32 56t54 44t66.5 34.5t82.5 32 q106 40 134 59q42 28 42 64q0 61 -91 102t-220 41q-62 0 -148 -14q-35 32 -35 82zM205 102q0 53 38.5 91t94.5 38q57 0 94 -37.5t37 -91.5q0 -55 -37 -95t-94 -40q-56 0 -94.5 40t-38.5 95z" />
<glyph unicode="@" horiz-adv-x="1746" d="M92 539q7 163 77 310.5t182 253.5t264.5 166t318.5 56q218 -5 391.5 -97t270 -258t85.5 -374q-6 -117 -47.5 -217t-106 -166.5t-146.5 -103.5t-169 -37q-52 0 -92.5 8.5t-65 23t-42 33t-22.5 39t-7.5 41.5t2.5 39q0 9 29 118.5t35 127.5h-27q-43 -76 -73.5 -126 t-69.5 -106.5t-70.5 -89t-68 -54.5t-70.5 -22q-89 0 -154 64.5t-65 144.5q0 123 70 286.5t163 256.5q113 113 231 113q70 0 119.5 -40.5t71.5 -115.5h22l50 135h143l-121 -340l-53 -344q-6 -43 24 -70.5t95 -27.5q130 0 221 121t102 309q10 186 -74.5 333t-238 228.5 t-348.5 85.5q-144 4 -278 -51t-233.5 -150t-161.5 -226.5t-69 -274.5q-8 -160 41.5 -298t141.5 -233t219.5 -149t271.5 -54q117 0 256 39l23 -75q-142 -47 -285 -47q-161 0 -304.5 61t-247.5 167t-161 259t-49 328zM639 356q0 -55 31.5 -87.5t68.5 -32.5q66 0 285 370 q9 18 24 65.5t15 53.5q-24 46 -85.5 89.5t-117.5 43.5q-48 0 -72 -24q-49 -47 -99 -209t-50 -269z" />
<glyph unicode="A" horiz-adv-x="1261" d="M-37 0l6 78l54 14q38 11 58.5 23.5t48.5 55.5t57.5 115.5t78.5 209.5l240 663v80l217 80l389 -1157q17 -50 82 -64l94 -20l6 -78h-589l6 78l88 14q21 3 33.5 8t19 16.5t7.5 24t-4.5 39.5t-13 53t-22.5 74l-43 137h-422l-37 -120q-38 -117 -38 -168q0 -55 53 -64l76 -14 l6 -78h-451zM385 537h360l-165 534h-15z" />
<glyph unicode="B" horiz-adv-x="1226" d="M78 0l6 76l80 10q72 8 72 37v1036q0 14 -15.5 21.5t-60.5 13.5l-76 10l-6 76h553q130 0 225 -21t150 -60.5t80.5 -89.5t25.5 -114q0 -124 -95.5 -212.5t-240.5 -110.5v-10q186 -18 284.5 -105t98.5 -213q0 -165 -140 -254.5t-405 -89.5h-536zM467 104l127 -24h35 q116 0 198 68t82 184q0 138 -97 210t-257 72h-88v-510zM467 696l123 2q133 3 201.5 73t68.5 169q0 120 -74.5 189t-222.5 69h-96v-502z" />
<glyph unicode="C" horiz-adv-x="1425" d="M90 625q0 207 96.5 364t260.5 238.5t370 81.5q163 0 295 -45l176 36v-436h-119l-69 279q-128 74 -281 74q-215 0 -343 -157t-128 -407q0 -272 128.5 -434t359.5 -162q132 0 239 58l96 293h125l-43 -408l-118 23q-156 -54 -324 -54q-207 0 -368.5 74.5t-257 224.5 t-95.5 357z" />
<glyph unicode="D" horiz-adv-x="1437" d="M78 0l6 76l80 10q72 8 72 37v1036q0 14 -15.5 21.5t-60.5 13.5l-76 10l-6 76l504 6h16q334 0 540 -168q210 -172 210 -446q0 -137 -50 -257.5t-144.5 -213.5t-243 -147t-332.5 -54h-500zM467 113l147 -31q149 1 260 73.5t166.5 193t55.5 272.5q0 265 -145.5 421 t-420.5 156h-63v-1085z" />
<glyph unicode="E" horiz-adv-x="1265" d="M78 0l6 76l80 10q72 8 72 37v1036q0 14 -15.5 21.5t-60.5 13.5l-76 10l-6 76h1061v-401h-119l-47 184q-8 33 -16.5 52t-29 35.5t-43.5 23.5t-74 12.5t-106 6.5t-153 1h-84v-502h53q107 0 145 10t50 46l47 137h94l-45 -467h-90l-19 129q-3 25 -15.5 36t-51.5 17t-121 6 h-47v-520h78q87 0 141.5 1t105 4t78.5 9.5t52 15t37 24t21.5 33t16.5 44.5l47 170h130l-39 -387h-1057z" />
<glyph unicode="F" horiz-adv-x="1191" d="M78 0l6 76l80 10q72 8 72 37v1036q0 14 -15.5 21.5t-60.5 13.5l-76 10l-6 76h1034v-401h-121l-43 184q-8 34 -16 53.5t-29.5 36t-43.5 23.5t-75.5 11.5t-106 5.5t-153.5 1h-57v-520h70q106 0 143.5 10t50.5 45l49 139h92l-47 -469h-88l-18 131q-3 24 -16.5 35.5t-52.5 17 t-120 5.5h-63v-467q0 -15 15.5 -23t58.5 -12l118 -10l7 -76h-588z" />
<glyph unicode="G" horiz-adv-x="1484" d="M90 625q0 157 59.5 287.5t160.5 216.5t235 133t284 47q163 0 291 -45l172 36v-434h-125l-67 279q-121 72 -279 72q-205 0 -339 -160t-134 -402q0 -276 123 -437t346 -161q125 0 225 49v347q0 15 -15 22.5t-58 11.5l-95 11l-6 75h562l-7 -75l-82 -11q-71 -8 -71 -36v-299 l123 -15l6 -57q-124 -47 -287.5 -79t-304.5 -32q-208 0 -370 77.5t-254.5 227.5t-92.5 351z" />
<glyph unicode="H" horiz-adv-x="1527" d="M78 0l6 76l80 10q72 8 72 37v1036q0 14 -15.5 21.5t-60.5 13.5l-76 10l-6 76h547l-7 -76l-79 -10q-72 -8 -72 -37v-457h594v459q0 15 -15 22t-59 13l-76 10l-6 76h545l-6 -76l-80 -10q-72 -8 -72 -37v-1036q0 -14 15.5 -21.5t60.5 -13.5l76 -10l6 -76h-545l6 76l78 10 q41 6 56.5 14t15.5 23v485h-594v-487q0 -15 15 -22t59 -13l77 -10l7 -76h-547z" />
<glyph unicode="I" horiz-adv-x="751" d="M82 0l6 76l100 10q72 8 72 37v1036q0 15 -15.5 23t-60.5 12l-96 10l-6 76h588l-6 -76l-101 -10q-71 -8 -71 -37v-1036q0 -15 15 -23t58 -12l99 -10l6 -76h-588z" />
<glyph unicode="J" horiz-adv-x="866" d="M8 117q0 47 31.5 76.5t81.5 29.5q61 0 110 -49q45 -45 62 -129h2q45 22 70 61t39 126.5t14 238.5v688q0 15 -15.5 23t-58.5 12l-119 10l-6 76h600l-6 -76l-92 -10q-72 -8 -72 -37v-602q0 -296 -106.5 -441t-304.5 -145q-99 0 -164.5 42.5t-65.5 105.5z" />
<glyph unicode="K" horiz-adv-x="1349" d="M78 0l6 76l80 10q72 8 72 37v1036q0 14 -15.5 21.5t-60.5 13.5l-76 10l-6 76h547l-7 -76l-79 -10q-72 -8 -72 -37v-536l360 358q115 115 115 168q0 32 -41 42q-7 2 -14 3l-78 12l-6 76h538l-6 -76l-75 -14q-55 -11 -105.5 -43t-124.5 -105l-285 -280l406 -578 q36 -52 62.5 -71t68.5 -27l55 -10l6 -76h-520l6 76l60 14q18 4 18 21t-18 47l-301 456l-121 -116v-377q0 -15 15 -22t59 -13l77 -10l7 -76h-547z" />
<glyph unicode="L" horiz-adv-x="1181" d="M78 0l6 76l80 12q39 6 55.5 14t16.5 23v1034q0 13 -14 19t-62 14l-76 12l-6 76h559l-6 -76l-92 -12q-72 -10 -72 -37v-1069h49q94 0 149 1t104 6.5t73 13t44.5 24t29.5 35.5t18 51l53 197h127l-43 -414h-993z" />
<glyph unicode="M" horiz-adv-x="1792" d="M39 0l6 76l111 14q18 3 28.5 14t22 49t19 121t14.5 220l26 528v18q0 128 -84 142l-114 20l-7 78h512l316 -930h14l311 930h500l-6 -78l-135 -10q-24 -1 -35.5 -19.5t-11.5 -42.5l20 -645q5 -166 13.5 -251t20.5 -113t34 -31l108 -14l7 -76h-572l6 76l111 14q20 2 30 34 q10 30 14 118q1 32 1 74q0 71 -4 169l-23 664h-16l-383 -1108h-139l-363 1067h-24l-29 -614q-9 -206 -9 -293q0 -29 1 -45q4 -62 35 -66l114 -14l6 -76h-446z" />
<glyph unicode="N" horiz-adv-x="1519" d="M66 0l6 76l96 20q39 8 55 31t24.5 106.5t8.5 270.5v514q0 68 -20.5 106t-61.5 58l-96 22l-6 76h397l702 -971h13v467q0 118 -2 185.5t-6 114.5t-15.5 67t-23.5 28t-37 13l-105 20l-6 76h477l-6 -76l-96 -20q-39 -8 -55 -31t-24.5 -106.5t-8.5 -270.5v-792h-146l-772 1058 h-12v-538q0 -116 2.5 -185t6.5 -115t15.5 -66.5t23.5 -28.5t36 -13l105 -20l6 -76h-475z" />
<glyph unicode="O" horiz-adv-x="1542" d="M90 627q0 188 92 344.5t249.5 246t344.5 89.5q195 0 348.5 -83t239.5 -233.5t86 -343.5q0 -189 -91.5 -345.5t-248 -245.5t-342.5 -89q-196 0 -350.5 83t-241 233.5t-86.5 343.5zM348 651q0 -138 34.5 -252.5t93 -189t136 -115.5t164.5 -41q180 0 299 151t119 419 q0 273 -124 435.5t-304 162.5q-179 0 -298.5 -151.5t-119.5 -418.5z" />
<glyph unicode="P" horiz-adv-x="1202" d="M78 0l6 76l80 10q72 8 72 37v1036q0 14 -15.5 21.5t-60.5 13.5l-76 10l-6 76h551q246 0 380 -97t134 -251q0 -133 -72.5 -230.5t-189 -144.5t-260.5 -47q-56 0 -154 8v-397q0 -15 15.5 -23t58.5 -12l110 -10l6 -76h-579zM467 608q63 -14 143 -14q125 0 203 81.5t78 217.5 q0 139 -76 221t-207 82h-141v-588z" />
<glyph unicode="Q" horiz-adv-x="1542" d="M90 627q0 188 92 344.5t249.5 246t344.5 89.5q195 0 348.5 -83t239.5 -233.5t86 -343.5q0 -229 -130 -405.5t-337 -241.5q95 -161 235 -217q104 -42 240 -42q46 0 96 5l9 -72q-47 -17 -128 -31t-157 -14q-141 0 -243 36t-176 109t-140 195q-278 14 -453.5 195.5 t-175.5 462.5zM348 651q0 -138 34.5 -252.5t93 -189t136 -115.5t164.5 -41q180 0 299 151t119 419q0 273 -124 435.5t-304 162.5q-179 0 -298.5 -151.5t-119.5 -418.5z" />
<glyph unicode="R" horiz-adv-x="1269" d="M78 0l6 76l80 10q72 8 72 37v1036q0 14 -15.5 21.5t-60.5 13.5l-76 10l-6 76h565q240 0 360.5 -84.5t120.5 -232.5q0 -125 -77 -214.5t-216 -138.5l265 -413q37 -58 62.5 -78.5t60.5 -28.5l59 -14l8 -76h-364l-80 152l-232 411l-143 -4v-438q0 -15 15 -22t59 -13l82 -10 l6 -76h-551zM467 653l135 -12q126 11 197 80.5t71 198.5q0 138 -74 209q-69 65 -194 65h-22l-113 -2v-539z" />
<glyph unicode="S" horiz-adv-x="1091" d="M102 408h109l92 -291q115 -51 234 -51q64 1 114.5 19.5t81.5 49t47.5 68.5t16.5 80q0 31 -5.5 57.5t-19 48.5t-27.5 40t-39.5 34.5t-45 28t-54 26t-57.5 23t-64 22.5q-70 25 -117.5 45.5t-99.5 53.5t-82.5 69.5t-50.5 90.5t-20 120q0 71 28 135t81.5 116.5t141.5 83.5 t199 32h46t44 -2t37 -3.5t37.5 -4.5t32 -5t35 -6.5t32.5 -5.5l107 29v-416h-107l-73 272q-99 41 -213 41q-110 0 -171 -54t-61 -132q0 -32 9 -60t21 -48.5t37 -41t44 -33t57 -29t60.5 -25t68.5 -25.5q63 -22 106 -40.5t92.5 -44t81 -54.5t59.5 -67t41 -86t13 -106 q0 -77 -33.5 -147t-94.5 -125t-155.5 -87.5t-207.5 -33.5h-13q-100 0 -182 14q-87 15 -188 46z" />
<glyph unicode="T" horiz-adv-x="1290" d="M41 864l37 416h1149v-416h-117l-45 185q-15 63 -41 91.5t-83 41t-173 12.5h-6v-1073q0 -16 14.5 -23.5t57.5 -11.5l112 -10l6 -76h-614l6 76l113 10q71 5 71 37v1071h-6q-71 0 -113 -2.5t-78 -9.5t-55.5 -22.5t-33 -38t-23.5 -58.5l-53 -199h-125z" />
<glyph unicode="U" horiz-adv-x="1458" d="M66 1280h544l-6 -76l-80 -10q-69 -8 -69 -37v-690q0 -193 91.5 -286t254.5 -93q161 0 248.5 93.5t87.5 269.5v325q0 116 -2.5 185t-6.5 115t-15.5 66.5t-23.5 28.5t-36 13l-105 20l-6 76h477l-6 -76l-96 -20q-25 -5 -37.5 -13t-24.5 -29t-16.5 -66t-7 -115t-2.5 -185 v-352q0 -212 -135 -336.5t-367 -124.5q-236 0 -371 114t-135 333v749q0 14 -15 21.5t-59 13.5l-75 10z" />
<glyph unicode="V" horiz-adv-x="1300" d="M-33 1280h584l-6 -78l-88 -14q-57 -8 -57 -47t44 -162q1 -4 2 -6l261 -783h24l213 621q50 147 60 231q4 29 4 51q0 43 -14 65q-20 32 -72 38l-58 6l-6 78h483l-6 -78l-53 -14q-52 -14 -80 -40t-64.5 -105t-101.5 -261l-280 -784h-224l-389 1120q-10 28 -25.5 42.5 t-47.5 21.5l-97 20z" />
<glyph unicode="W" horiz-adv-x="1927" d="M-33 1280h592l-6 -78l-94 -14q-18 -3 -29 -7.5t-16 -16.5t-5.5 -25t5 -40t13 -53t22.5 -73l219 -711h12l254 713l-47 143q-15 51 -76 64l-94 20l-6 78h583l-6 -78l-96 -14q-46 -7 -46 -51t38 -164l215 -713l14 2l158 520q53 174 65 256q5 35 6 60q0 34 -10 51 q-17 29 -71 39l-76 14l-8 78h491l-6 -78l-45 -14q-41 -14 -61 -26t-47.5 -54.5t-55 -115.5t-72.5 -210l-254 -784h-163l-271 838h-10l-293 -838h-168l-377 1120q-10 28 -25.5 42.5t-47.5 21.5l-99 20z" />
<glyph unicode="X" horiz-adv-x="1296" d="M2 0l6 76l78 18q43 10 79.5 44.5t90.5 105.5l289 383l-332 469q-54 76 -94 86l-90 22l-6 76h569l-6 -76l-74 -14q-20 -4 -32 -10.5t-15.5 -18.5t-1 -26t15 -38t27.5 -49t41 -65l137 -211h10l174 260q49 75 49 113t-53 47l-65 12l-6 76h458l-6 -76l-76 -18 q-75 -17 -182 -162l-237 -322l364 -524q49 -71 90 -80l90 -22l6 -76h-569l6 76l76 14q20 4 31 10t14 18t0.5 26.5t-14.5 38.5t-27.5 48.5t-40.5 63.5l-170 260h-10l-197 -295q-38 -56 -48.5 -92t3 -54.5t49.5 -25.5l64 -12l6 -76h-471z" />
<glyph unicode="Y" horiz-adv-x="1236" d="M-20 1280h552l-6 -78l-75 -12q-31 -5 -39 -26q-3 -7 -3 -17q0 -19 11 -51q16 -46 61 -123l193 -332h12l205 363q51 91 51 132q0 45 -61 56l-54 10l-6 78h432l-6 -78l-35 -10q-59 -17 -101 -52t-99 -132l-269 -455v-432q0 -15 15.5 -23t58.5 -12l113 -10l6 -76h-617l7 76 l114 10q72 5 72 37v403l-360 584q-39 60 -103 76l-63 16z" />
<glyph unicode="Z" horiz-adv-x="1204" d="M78 0v84l788 1100v10h-231q-113 0 -177 -6t-103.5 -26.5t-55 -47.5t-29.5 -80l-41 -164h-112v410h1020v-84l-793 -1102l-2 -10l254 2q123 1 194 7.5t112 26.5t56.5 43.5t28.5 69.5l47 164h125l-43 -397h-1038z" />
<glyph unicode="[" horiz-adv-x="753" d="M190 -442v1788h525v-93h-416v-1601h416v-94h-525z" />
<glyph unicode="\" horiz-adv-x="571" d="M14 1380h103l440 -1796h-102z" />
<glyph unicode="]" horiz-adv-x="753" d="M39 -348h416v1601h-416v93h524v-1788h-524v94z" />
<glyph unicode="^" d="M133 1051l227 393h99l227 -393h-65l-209 217h-4l-209 -217h-66z" />
<glyph unicode="_" horiz-adv-x="962" d="M-18 -109l6 109h987l6 -109h-999z" />
<glyph unicode="`" d="M100 1427h232l192 -376h-69z" />
<glyph unicode="a" horiz-adv-x="960" d="M63 694q0 54 65.5 115.5t165.5 103t191 41.5q119 0 186.5 -37t98.5 -127q26 -76 26 -200q0 -24 -1 -49l-15 -342v-9q0 -75 47 -75q34 0 99 49l35 -49q-113 -150 -222 -150q-63 0 -104 40.5t-45 121.5h-10q-63 -75 -125.5 -116.5t-135.5 -41.5q-101 0 -175 68t-74 172 q0 125 124 206.5t396 147.5v19q0 144 -51 204t-150 60q-49 0 -97 -15t-48 -28q0 -3 12 -18t24.5 -39.5t12.5 -51.5q0 -39 -32 -70.5t-83 -31.5q-50 0 -82.5 29.5t-32.5 72.5zM270 260q0 -65 42 -104t100 -39q77 0 166 82l8 293q-179 -46 -247.5 -103t-68.5 -129z" />
<glyph unicode="b" horiz-adv-x="1093" d="M2 1272l6 55l346 100v-641h11q61 71 136.5 112.5t155.5 41.5q165 0 267 -126.5t102 -315.5q0 -103 -34 -197.5t-96 -168.5t-157 -118.5t-209 -44.5q-43 0 -117.5 14.5t-123.5 34.5h-2l-111 -61h-26v1202q0 45 -29 60zM354 182q109 -125 221 -125q94 0 162 99.5t68 259.5 q0 167 -69 265.5t-179 98.5q-61 0 -113.5 -27.5t-89.5 -70.5v-500z" />
<glyph unicode="c" horiz-adv-x="929" d="M68 430q0 112 39.5 210t106.5 166.5t158 108t193 39.5q142 0 223.5 -59t81.5 -145q0 -62 -36.5 -89.5t-88.5 -27.5q-65 0 -99 62q-23 42 -23 91q0 24 6 50v4q-41 26 -99 26q-107 0 -177 -90.5t-70 -249.5q0 -172 84.5 -283.5t216.5 -111.5q152 0 254 119l43 -25 q-54 -123 -156 -189.5t-236 -66.5q-183 0 -302 130.5t-119 330.5z" />
<glyph unicode="d" horiz-adv-x="1112" d="M68 426q0 104 35.5 197.5t100 165t161.5 113.5t213 42q70 0 157 -24h2v297q0 45 -26 57l-136 45l9 53l358 49v-1261q0 -51 29 -60l121 -37l-7 -55l-348 -39v144h-6q-54 -63 -131 -102.5t-154 -39.5q-166 0 -272 129.5t-106 325.5zM287 502q0 -171 73 -274t193 -103 q99 0 184 78v520q-109 129 -221 129q-100 0 -164.5 -95.5t-64.5 -254.5z" />
<glyph unicode="e" horiz-adv-x="966" d="M68 430q0 226 140 375t347 149q149 0 241.5 -85t92.5 -228q0 -61 -12 -113l-596 9v-23q0 -171 85 -277t218 -106q152 0 254 119l43 -25q-54 -123 -156.5 -189.5t-237.5 -66.5q-181 0 -300 130.5t-119 330.5zM285 604q25 0 66 0.5t127 0.5t142 0.5t54 0.5q1 15 1 29 q0 103 -39 165q-44 70 -122 70q-84 0 -149.5 -70.5t-79.5 -195.5z" />
<glyph unicode="f" horiz-adv-x="677" d="M18 809l13 109h143l2 45q6 136 72 243.5t167 164t216 56.5q86 0 147.5 -41.5t61.5 -103.5q0 -53 -32 -82t-79 -29q-51 0 -89 38t-58 114l-2 8l-60 4q-133 -81 -133 -342v-75h281l-15 -113h-266v-686q0 -17 16 -25.5t62 -11.5l98 -6l6 -76h-514l6 76l54 6q38 5 53.5 13 t15.5 26v676z" />
<glyph unicode="g" horiz-adv-x="987" d="M18 -293q0 87 53 142.5t146 91.5v8q-62 15 -101.5 61.5t-39.5 102.5q0 62 50 118t126 84q0 4 1.5 7t2.5 4h2q-182 82 -182 284q0 145 105.5 244.5t277.5 99.5q127 0 252 -59h288l-2 -143l-213 36v-10q47 -70 47 -147q0 -147 -108 -244.5t-274 -97.5q-60 0 -121 14 q-25 -11 -49.5 -37t-24.5 -51q0 -41 35.5 -66.5t95.5 -25.5q45 0 130 3t118 3q128 0 214.5 -80.5t86.5 -200.5q0 -163 -152.5 -271.5t-392.5 -108.5q-168 0 -269.5 65t-101.5 174zM197 -233q0 -94 79 -152.5t209 -58.5q120 0 197.5 58.5t77.5 147.5q0 76 -42 118.5 t-138 49.5q-30 3 -67.5 3t-99.5 -1.5t-112 -1.5q-34 -14 -69 -58.5t-35 -104.5zM281 639q0 -156 77 -233q44 -41 95 -41q72 0 116 41q62 59 62 208t-68 217q-49 46 -106 46q-79 0 -127.5 -63.5t-48.5 -174.5z" />
<glyph unicode="h" horiz-adv-x="1120" d="M14 1272l6 55l349 100v-622h10q185 149 332 149q105 0 172 -67q78 -81 78 -234v-532q0 -15 15.5 -23.5t67.5 -15.5l48 -6l6 -76h-463l6 76l45 6q42 6 56 14.5t14 24.5v414q0 146 -44.5 202t-138.5 56q-54 0 -109 -22.5t-95 -53.5v-598q0 -16 15 -24.5t62 -12.5l64 -6 l6 -76h-479l6 76l53 6q39 5 54.5 13t15.5 26v1038q0 44 -29 60z" />
<glyph unicode="i" horiz-adv-x="581" d="M57 803l2 59l334 92v-835q0 -16 15 -23.5t63 -13.5l51 -6l6 -76h-467l7 76l51 6q38 5 53.5 13t15.5 26v504q0 67 -7 98t-24.5 45.5t-56.5 24.5zM143 1249q0 57 35 96t94 39t94 -39t35 -96q0 -58 -35 -97.5t-94 -39.5t-94 39.5t-35 97.5z" />
<glyph unicode="j" horiz-adv-x="550" d="M-150 -401q0 44 35 75t78 31q104 0 152 -123q65 27 65 275v768q0 67 -7 98t-24.5 45.5t-56.5 24.5l-43 10l2 59l334 92v-981q0 -117 -36 -216t-91.5 -161t-119.5 -96.5t-124 -34.5q-73 0 -118.5 35.5t-45.5 98.5zM135 1249q0 57 35 96t94 39t94 -39t35 -96 q0 -58 -35 -97.5t-94 -39.5t-94 39.5t-35 97.5z" />
<glyph unicode="k" horiz-adv-x="1046" d="M14 1272l6 55l349 100v-952l112 103q119 109 146 144q32 39 32 64q0 47 -75 58l-27 4l-6 76h457l-7 -76l-36 -8q-54 -11 -112 -52.5t-179 -148.5l-80 -72l270 -393q31 -44 54 -65t53 -25l55 -8l6 -76h-319l-105 184l-159 256l-80 -73v-248q0 -16 14.5 -23.5t60.5 -13.5 l45 -6l7 -76h-459l6 76l53 6q39 5 54.5 13t15.5 26v1038q0 44 -29 60z" />
<glyph unicode="l" horiz-adv-x="577" d="M37 1272l6 55l348 100v-1308q0 -16 15 -23.5t63 -13.5l51 -6l6 -76h-469l6 76l54 6q38 5 53.5 13t15.5 26v1038q0 46 -28 60z" />
<glyph unicode="m" horiz-adv-x="1703" d="M53 803l2 59l336 92v-149h6q175 149 318 149q105 0 172 -67q41 -44 57 -94h8q175 161 336 161q105 0 172 -67q78 -81 78 -234v-532q0 -15 16 -23.5t68 -15.5l47 -6l6 -76h-465l7 76l47 6q42 6 55.5 14.5t13.5 24.5v414q0 143 -48 200.5t-134 57.5q-95 0 -188 -82 q2 -12 2 -58v-532q0 -15 16 -23.5t68 -15.5l45 -6l6 -76h-463l8 76l45 6q42 6 56 14.5t14 24.5v414q0 143 -48 200.5t-134 57.5q-90 0 -187 -76v-598q0 -16 15.5 -24.5t62.5 -12.5l57 -6l6 -76h-475l6 76l54 6q38 5 53.5 13t15.5 26v504q0 95 -16.5 125.5t-71.5 42.5z" />
<glyph unicode="n" horiz-adv-x="1146" d="M53 803l2 59l336 92v-149h10q185 149 332 149q103 0 170 -67q78 -78 78 -234v-532q0 -15 16.5 -24t67.5 -15l49 -6l6 -76h-465l7 76l45 6q42 6 55.5 14.5t13.5 24.5v414q0 146 -44 202t-138 56q-55 0 -110 -22.5t-93 -53.5v-598q0 -16 15.5 -24.5t62.5 -12.5l61 -6l7 -76 h-480l6 76l54 6q38 5 53.5 13t15.5 26v504q0 95 -16.5 125.5t-71.5 42.5z" />
<glyph unicode="o" horiz-adv-x="1093" d="M68 457q0 136 65.5 250t180.5 180.5t253 66.5q206 0 332.5 -135.5t126.5 -335.5q0 -214 -143.5 -364t-356.5 -150q-139 0 -244.5 66t-159.5 176t-54 246zM293 514q0 -281 102 -389q68 -68 160 -68q104 0 174 96t70 255q0 281 -103 387q-65 69 -157 69 q-107 0 -176.5 -94.5t-69.5 -255.5z" />
<glyph unicode="p" horiz-adv-x="1110" d="M35 -504l6 76l57 6q39 5 54.5 13t15.5 26v1008q0 96 -16 126t-72 42l-45 10l2 59l336 92v-168h10q61 71 136.5 112.5t154.5 41.5q165 0 267.5 -126.5t102.5 -315.5q0 -103 -34 -197.5t-95 -168.5t-154.5 -118.5t-205.5 -44.5q-85 0 -180 27h-2v-381q0 -16 15.5 -24.5 t62.5 -12.5l73 -6l6 -76h-495zM373 182q109 -125 221 -125q94 0 161.5 99.5t67.5 259.5q0 167 -69 265.5t-179 98.5q-119 0 -202 -98v-500z" />
<glyph unicode="q" horiz-adv-x="1089" d="M68 426q0 104 35.5 197.5t100 165t161.5 113.5t213 42q49 0 112 -13.5t109 -33.5h2l117 57h24v-1337q0 -16 15.5 -24.5t66.5 -14.5l49 -6l6 -76h-495l6 76l78 6q41 3 55 12t14 27v496h-6q-54 -63 -131 -102.5t-154 -39.5q-166 0 -272 129.5t-106 325.5zM287 502 q0 -171 73 -274t193 -103q99 0 184 78v520q-109 129 -221 129q-100 0 -164.5 -95.5t-64.5 -254.5z" />
<glyph unicode="r" horiz-adv-x="817" d="M53 803l2 59l336 92v-260h10q83 138 144 199t133 61q62 0 97.5 -36t35.5 -95q0 -53 -29.5 -88t-83.5 -35q-71 0 -116 74q-50 -31 -102.5 -83.5t-88.5 -119.5v-452q0 -16 15.5 -24.5t62.5 -12.5l74 -6l6 -76h-492l6 76l54 6q38 5 53.5 13t15.5 26v504q0 95 -16.5 125.5 t-71.5 42.5z" />
<glyph unicode="s" horiz-adv-x="858" d="M92 287h121l49 -183q76 -51 158 -51q72 0 128 43.5t56 110.5q0 33 -17 58.5t-49.5 45.5t-66.5 34t-82 32q-8 3 -12 4q-67 26 -106.5 45.5t-84.5 54t-66.5 83t-21.5 112.5q0 116 93.5 198t252.5 82q113 0 213 -34l76 26l12 -299h-114l-49 176q-64 45 -150 45 q-68 0 -113 -36t-45 -93q0 -27 10.5 -49t25 -37t47 -32t58 -27.5t77.5 -30.5q51 -19 84.5 -34t76 -41t66.5 -54.5t41.5 -71.5t17.5 -94q0 -127 -101.5 -214t-277.5 -87t-297 47z" />
<glyph unicode="t" horiz-adv-x="747" d="M14 809l2 68l279 241l82 -12l-2 -188h334l-15 -113h-319l-13 -483v-11q0 -192 173 -192q86 0 172 47l8 -55q-57 -64 -137 -103t-162 -39q-117 -1 -186 73q-66 70 -66 210v12l12 533z" />
<glyph unicode="u" horiz-adv-x="1114" d="M18 924h353l-13 -537v-17q0 -130 42 -183q46 -56 141 -56q54 0 108.5 22t95.5 52v600q0 16 -15 24.5t-62 12.5l-70 6l-8 76h358v-764q0 -51 29 -60l121 -37l-6 -55l-347 -39v150h-10q-189 -150 -334 -150q-102 0 -170 68q-77 77 -77 233l4 533q0 5 -0.5 9t-1.5 7t-3.5 5 t-4.5 4t-6.5 3t-8.5 2t-11.5 2t-13.5 2t-17.5 2.5t-20.5 2.5l-45 6z" />
<glyph unicode="v" horiz-adv-x="978" d="M-39 924h488l-7 -76l-61 -14q-47 -10 -47 -46q0 -13 6 -30l213 -561l184 510q20 48 20 76q1 7 -1 13q-6 28 -51 35l-64 17l-6 76h381l-6 -76l-56 -12q-42 -9 -64 -36t-52 -102l-277 -716h-133l-311 774q-15 38 -35 52.5t-64 20.5l-49 17z" />
<glyph unicode="w" horiz-adv-x="1472" d="M-31 924h467l-6 -76l-53 -14q-31 -5 -42 -25.5t-1 -52.5l182 -549l178 493l-18 56q-13 38 -33 52.5t-65 22.5l-50 17l-6 76h473l-6 -76l-53 -14q-31 -3 -43 -24t0 -54l188 -553l150 491q15 45 15 74q0 14 -4 24q-10 32 -62 44l-50 12l-6 76h381l-6 -76l-49 -12 q-47 -11 -70.5 -36.5t-48.5 -101.5l-235 -716h-127l-226 596l-225 -596h-129l-276 774q-13 38 -33 55t-57 23l-48 12z" />
<glyph unicode="x" horiz-adv-x="1001" d="M-14 0l6 74l59 14q42 10 73.5 34.5t86.5 88.5l195 233l-205 271q-46 61 -75 84.5t-69 31.5l-47 17l-6 76h479l-6 -76l-35 -10q-46 -7 -46 -31t42 -84l105 -154h4l115 152q29 40 39 62t1 36.5t-43 20.5l-43 8l-6 76h389l-6 -76l-59 -14q-47 -10 -78 -34t-86 -89l-172 -205 l223 -299q44 -59 75 -83.5t69 -33.5l41 -14l4 -76h-475l6 74l34 10q49 10 49 36q0 24 -38 79l-127 182h-4l-133 -178q-32 -42 -42 -64t-0.5 -36t44.5 -21l41 -8l6 -74h-385z" />
<glyph unicode="y" horiz-adv-x="964" d="M-39 924h479l-6 -76l-55 -14q-49 -5 -49 -39q0 -16 10 -37l229 -527l168 476q16 45 16 71q0 11 -3 19q-9 27 -58 34l-61 17l-6 76h389l-6 -76l-58 -12q-41 -9 -64.5 -37t-51.5 -101l-242 -637l-111 -329q-46 -139 -101.5 -203t-143.5 -64q-66 0 -107 33.5t-41 87.5 q0 49 28 82t81 33q82 0 127 -76q42 21 84 142l69 198v8l-364 783q-17 37 -36 51.5t-63 21.5l-45 17z" />
<glyph unicode="z" horiz-adv-x="974" d="M59 0v74l578 766l-68 -2q-133 -4 -191.5 -14.5t-86 -34.5t-43.5 -80l-43 -148h-111v363h789v-74l-578 -766h98q132 0 199 11.5t100.5 37t61.5 82.5l74 147h106l-86 -362h-799z" />
<glyph unicode="{" horiz-adv-x="702" d="M51 453l23 61q122 8 191 44t69 116q0 43 -18 93t-39.5 90t-39.5 97t-18 111q0 138 108 219t312 90v-74q-116 -10 -178 -60.5t-62 -123.5q0 -45 18.5 -95.5t40 -90.5t40 -98t18.5 -115q0 -98 -87.5 -171.5t-201.5 -82.5v-23q115 -11 202 -83.5t87 -170.5q0 -56 -18.5 -113 t-40 -97t-40 -90.5t-18.5 -94.5q0 -74 62 -126t178 -62v-72q-204 9 -312 90t-108 219q0 54 18 110.5t39.5 96.5t39.5 89.5t18 92.5q0 79 -67 115.5t-193 46.5z" />
<glyph unicode="|" horiz-adv-x="563" d="M233 -352v1796h99v-1796h-99z" />
<glyph unicode="}" horiz-adv-x="702" d="M66 -397q116 10 177.5 62t61.5 126q0 44 -18.5 94.5t-40 90.5t-40 97t-18.5 113q0 98 87 170.5t202 83.5v23q-114 9 -201.5 82.5t-87.5 171.5q0 57 18.5 115t40 98t40 90.5t18.5 95.5q0 73 -61.5 123.5t-177.5 60.5v74q203 -9 311 -90t108 -219q0 -54 -18 -111t-39 -97 t-39 -90t-18 -93q0 -42 20 -72t57 -47.5t81 -27t102 -13.5l22 -61l-22 -62q-125 -10 -192.5 -46.5t-67.5 -115.5q0 -43 18 -92.5t39 -89.5t39 -96.5t18 -110.5q0 -138 -108 -219t-311 -90v72z" />
<glyph unicode="~" d="M63 365q19 134 69.5 199t137.5 65q43 0 91.5 -23t84 -51t74.5 -51t64 -23q31 0 52 28t50 103h70q-19 -135 -69 -199.5t-138 -64.5q-43 0 -92 23t-85 50t-75 50t-64 23q-31 0 -50.5 -27.5t-47.5 -101.5h-72z" />
<glyph unicode="&#xa1;" horiz-adv-x="591" d="M164 1176q0 55 38.5 94t96.5 39q56 0 93.5 -39t37.5 -94q0 -53 -37.5 -91t-93.5 -38q-58 0 -96.5 38t-38.5 91zM178 68l96 802q3 14 24.5 14t23.5 -14l96 -802q6 -48 -22 -73.5t-95 -25.5h-4q-129 0 -119 99z" />
<glyph unicode="&#xa2;" horiz-adv-x="927" d="M68 451q0 148 68.5 264.5t181.5 177.5t247 61q45 0 76 -8l94 354h88l-98 -372q70 -26 107.5 -73t37.5 -105q0 -48 -30 -78.5t-68 -30.5q-71 0 -108 57q0 1 -36.5 -138.5t-73.5 -279.5l-36 -139q38 -10 78 -10q63 0 129.5 30t116.5 87l41 -23q-53 -119 -154 -187.5 t-229 -68.5h-27l-82 -309h-88l86 324q-145 40 -233 168.5t-88 298.5zM283 526q0 -116 41.5 -207.5t115.5 -138.5l172 662q-36 20 -82 20q-107 0 -177 -88.5t-70 -247.5z" />
<glyph unicode="&#xa3;" horiz-adv-x="1028" d="M29 37q146 41 206 123.5t60 222.5q0 45 -4 143h-221l6 90h213q-6 94 -6 179q0 226 120 360.5t324 134.5q111 0 171 -45t60 -121q0 -49 -34 -82.5t-80 -33.5q-60 0 -93 49t-20 121q-36 24 -86 24q-35 0 -62.5 -14.5t-50.5 -48t-35 -97.5t-12 -155q0 -26 4 -119t5 -152h315 l6 -90h-319v-24q0 -89 -20 -176t-54 -138v-10q8 -1 122 -29t165 -28q90 0 131 41q43 45 88 151l49 -12q8 -94 -15.5 -171.5t-87 -128t-157.5 -50.5q-56 0 -113.5 21.5t-87.5 41.5t-83 62.5t-62 48.5q-56 -65 -139.5 -112.5t-176.5 -67.5z" />
<glyph unicode="&#xa4;" horiz-adv-x="890" d="M72 1032l78 78l118 -119q86 53 178 53q94 0 183 -55l112 113l76 -76l-115 -115q50 -91 50 -176q0 -88 -52 -176l127 -127l-77 -78l-125 125q-86 -53 -179 -53q-95 0 -178 51l-114 -115l-76 76l115 115q-54 85 -54 182q0 95 51 178zM244 735q0 -86 55 -146.5t147 -60.5 q90 0 145.5 61t55.5 146q0 86 -55 146.5t-146 60.5q-92 0 -147 -60t-55 -147z" />
<glyph unicode="&#xa5;" horiz-adv-x="1253" d="M10 1280h543l-6 -78l-76 -12q-45 -8 -37.5 -56t70.5 -159l180 -313h10l193 350q33 60 42.5 97.5t-4 58t-51.5 26.5l-47 8l-6 78h416l-6 -78l-31 -8q-60 -15 -103.5 -51t-95.5 -127l-223 -391h330l6 -90h-369v-162h363l6 -90h-366v-136q0 -41 47 -49l141 -22l6 -76h-606 l6 76l141 22q47 8 47 49v136h-356l6 90h352v162h-358l6 90h314l-310 491q-35 56 -98 70l-70 16z" />
<glyph unicode="&#xa6;" horiz-adv-x="563" d="M233 -285v686h99v-686h-99zM233 629v686h99v-686h-99z" />
<glyph unicode="&#xa7;" horiz-adv-x="892" d="M53 641q0 81 47 146.5t121 103.5q-57 75 -57 153q0 99 98.5 182t233.5 83q98 0 168.5 -42.5t70.5 -115.5q0 -49 -31.5 -80t-76.5 -31q-56 0 -92 43.5t-50 122.5q-37 15 -67 15q-51 0 -82 -32t-31 -87q0 -27 15 -54t34.5 -47.5t57.5 -47.5t65 -44t76 -45q130 -78 174 -113 q113 -91 113 -200q0 -81 -47.5 -147.5t-120.5 -106.5q55 -74 55 -152q0 -108 -101.5 -193t-244.5 -85q-99 0 -172.5 42.5t-73.5 115.5q0 48 32 79t77 31q57 0 97.5 -44t53.5 -122q38 -14 74 -14q56 0 87.5 35t31.5 96q0 28 -15.5 56t-33 47.5t-59 49t-64 43t-76.5 46.5 q-129 77 -169 109q-118 92 -118 204zM184 729q0 -65 48 -112.5t143 -106.5q24 -15 83.5 -49.5t101.5 -63t73 -59.5q74 46 74 123q0 23 -6 44t-22 41.5t-28 34.5t-41 35.5t-43 31.5t-51 34q-25 16 -84 49.5t-100.5 61.5t-71.5 59q-32 -22 -54 -55t-22 -68z" />
<glyph unicode="&#xa8;" d="M70 1241q0 57 34.5 97t92.5 40q59 0 93 -40t34 -97q0 -56 -34 -95.5t-93 -39.5q-58 0 -92.5 40t-34.5 95zM496 1241q0 57 34.5 97t92.5 40t92.5 -40t34.5 -97q0 -55 -34.5 -95t-92.5 -40t-92.5 40t-34.5 95z" />
<glyph unicode="&#xa9;" horiz-adv-x="1538" d="M76 639q0 141 54.5 269.5t147.5 221.5t221.5 148t270.5 55q188 0 347 -93t251 -252.5t92 -348.5q0 -142 -54.5 -270t-146.5 -220.5t-220 -147t-269 -54.5q-142 0 -270.5 54.5t-221.5 147t-147.5 220.5t-54.5 270zM158 639q0 -125 48 -239t130 -197.5t195.5 -133 t238.5 -49.5q166 0 306.5 83.5t222 226t81.5 309.5t-81.5 310t-222 227t-306.5 84q-125 0 -238.5 -50t-195.5 -133.5t-130 -198t-48 -239.5zM393 633q0 170 112.5 280.5t282.5 110.5q95 0 170 -27l101 27v-274h-72l-49 161q-56 41 -160 41q-103 0 -169 -77.5t-66 -210.5 q0 -151 70.5 -246.5t197.5 -95.5q73 0 113 30l71 172h74l-22 -254l-70 15q-84 -33 -184 -33q-193 0 -296.5 107t-103.5 274z" />
<glyph unicode="&#xaa;" horiz-adv-x="737" d="M57 750q0 181 394 251l2 54q3 74 -44.5 122t-115.5 48q-22 0 -43.5 -8t-33 -17t-11.5 -14q0 -2 7 -13t14 -27.5t7 -31.5q0 -33 -24 -54.5t-62 -21.5q-39 0 -64.5 23t-25.5 61q0 43 54 87.5t134 72t154 27.5q103 0 164 -59t58 -146l-13 -328q-2 -44 11.5 -64t46.5 -20 q32 0 67 21l6 -45q-27 -35 -73.5 -59.5t-96.5 -24.5q-104 0 -120 114h-7q-114 -114 -213 -114q-68 0 -120 46t-52 120zM223 805q0 -45 27 -75t69 -30q27 0 63 18t60 40l7 190q-226 -42 -226 -143z" />
<glyph unicode="&#xab;" horiz-adv-x="1013" d="M68 399v107l456 293l21 -41l-289 -305l289 -306l-21 -41zM473 399v107l461 315l22 -43l-317 -325l317 -326l-22 -43z" />
<glyph unicode="&#xac;" horiz-adv-x="983" d="M72 522l6 113h833v-436h-112v323h-727z" />
<glyph unicode="&#xad;" horiz-adv-x="677" d="M68 432l6 117h534l6 -117h-546z" />
<glyph unicode="&#xae;" horiz-adv-x="1538" d="M76 641q0 188 92.5 347.5t252.5 252t349 92.5q188 0 347.5 -92.5t252 -252t92.5 -347.5q0 -189 -92.5 -349t-252 -252.5t-347.5 -92.5q-142 0 -270.5 54.5t-221.5 147.5t-147.5 221.5t-54.5 270.5zM158 641q0 -167 82 -310t223 -227t307 -84t306.5 84t222 227t81.5 310 t-81.5 310t-222 227t-306.5 84t-307 -84t-223 -227.5t-82 -309.5zM444 274l5 66l59 14q29 6 29 27v522q0 22 -29 31l-59 12l-5 66h338q139 0 209 -54.5t70 -134.5q0 -76 -45.5 -129.5t-132.5 -79.5l145 -215q6 -9 11.5 -15.5t11 -11t9 -8t8.5 -6t7.5 -3.5t8 -2.5t6.5 -2.5 l53 -10l4 -66h-215l-43 82l-141 228l-72 4v-207q0 -21 29 -27l61 -14l4 -66h-326zM676 659l76 -10q157 10 157 152q0 141 -184 141h-49v-283z" />
<glyph unicode="&#xaf;" d="M131 1114l8 100h543l10 -100h-561z" />
<glyph unicode="&#xb0;" horiz-adv-x="839" d="M80 987q0 144 93.5 243t246.5 99q154 0 247 -99t93 -243q0 -142 -93.5 -240t-246.5 -98q-152 0 -246 98.5t-94 239.5zM180 987q0 -101 66 -173.5t174 -72.5t173.5 72.5t65.5 173.5q0 106 -65 178t-174 72t-174.5 -72t-65.5 -178z" />
<glyph unicode="&#xb1;" horiz-adv-x="983" d="M63 485l7 113h366v332h113v-332h364l7 -113h-371v-335h-113v335h-373zM66 8l6 113h839l7 -113h-852z" />
<glyph unicode="&#xb2;" horiz-adv-x="675" d="M33 635q34 32 95 87t91 83t72 72t62 74t35 68.5t15 74.5q0 60 -40 94.5t-103 34.5q-97 0 -201 -84l-18 30q52 78 130.5 130.5t172.5 52.5q116 0 184 -59.5t68 -155.5q0 -38 -16.5 -76t-43.5 -71.5t-74 -76t-94.5 -79.5t-119.5 -92q-43 -33 -66 -50v-8h92q178 0 218 5 t57 32l31 53h59l-49 -215h-547z" />
<glyph unicode="&#xb3;" horiz-adv-x="675" d="M33 1180q134 172 325 172q94 0 159 -45t65 -111q0 -32 -15.5 -61t-36 -50t-60.5 -44.5t-68 -37t-78 -36.5v-6q49 20 100 15t93 -25t68.5 -61t26.5 -93q0 -107 -106.5 -188t-255.5 -81q-92 0 -152.5 33.5t-60.5 89.5q0 32 24 56t58 24q53 0 81 -42t33 -97h33q66 0 112 48 t46 120q0 67 -42.5 106t-102.5 39q-43 0 -93 -24l-26 43q16 10 64 37.5t65.5 40t46 35.5t39 44t10.5 45q0 46 -36 73.5t-93 27.5q-101 0 -195 -84z" />
<glyph unicode="&#xb4;" d="M293 1051l188 376h236l-355 -376h-69z" />
<glyph unicode="&#xb5;" horiz-adv-x="1114" d="M18 924h353l-15 -605q-6 -188 185 -188q55 0 110.5 26t93.5 64v584q0 16 -15 24.5t-62 12.5l-70 6l-8 76h358v-764q0 -51 29 -60l121 -37l-6 -55l-347 -39v140h-10q-55 -76 -99 -108t-108 -32q-33 0 -61.5 9.5t-52.5 30t-35 32.5t-31 37h-10l16 -563l-231 -19l31 774 l4 533q0 5 -0.5 9t-1.5 7t-3.5 5t-4.5 4t-6.5 3t-8.5 2t-11.5 2t-13.5 2t-17.5 2.5t-20.5 2.5l-45 6z" />
<glyph unicode="&#xb6;" horiz-adv-x="1013" d="M72 895q0 192 127 288.5t346 96.5h301v-1346h-117v601q-91 -23 -170 -23q-237 0 -362 106.5t-125 276.5z" />
<glyph unicode="&#xb7;" horiz-adv-x="475" d="M90 479q0 60 43.5 103t106.5 43t105 -43t42 -103t-42 -103.5t-105 -43.5q-62 0 -106 44t-44 103z" />
<glyph unicode="&#xb8;" d="M190 -506q324 38 324 172q0 48 -44.5 77.5t-129.5 29.5q-68 0 -135 -15v45l229 240h98l-153 -158q127 -2 200.5 -52t73.5 -138q0 -106 -119 -174t-323 -80z" />
<glyph unicode="&#xb9;" horiz-adv-x="675" d="M96 1221l4 43l346 94v-690q0 -24 31 -29l98 -16l5 -64h-480l4 64l125 16q14 1 22.5 9.5t8.5 19.5v538z" />
<glyph unicode="&#xba;" d="M53 942q0 155 102 261t259 106q158 0 254 -104t96 -257q0 -155 -99.5 -259.5t-256.5 -104.5q-159 0 -257 103t-98 255zM236 985q0 -97 21.5 -172t59.5 -115q41 -41 107 -41q70 0 114 68t44 180q0 208 -80 285q-43 43 -107 43q-71 0 -115 -68t-44 -180z" />
<glyph unicode="&#xbb;" horiz-adv-x="1013" d="M70 127l317 326l-317 325l22 43l463 -315v-107l-463 -315zM481 147l289 306l-289 305l23 41l454 -293v-107l-454 -293z" />
<glyph unicode="&#xbc;" horiz-adv-x="1464" d="M96 1221l4 43l346 94v-690q0 -24 31 -29l98 -16l5 -64h-480l4 64l125 16q14 1 22.5 9.5t8.5 19.5v538zM168 -238l1094 1518h118l-1093 -1518h-119zM803 -16l395 505h125v-493h131l-8 -74h-123v-215h-168v215h-342zM885 -4h270v338h-6z" />
<glyph unicode="&#xbd;" horiz-adv-x="1464" d="M96 1221l4 43l346 94v-690q0 -24 31 -29l98 -16l5 -64h-480l4 64l125 16q14 1 22.5 9.5t8.5 19.5v538zM137 -238l1094 1518h119l-1094 -1518h-119zM821 -217q35 32 95 86.5t91 83t72.5 72t62 74t35.5 69t15 74.5q0 60 -40 94.5t-103 34.5q-97 0 -201 -84l-19 30 q51 78 130.5 130.5t173.5 52.5q116 0 183.5 -59.5t67.5 -155.5q0 -32 -9.5 -62t-34.5 -63.5t-48.5 -59.5t-72 -66t-83 -67.5t-102.5 -78.5q-41 -31 -63 -48v-8h92q177 0 217 5t57 32l31 53h59l-49 -215h-547z" />
<glyph unicode="&#xbe;" horiz-adv-x="1464" d="M33 1180q134 172 325 172q94 0 159 -45t65 -111q0 -32 -15.5 -61t-36 -50t-60.5 -44.5t-68 -37t-78 -36.5v-6q49 20 100 15t93 -25t68.5 -61t26.5 -93q0 -107 -106.5 -188t-255.5 -81q-92 0 -152.5 33.5t-60.5 89.5q0 32 24 56t58 24q53 0 81 -42t33 -97h33q66 0 112 48 t46 120q0 67 -42.5 106t-102.5 39q-43 0 -93 -24l-26 43q16 10 64 37.5t65.5 40t46 35.5t39 44t10.5 45q0 46 -36 73.5t-93 27.5q-101 0 -195 -84zM168 -238l1094 1518h118l-1093 -1518h-119zM803 -16l395 505h125v-493h131l-8 -74h-123v-215h-168v215h-342zM885 -4h270v338 h-6z" />
<glyph unicode="&#xbf;" horiz-adv-x="774" d="M78 330q0 53 11.5 93t27.5 65.5t49.5 48.5t61.5 36t79 33q95 37 123 57q40 33 41 78q0 63 -82 152h72q53 -36 97 -96t44 -125q0 -41 -13 -74t-32 -55.5t-54 -44t-66.5 -34.5t-82.5 -32q-59 -21 -89.5 -34t-58.5 -37t-28 -52q0 -62 91 -103.5t220 -41.5q49 0 148 16 q35 -35 35 -82q0 -57 -48 -94t-132 -37q-107 0 -203 50.5t-153.5 135t-57.5 177.5zM307 1176q0 54 38 93.5t95 39.5q56 0 94.5 -39t38.5 -94t-38.5 -93.5t-94.5 -38.5q-57 0 -95 39t-38 93z" />
<glyph unicode="&#xc0;" horiz-adv-x="1261" d="M-37 0l6 78l54 14q38 11 58.5 23.5t48.5 55.5t57.5 115.5t78.5 209.5l240 663v80l217 80l389 -1157q17 -50 82 -64l94 -20l6 -78h-589l6 78l88 14q21 3 33.5 8t19 16.5t7.5 24t-4.5 39.5t-13 53t-22.5 74l-43 137h-422l-37 -120q-39 -121 -37.5 -172t52.5 -60l76 -14 l6 -78h-451zM270 1769h232l192 -376h-69zM385 537h360l-165 534h-15z" />
<glyph unicode="&#xc1;" horiz-adv-x="1261" d="M-37 0l6 78l54 14q38 11 58.5 23.5t48.5 55.5t57.5 115.5t78.5 209.5l240 663v80l217 80l389 -1157q17 -50 82 -64l94 -20l6 -78h-589l6 78l88 14q21 3 33.5 8t19 16.5t7.5 24t-4.5 39.5t-13 53t-22.5 74l-43 137h-422l-37 -120q-39 -121 -37.5 -172t52.5 -60l76 -14 l6 -78h-451zM385 537h360l-165 534h-15zM541 1393l188 376h236l-355 -376h-69z" />
<glyph unicode="&#xc2;" horiz-adv-x="1261" d="M-37 0l6 78l54 14q38 11 58.5 23.5t48.5 55.5t57.5 115.5t78.5 209.5l240 663v80l217 80l389 -1157q17 -50 82 -64l94 -20l6 -78h-589l6 78l88 14q21 3 33.5 8t19 16.5t7.5 24t-4.5 39.5t-13 53t-22.5 74l-43 137h-422l-37 -120q-39 -121 -37.5 -172t52.5 -60l76 -14 l6 -78h-451zM354 1393l228 393h98l227 -393h-65l-209 217h-4l-209 -217h-66zM385 537h360l-165 534h-15z" />
<glyph unicode="&#xc3;" horiz-adv-x="1261" d="M-37 0l6 78l54 14q38 11 58.5 23.5t48.5 55.5t57.5 115.5t78.5 209.5l240 663v80l217 80l389 -1157q17 -50 82 -64l94 -20l6 -78h-589l6 78l88 14q21 3 33.5 8t19 16.5t7.5 24t-4.5 39.5t-13 53t-22.5 74l-43 137h-422l-37 -120q-39 -121 -37.5 -172t52.5 -60l76 -14 l6 -78h-451zM285 1427q19 134 69.5 199.5t137.5 65.5q43 0 91.5 -23t83.5 -51t74 -51t64 -23q31 0 52 28t50 103h70q-19 -135 -69 -199.5t-138 -64.5q-43 0 -92 22.5t-85 50t-74.5 50t-63.5 22.5q-31 0 -51.5 -27.5t-47.5 -101.5h-71zM385 537h360l-165 534h-15z" />
<glyph unicode="&#xc4;" horiz-adv-x="1261" d="M-37 0l6 78l54 14q38 11 58.5 23.5t48.5 55.5t57.5 115.5t78.5 209.5l240 663v80l217 80l389 -1157q17 -50 82 -64l94 -20l6 -78h-589l6 78l88 14q21 3 33.5 8t19 16.5t7.5 24t-4.5 39.5t-13 53t-22.5 74l-43 137h-422l-37 -120q-39 -121 -37.5 -172t52.5 -60l76 -14 l6 -78h-451zM291 1583q0 57 34.5 97t92.5 40q59 0 93 -40t34 -97q0 -56 -34 -95.5t-93 -39.5q-58 0 -92.5 40t-34.5 95zM385 537h360l-165 534h-15zM717 1583q0 57 34.5 97t92.5 40t92.5 -40t34.5 -97q0 -55 -34.5 -95t-92.5 -40t-92.5 40t-34.5 95z" />
<glyph unicode="&#xc5;" horiz-adv-x="1261" d="M-37 0l6 78l54 14q30 8 48 19t38.5 32.5t42 67.5t47.5 111t67 176l273 745q-47 23 -74 68.5t-27 101.5q0 82 52 138.5t139 56.5t139.5 -56.5t52.5 -138.5q0 -48 -20 -90t-56 -68l367 -1093q17 -50 82 -64l94 -20l6 -78h-589l6 78l88 14q21 3 33.5 8t19 16.5t7.5 24 t-4.5 39.5t-13 53t-22.5 74l-43 137h-422l-37 -120q-39 -121 -37.5 -172t52.5 -60l76 -14l6 -78h-451zM385 535h360l-167 540h-13zM504 1413q0 -55 34.5 -94t90.5 -39q58 0 92.5 39t34.5 94t-34.5 95t-92.5 40q-56 0 -90.5 -40t-34.5 -95z" />
<glyph unicode="&#xc6;" horiz-adv-x="1746" d="M-82 0l6 78l56 12q35 8 53.5 16t45.5 30t54.5 65.5t67 113.5t96.5 183l283 553q31 60 17.5 94.5t-73.5 46.5l-63 12l-6 76h1181v-401h-112l-47 184q-9 33 -16.5 52t-27.5 35.5t-42.5 23.5t-73.5 12.5t-107 6.5t-155 1h-62v-502h33q110 0 147.5 10t49.5 46l47 137h90 l-45 -467h-86l-19 129q-3 25 -15 36t-51.5 17t-123.5 6h-27v-520h51q78 0 128.5 0.5t99 3.5t76.5 6t54.5 11t40 16.5t26 23t19 30.5t13.5 40l49 170h123l-39 -387h-1016l7 76l104 22q47 11 47 49v310h-389l-57 -109q-53 -100 -70 -155t-6.5 -74.5t43.5 -26.5l76 -14l6 -78 h-461zM432 547h344v641h-18z" />
<glyph unicode="&#xc7;" horiz-adv-x="1425" d="M90 625q0 207 96.5 364t260.5 238.5t370 81.5q163 0 295 -45l176 36v-436h-119l-69 279q-128 74 -281 74q-215 0 -343 -157t-128 -407q0 -272 128.5 -434t359.5 -162q132 0 239 58l96 293h125l-43 -408l-118 23q-128 -46 -283 -54l-82 -84q127 -2 200.5 -52t73.5 -138 q0 -106 -119 -174t-323 -80l-20 53q323 38 323 172q0 48 -44.5 77.5t-129.5 29.5q-67 0 -135 -15v45l160 168q-144 7 -265 53.5t-210.5 127.5t-140 202.5t-50.5 270.5z" />
<glyph unicode="&#xc8;" horiz-adv-x="1265" d="M78 0l6 76l80 10q72 8 72 37v1036q0 14 -15.5 21.5t-60.5 13.5l-76 10l-6 76h1061v-401h-119l-47 184q-8 33 -16.5 52t-29 35.5t-43.5 23.5t-74 12.5t-106 6.5t-153 1h-84v-502h53q107 0 145 10t50 46l47 137h94l-45 -467h-90l-19 129q-3 25 -15.5 36t-51.5 17t-121 6 h-47v-520h78q87 0 141.5 1t105 4t78.5 9.5t52 15t37 24t21.5 33t16.5 44.5l47 170h130l-39 -387h-1057zM301 1769h231l193 -376h-70z" />
<glyph unicode="&#xc9;" horiz-adv-x="1265" d="M78 0l6 76l80 10q72 8 72 37v1036q0 14 -15.5 21.5t-60.5 13.5l-76 10l-6 76h1061v-401h-119l-47 184q-8 33 -16.5 52t-29 35.5t-43.5 23.5t-74 12.5t-106 6.5t-153 1h-84v-502h53q107 0 145 10t50 46l47 137h94l-45 -467h-90l-19 129q-3 25 -15.5 36t-51.5 17t-121 6 h-47v-520h78q87 0 141.5 1t105 4t78.5 9.5t52 15t37 24t21.5 33t16.5 44.5l47 170h130l-39 -387h-1057zM563 1393l189 376h235l-354 -376h-70z" />
<glyph unicode="&#xca;" horiz-adv-x="1265" d="M78 0l6 76l80 10q72 8 72 37v1036q0 14 -15.5 21.5t-60.5 13.5l-76 10l-6 76h1061v-401h-119l-47 184q-8 33 -16.5 52t-29 35.5t-43.5 23.5t-74 12.5t-106 6.5t-153 1h-84v-502h53q107 0 145 10t50 46l47 137h94l-45 -467h-90l-19 129q-3 25 -15.5 36t-51.5 17t-121 6 h-47v-520h78q87 0 141.5 1t105 4t78.5 9.5t52 15t37 24t21.5 33t16.5 44.5l47 170h130l-39 -387h-1057zM356 1393l228 393h98l227 -393h-65l-209 217h-4l-209 -217h-66z" />
<glyph unicode="&#xcb;" horiz-adv-x="1265" d="M78 0l6 76l80 10q72 8 72 37v1036q0 14 -15.5 21.5t-60.5 13.5l-76 10l-6 76h1061v-401h-119l-47 184q-8 33 -16.5 52t-29 35.5t-43.5 23.5t-74 12.5t-106 6.5t-153 1h-84v-502h53q107 0 145 10t50 46l47 137h94l-45 -467h-90l-19 129q-3 25 -15.5 36t-51.5 17t-121 6 h-47v-520h78q87 0 141.5 1t105 4t78.5 9.5t52 15t37 24t21.5 33t16.5 44.5l47 170h130l-39 -387h-1057zM293 1583q0 57 34.5 97t92.5 40q59 0 93 -40t34 -97q0 -56 -34 -95.5t-93 -39.5q-58 0 -92.5 40t-34.5 95zM719 1583q0 57 34.5 97t92.5 40t92.5 -40t34.5 -97 q0 -55 -34.5 -95t-92.5 -40t-92.5 40t-34.5 95z" />
<glyph unicode="&#xcc;" horiz-adv-x="751" d="M4 1769h232l192 -376h-70zM82 0l6 76l100 10q72 8 72 37v1036q0 15 -15.5 23t-60.5 12l-96 10l-6 76h588l-6 -76l-101 -10q-71 -8 -71 -37v-1036q0 -15 15 -23t58 -12l99 -10l6 -76h-588z" />
<glyph unicode="&#xcd;" horiz-adv-x="751" d="M82 0l6 76l100 10q72 8 72 37v1036q0 15 -15.5 23t-60.5 12l-96 10l-6 76h588l-6 -76l-101 -10q-71 -8 -71 -37v-1036q0 -15 15 -23t58 -12l99 -10l6 -76h-588zM322 1393l188 376h235l-354 -376h-69z" />
<glyph unicode="&#xce;" horiz-adv-x="751" d="M82 0l6 76l100 10q72 8 72 37v1036q0 15 -15.5 23t-60.5 12l-96 10l-6 76h588l-6 -76l-101 -10q-71 -8 -71 -37v-1036q0 -15 15 -23t58 -12l99 -10l6 -76h-588zM98 1393l228 393h98l227 -393h-65l-209 217h-4l-209 -217h-66z" />
<glyph unicode="&#xcf;" horiz-adv-x="751" d="M35 1583q0 57 34.5 97t92.5 40q59 0 93 -40t34 -97q0 -56 -34 -95.5t-93 -39.5q-58 0 -92.5 40t-34.5 95zM82 0l6 76l100 10q72 8 72 37v1036q0 15 -15.5 23t-60.5 12l-96 10l-6 76h588l-6 -76l-101 -10q-71 -8 -71 -37v-1036q0 -15 15 -23t58 -12l99 -10l6 -76h-588z M461 1583q0 57 34.5 97t92.5 40t92.5 -40t34.5 -97q0 -55 -34.5 -95t-92.5 -40t-92.5 40t-34.5 95z" />
<glyph unicode="&#xd0;" horiz-adv-x="1413" d="M68 604l6 90h162v439q0 38 -48 49l-104 22l-6 76l491 6q224 3 399 -75.5t271 -219t96 -319.5q0 -146 -50 -268.5t-145 -212.5t-242 -140.5t-333 -50.5h-487l6 76l104 22q48 11 48 49v457h-168zM457 117l147 -31q149 -6 262.5 63t171.5 190t58 273q0 270 -148.5 427 t-427.5 157h-63v-502h237l6 -90h-243v-487z" />
<glyph unicode="&#xd1;" horiz-adv-x="1519" d="M66 0l6 76l96 20q39 8 55 31t24.5 106.5t8.5 270.5v514q0 68 -20.5 106t-61.5 58l-96 22l-6 76h397l702 -971h13v467q0 118 -2 185.5t-6 114.5t-15.5 67t-23.5 28t-37 13l-105 20l-6 76h477l-6 -76l-96 -20q-39 -8 -55 -31t-24.5 -106.5t-8.5 -270.5v-792h-146l-772 1058 h-12v-538q0 -116 2.5 -185t6.5 -115t15.5 -66.5t23.5 -28.5t36 -13l105 -20l6 -76h-475zM414 1427q19 134 69.5 199.5t137.5 65.5q43 0 91.5 -23t83.5 -51t74 -51t64 -23q31 0 52 28t50 103h70q-19 -135 -69 -199.5t-138 -64.5q-43 0 -92 22.5t-85 50t-74.5 50t-63.5 22.5 q-31 0 -51.5 -27.5t-47.5 -101.5h-71z" />
<glyph unicode="&#xd2;" horiz-adv-x="1542" d="M90 627q0 188 92 344.5t249.5 246t344.5 89.5q195 0 348.5 -83t239.5 -233.5t86 -343.5q0 -189 -91.5 -345.5t-248 -245.5t-342.5 -89q-196 0 -350.5 83t-241 233.5t-86.5 343.5zM348 651q0 -138 34.5 -252.5t93 -189t136 -115.5t164.5 -41q180 0 299 151t119 419 q0 273 -124 435.5t-304 162.5q-179 0 -298.5 -151.5t-119.5 -418.5zM461 1769h231l193 -376h-70z" />
<glyph unicode="&#xd3;" horiz-adv-x="1542" d="M90 627q0 188 92 344.5t249.5 246t344.5 89.5q195 0 348.5 -83t239.5 -233.5t86 -343.5q0 -189 -91.5 -345.5t-248 -245.5t-342.5 -89q-196 0 -350.5 83t-241 233.5t-86.5 343.5zM348 651q0 -138 34.5 -252.5t93 -189t136 -115.5t164.5 -41q180 0 299 151t119 419 q0 273 -124 435.5t-304 162.5q-179 0 -298.5 -151.5t-119.5 -418.5zM670 1393l188 376h236l-355 -376h-69z" />
<glyph unicode="&#xd4;" horiz-adv-x="1542" d="M90 627q0 188 92 344.5t249.5 246t344.5 89.5q195 0 348.5 -83t239.5 -233.5t86 -343.5q0 -189 -91.5 -345.5t-248 -245.5t-342.5 -89q-196 0 -350.5 83t-241 233.5t-86.5 343.5zM348 651q0 -138 34.5 -252.5t93 -189t136 -115.5t164.5 -41q180 0 299 151t119 419 q0 273 -124 435.5t-304 162.5q-179 0 -298.5 -151.5t-119.5 -418.5zM494 1393l227 393h98l228 -393h-66l-209 217h-4l-209 -217h-65z" />
<glyph unicode="&#xd5;" horiz-adv-x="1542" d="M90 627q0 188 92 344.5t249.5 246t344.5 89.5q195 0 348.5 -83t239.5 -233.5t86 -343.5q0 -189 -91.5 -345.5t-248 -245.5t-342.5 -89q-196 0 -350.5 83t-241 233.5t-86.5 343.5zM348 651q0 -138 34.5 -252.5t93 -189t136 -115.5t164.5 -41q180 0 299 151t119 419 q0 273 -124 435.5t-304 162.5q-179 0 -298.5 -151.5t-119.5 -418.5zM424 1427q19 134 69.5 199.5t137.5 65.5q43 0 91.5 -23t83.5 -51t74 -51t64 -23q31 0 52.5 28.5t50.5 102.5h69q-19 -135 -69 -199.5t-138 -64.5q-43 0 -92 22.5t-85 50t-74.5 50t-63.5 22.5 q-31 0 -50.5 -27.5t-47.5 -101.5h-72z" />
<glyph unicode="&#xd6;" horiz-adv-x="1542" d="M90 627q0 188 92 344.5t249.5 246t344.5 89.5q195 0 348.5 -83t239.5 -233.5t86 -343.5q0 -189 -91.5 -345.5t-248 -245.5t-342.5 -89q-196 0 -350.5 83t-241 233.5t-86.5 343.5zM348 651q0 -138 34.5 -252.5t93 -189t136 -115.5t164.5 -41q180 0 299 151t119 419 q0 273 -124 435.5t-304 162.5q-179 0 -298.5 -151.5t-119.5 -418.5zM430 1583q0 57 34.5 97t92.5 40q59 0 93 -40t34 -97q0 -56 -34 -95.5t-93 -39.5q-58 0 -92.5 40t-34.5 95zM856 1583q0 57 34.5 97t92.5 40t92.5 -40t34.5 -97q0 -55 -34.5 -95t-92.5 -40t-92.5 40 t-34.5 95z" />
<glyph unicode="&#xd7;" horiz-adv-x="983" d="M70 137l342 344l-342 342l77 80l345 -342l344 342l77 -80l-342 -342l342 -344l-77 -80l-344 344l-345 -344z" />
<glyph unicode="&#xd8;" horiz-adv-x="1542" d="M82 627q0 140 48.5 264.5t134.5 217t212 146.5t273 54q163 0 303 -64l96 164h100l-121 -205q135 -86 210 -229t75 -324q0 -140 -48.5 -264.5t-134.5 -217t-212 -146.5t-273 -54q-164 0 -296 60l-107 -181h-98l127 222q-136 86 -212.5 230.5t-76.5 326.5zM315 666 q0 -274 144 -447l522 901q-114 97 -250 97q-185 0 -300.5 -147.5t-115.5 -403.5zM520 156q107 -90 244 -90q186 0 301 144.5t115 401.5q0 266 -138 441z" />
<glyph unicode="&#xd9;" horiz-adv-x="1458" d="M66 1280h544l-6 -76l-80 -10q-69 -8 -69 -37v-690q0 -193 91.5 -286t254.5 -93q161 0 248.5 93.5t87.5 269.5v325q0 116 -2.5 185t-6.5 115t-15.5 66.5t-23.5 28.5t-36 13l-105 20l-6 76h477l-6 -76l-96 -20q-25 -5 -37.5 -13t-24.5 -29t-16.5 -66t-7 -115t-2.5 -185 v-352q0 -212 -135 -336.5t-367 -124.5q-236 0 -371 114t-135 333v749q0 14 -15 21.5t-59 13.5l-75 10zM420 1769h231l193 -376h-70z" />
<glyph unicode="&#xda;" horiz-adv-x="1458" d="M66 1280h544l-6 -76l-80 -10q-69 -8 -69 -37v-690q0 -193 91.5 -286t254.5 -93q161 0 248.5 93.5t87.5 269.5v325q0 116 -2.5 185t-6.5 115t-15.5 66.5t-23.5 28.5t-36 13l-105 20l-6 76h477l-6 -76l-96 -20q-25 -5 -37.5 -13t-24.5 -29t-16.5 -66t-7 -115t-2.5 -185 v-352q0 -212 -135 -336.5t-367 -124.5q-236 0 -371 114t-135 333v749q0 14 -15 21.5t-59 13.5l-75 10zM705 1393l188 376h235l-354 -376h-69z" />
<glyph unicode="&#xdb;" horiz-adv-x="1458" d="M66 1280h544l-6 -76l-80 -10q-69 -8 -69 -37v-690q0 -193 91.5 -286t254.5 -93q161 0 248.5 93.5t87.5 269.5v325q0 116 -2.5 185t-6.5 115t-15.5 66.5t-23.5 28.5t-36 13l-105 20l-6 76h477l-6 -76l-96 -20q-25 -5 -37.5 -13t-24.5 -29t-16.5 -66t-7 -115t-2.5 -185 v-352q0 -212 -135 -336.5t-367 -124.5q-236 0 -371 114t-135 333v749q0 14 -15 21.5t-59 13.5l-75 10zM494 1393l227 393h98l228 -393h-66l-209 217h-4l-209 -217h-65z" />
<glyph unicode="&#xdc;" horiz-adv-x="1458" d="M66 1280h544l-6 -76l-80 -10q-69 -8 -69 -37v-690q0 -193 91.5 -286t254.5 -93q161 0 248.5 93.5t87.5 269.5v325q0 116 -2.5 185t-6.5 115t-15.5 66.5t-23.5 28.5t-36 13l-105 20l-6 76h477l-6 -76l-96 -20q-25 -5 -37.5 -13t-24.5 -29t-16.5 -66t-7 -115t-2.5 -185 v-352q0 -212 -135 -336.5t-367 -124.5q-236 0 -371 114t-135 333v749q0 14 -15 21.5t-59 13.5l-75 10zM406 1583q0 57 34 97t92 40q59 0 93 -40t34 -97q0 -56 -34 -95.5t-93 -39.5q-58 0 -92 40t-34 95zM831 1583q0 57 34.5 97t92.5 40t92.5 -40t34.5 -97q0 -55 -34.5 -95 t-92.5 -40t-92.5 40t-34.5 95z" />
<glyph unicode="&#xdd;" horiz-adv-x="1236" d="M-20 1280h552l-6 -78l-75 -12q-31 -5 -39 -26t8 -67.5t61 -123.5l193 -332h12l205 363q53 95 50.5 136t-60.5 52l-54 10l-6 78h432l-6 -78l-35 -10q-59 -17 -101 -52t-99 -132l-269 -455v-432q0 -15 15.5 -23t58.5 -12l113 -10l6 -76h-617l7 76l114 10q72 5 72 37v403 l-360 584q-39 60 -103 76l-63 16zM502 1393l188 376h236l-355 -376h-69z" />
<glyph unicode="&#xde;" horiz-adv-x="1232" d="M78 0l6 76l80 10q72 8 72 37v1036q0 14 -15.5 21.5t-60.5 13.5l-76 10l-6 76h547l-7 -76l-79 -10q-30 -3 -51 -13.5t-21 -23.5v-125h162q247 0 380.5 -99t133.5 -259q0 -129 -72.5 -224t-189.5 -141.5t-260 -46.5q-44 0 -154 8v-149q0 -15 15.5 -23t58.5 -12l110 -10 l6 -76h-579zM467 362q82 -16 158 -16q123 0 194.5 78.5t71.5 212.5q0 146 -88 228.5t-248 82.5h-88v-586z" />
<glyph unicode="&#xdf;" horiz-adv-x="1124" d="M18 809l13 109l143 4l2 30q15 228 131 349.5t305 121.5q163 0 259 -78.5t96 -211.5q0 -197 -252 -267q70 -38 133.5 -89t118 -115.5t86.5 -143t32 -158.5q0 -157 -104 -275t-246 -118q-108 0 -181 54.5t-73 134.5q0 60 38 99.5t95 39.5q66 0 97.5 -44t21 -98t-52.5 -83 q38 -19 63 -19q70 0 120 59t50 146q0 136 -99 276t-298 244v101q135 26 195.5 88.5t60.5 175.5q0 82 -52.5 137t-129.5 55q-203 0 -203 -305v-1028h-332l6 76l64 6q31 3 45 12t14 27v676z" />
<glyph unicode="&#xe0;" horiz-adv-x="960" d="M63 694q0 54 65.5 115.5t165.5 103t191 41.5q119 0 186.5 -37t98.5 -127.5t25 -248.5l-15 -342q-3 -84 47 -84q34 0 99 49l35 -49q-113 -150 -222 -150q-63 0 -104 40.5t-45 121.5h-10q-63 -75 -125.5 -116.5t-135.5 -41.5q-101 0 -175 68t-74 172q0 125 124 206.5 t396 147.5v19q0 144 -51 204t-150 60q-49 0 -97 -15t-48 -28q0 -3 12 -18t24.5 -39.5t12.5 -51.5q0 -39 -32 -70.5t-83 -31.5q-50 0 -82.5 29.5t-32.5 72.5zM106 1427h232l192 -376h-69zM270 260q0 -65 42 -104t100 -39q77 0 166 82l8 293q-179 -46 -247.5 -103t-68.5 -129z " />
<glyph unicode="&#xe1;" horiz-adv-x="960" d="M63 694q0 54 65.5 115.5t165.5 103t191 41.5q119 0 186.5 -37t98.5 -127.5t25 -248.5l-15 -342q-3 -84 47 -84q34 0 99 49l35 -49q-113 -150 -222 -150q-63 0 -104 40.5t-45 121.5h-10q-63 -75 -125.5 -116.5t-135.5 -41.5q-101 0 -175 68t-74 172q0 125 124 206.5 t396 147.5v19q0 144 -51 204t-150 60q-49 0 -97 -15t-48 -28q0 -3 12 -18t24.5 -39.5t12.5 -51.5q0 -39 -32 -70.5t-83 -31.5q-50 0 -82.5 29.5t-32.5 72.5zM270 260q0 -65 42 -104t100 -39q77 0 166 82l8 293q-179 -46 -247.5 -103t-68.5 -129zM360 1051l189 376h235 l-354 -376h-70z" />
<glyph unicode="&#xe2;" horiz-adv-x="960" d="M63 694q0 54 65.5 115.5t165.5 103t191 41.5q119 0 186.5 -37t98.5 -127.5t25 -248.5l-15 -342q-3 -84 47 -84q34 0 99 49l35 -49q-113 -150 -222 -150q-63 0 -104 40.5t-45 121.5h-10q-63 -75 -125.5 -116.5t-135.5 -41.5q-101 0 -175 68t-74 172q0 125 124 206.5 t396 147.5v19q0 144 -51 204t-150 60q-49 0 -97 -15t-48 -28q0 -3 12 -18t24.5 -39.5t12.5 -51.5q0 -39 -32 -70.5t-83 -31.5q-50 0 -82.5 29.5t-32.5 72.5zM164 1051l227 393h98l228 -393h-66l-209 217h-4l-209 -217h-65zM270 260q0 -65 42 -104t100 -39q77 0 166 82l8 293 q-179 -46 -247.5 -103t-68.5 -129z" />
<glyph unicode="&#xe3;" horiz-adv-x="960" d="M63 694q0 54 65.5 115.5t165.5 103t191 41.5q119 0 186.5 -37t98.5 -127.5t25 -248.5l-15 -342q-3 -84 47 -84q34 0 99 49l35 -49q-113 -150 -222 -150q-63 0 -104 40.5t-45 121.5h-10q-63 -75 -125.5 -116.5t-135.5 -41.5q-101 0 -175 68t-74 172q0 125 124 206.5 t396 147.5v19q0 144 -51 204t-150 60q-49 0 -97 -15t-48 -28q0 -3 12 -18t24.5 -39.5t12.5 -51.5q0 -39 -32 -70.5t-83 -31.5q-50 0 -82.5 29.5t-32.5 72.5zM94 1085q19 134 69.5 199.5t137.5 65.5q43 0 91.5 -23t83.5 -51t74 -51t64 -23q31 0 52.5 28.5t50.5 102.5h69 q-19 -135 -69 -199.5t-137 -64.5q-43 0 -92 22.5t-85 50t-75 50t-64 22.5q-31 0 -50.5 -27.5t-47.5 -101.5h-72zM270 260q0 -65 42 -104t100 -39q77 0 166 82l8 293q-179 -46 -247.5 -103t-68.5 -129z" />
<glyph unicode="&#xe4;" horiz-adv-x="960" d="M63 694q0 54 65.5 115.5t165.5 103t191 41.5q119 0 186.5 -37t98.5 -127.5t25 -248.5l-15 -342q-3 -84 47 -84q34 0 99 49l35 -49q-113 -150 -222 -150q-63 0 -104 40.5t-45 121.5h-10q-63 -75 -125.5 -116.5t-135.5 -41.5q-101 0 -175 68t-74 172q0 125 124 206.5 t396 147.5v19q0 144 -51 204t-150 60q-49 0 -97 -15t-48 -28q0 -3 12 -18t24.5 -39.5t12.5 -51.5q0 -39 -32 -70.5t-83 -31.5q-50 0 -82.5 29.5t-32.5 72.5zM117 1241q0 57 34.5 97t92.5 40q59 0 93 -40t34 -97q0 -56 -34 -95.5t-93 -39.5q-58 0 -92.5 40t-34.5 95zM270 260 q0 -65 42 -104t100 -39q77 0 166 82l8 293q-179 -46 -247.5 -103t-68.5 -129zM543 1241q0 57 34.5 97t92.5 40t92.5 -40t34.5 -97q0 -55 -34.5 -95t-92.5 -40t-92.5 40t-34.5 95z" />
<glyph unicode="&#xe5;" horiz-adv-x="958" d="M63 694q0 54 65.5 115.5t165.5 103t191 41.5q119 0 186.5 -37t98.5 -127.5t25 -248.5l-15 -342q-3 -84 47 -84q34 0 99 49l35 -49q-113 -150 -222 -150q-63 0 -104 40.5t-45 121.5h-10q-63 -75 -125.5 -116.5t-135.5 -41.5q-101 0 -175 68t-74 172q0 125 124 206.5 t396 147.5v19q0 144 -51 204t-150 60q-49 0 -97 -15t-48 -28q0 -3 12 -18t24.5 -39.5t12.5 -51.5q0 -39 -32 -70.5t-83 -31.5q-50 0 -82.5 29.5t-32.5 72.5zM268 1249q0 82 53 138.5t140 56.5t139.5 -56.5t52.5 -138.5q0 -81 -52.5 -137.5t-139.5 -56.5t-140 56.5t-53 137.5 zM270 260q0 -65 42 -104t100 -39q77 0 166 82l8 293q-179 -46 -247.5 -103t-68.5 -129zM334 1249q0 -55 34.5 -94t92.5 -39t92.5 39t34.5 94t-34.5 94t-92.5 39t-92.5 -39t-34.5 -94z" />
<glyph unicode="&#xe6;" horiz-adv-x="1480" d="M63 694q0 54 65 115.5t165 103t192 41.5q213 0 269 -123q136 123 315 123q149 0 241.5 -85t92.5 -228q0 -61 -12 -113l-596 9v-23q0 -171 85 -277t218 -106q152 0 254 119l43 -25q-54 -123 -156.5 -189.5t-237.5 -66.5q-115 0 -207 55t-149 152q-61 -90 -147.5 -148.5 t-178.5 -58.5q-101 0 -175 68t-74 172q0 125 124 206.5t396 147.5l2 25q10 130 -46.5 194t-156.5 64q-49 0 -97 -15t-48 -28q0 -3 12 -18t24.5 -39.5t12.5 -51.5q0 -39 -32 -70.5t-83 -31.5q-50 0 -82.5 29.5t-32.5 72.5zM270 260q0 -66 41.5 -104.5t106.5 -38.5 q103 0 200 108q-36 88 -36 205q0 31 4 59q-176 -44 -246 -101t-70 -128zM799 604q25 0 66 0.5t127.5 0.5t142.5 0.5t53 0.5q7 122 -37.5 193t-122.5 71q-84 0 -149.5 -70.5t-79.5 -195.5z" />
<glyph unicode="&#xe7;" horiz-adv-x="929" d="M68 430q0 112 39.5 210t106.5 166.5t158 108t193 39.5q142 0 223.5 -59t81.5 -145q0 -62 -36.5 -89.5t-88.5 -27.5q-64 0 -98.5 62t-17.5 141v4q-41 26 -99 26q-107 0 -177 -90.5t-70 -249.5q0 -172 84.5 -283.5t216.5 -111.5q152 0 254 119l43 -25q-47 -107 -131.5 -172 t-194.5 -80l-86 -88q127 -2 200.5 -52t73.5 -138q0 -106 -119 -174t-323 -80l-20 53q323 38 323 172q0 48 -44.5 77.5t-129.5 29.5q-68 0 -135 -15v45l160 168q-169 12 -278 140.5t-109 318.5z" />
<glyph unicode="&#xe8;" horiz-adv-x="966" d="M68 430q0 226 140 375t347 149q149 0 241.5 -85t92.5 -228q0 -61 -12 -113l-596 9v-23q0 -171 85 -277t218 -106q152 0 254 119l43 -25q-54 -123 -156.5 -189.5t-237.5 -66.5q-181 0 -300 130.5t-119 330.5zM174 1427h232l192 -376h-70zM285 604q25 0 66 0.5t127 0.5 t142 0.5t54 0.5q6 123 -38 193.5t-122 70.5q-84 0 -149.5 -70.5t-79.5 -195.5z" />
<glyph unicode="&#xe9;" horiz-adv-x="966" d="M68 430q0 226 140 375t347 149q149 0 241.5 -85t92.5 -228q0 -61 -12 -113l-596 9v-23q0 -171 85 -277t218 -106q152 0 254 119l43 -25q-54 -123 -156.5 -189.5t-237.5 -66.5q-181 0 -300 130.5t-119 330.5zM285 604q25 0 66 0.5t127 0.5t142 0.5t54 0.5q6 123 -38 193.5 t-122 70.5q-84 0 -149.5 -70.5t-79.5 -195.5zM377 1051l188 376h236l-355 -376h-69z" />
<glyph unicode="&#xea;" horiz-adv-x="966" d="M68 430q0 226 140 375t347 149q149 0 241.5 -85t92.5 -228q0 -61 -12 -113l-596 9v-23q0 -171 85 -277t218 -106q152 0 254 119l43 -25q-54 -123 -156.5 -189.5t-237.5 -66.5q-181 0 -300 130.5t-119 330.5zM207 1051l227 393h98l228 -393h-66l-209 217h-4l-209 -217h-65 zM285 604q25 0 66 0.5t127 0.5t142 0.5t54 0.5q6 123 -38 193.5t-122 70.5q-84 0 -149.5 -70.5t-79.5 -195.5z" />
<glyph unicode="&#xeb;" horiz-adv-x="966" d="M68 430q0 226 140 375t347 149q149 0 241.5 -85t92.5 -228q0 -61 -12 -113l-596 9v-23q0 -171 85 -277t218 -106q152 0 254 119l43 -25q-54 -123 -156.5 -189.5t-237.5 -66.5q-181 0 -300 130.5t-119 330.5zM143 1241q0 57 34.5 97t92.5 40q59 0 93 -40t34 -97 q0 -56 -34 -95.5t-93 -39.5q-58 0 -92.5 40t-34.5 95zM285 604q25 0 66 0.5t127 0.5t142 0.5t54 0.5q6 123 -38 193.5t-122 70.5q-84 0 -149.5 -70.5t-79.5 -195.5zM569 1241q0 57 34.5 97t92.5 40t92.5 -40t34.5 -97q0 -55 -34.5 -95t-92.5 -40t-92.5 40t-34.5 95z" />
<glyph unicode="&#xec;" horiz-adv-x="581" d="M-27 1427h232l192 -376h-69zM57 803l2 59l334 92v-835q0 -16 15 -23.5t63 -13.5l51 -6l6 -76h-467l7 76l51 6q38 5 53.5 13t15.5 26v504q0 67 -7 98t-24.5 45.5t-56.5 24.5z" />
<glyph unicode="&#xed;" horiz-adv-x="581" d="M57 803l2 59l334 92v-835q0 -16 15 -23.5t63 -13.5l51 -6l6 -76h-467l7 76l51 6q38 5 53.5 13t15.5 26v504q0 67 -7 98t-24.5 45.5t-56.5 24.5zM174 1051l188 376h236l-354 -376h-70z" />
<glyph unicode="&#xee;" horiz-adv-x="581" d="M14 1051l228 393h98l227 -393h-65l-209 217h-4l-209 -217h-66zM57 803l2 59l334 92v-835q0 -16 15 -23.5t63 -13.5l51 -6l6 -76h-467l7 76l51 6q38 5 53.5 13t15.5 26v504q0 67 -7 98t-24.5 45.5t-56.5 24.5z" />
<glyph unicode="&#xef;" horiz-adv-x="581" d="M-49 1241q0 57 34.5 97t92.5 40q59 0 93 -40t34 -97q0 -56 -34 -95.5t-93 -39.5q-58 0 -92.5 40t-34.5 95zM57 803l2 59l334 92v-835q0 -16 15 -23.5t63 -13.5l51 -6l6 -76h-467l7 76l51 6q38 5 53.5 13t15.5 26v504q0 67 -7 98t-24.5 45.5t-56.5 24.5zM377 1241 q0 57 34.5 97t92.5 40t92.5 -40t34.5 -97q0 -55 -34.5 -95t-92.5 -40t-92.5 40t-34.5 95z" />
<glyph unicode="&#xf0;" horiz-adv-x="1075" d="M68 459q0 108 36 201t96 154.5t137.5 96.5t160.5 35q182 0 284 -162q-59 230 -215 363l-299 -98v94l211 69q-99 63 -215 95l29 67q170 -34 315 -119l256 86v-94l-164 -55q150 -117 233 -284t83 -367q1 -252 -133 -412t-342 -160q-140 0 -249 66.5t-166.5 177.5t-57.5 246 zM289 520q0 -127 30.5 -230t88.5 -161q66 -66 155 -66q104 0 169 90.5t65 247.5q0 124 -31 229t-86 161q-67 67 -158 67q-106 0 -169.5 -90t-63.5 -248z" />
<glyph unicode="&#xf1;" horiz-adv-x="1146" d="M53 803l2 59l336 92v-149h10q185 149 332 149q103 0 170 -67q78 -78 78 -234v-532q0 -15 16.5 -24t67.5 -15l49 -6l6 -76h-465l7 76l45 6q42 6 55.5 14.5t13.5 24.5v414q0 146 -44 202t-138 56q-55 0 -110 -22.5t-93 -53.5v-598q0 -16 15.5 -24.5t62.5 -12.5l61 -6l7 -76 h-480l6 76l54 6q38 5 53.5 13t15.5 26v504q0 95 -16.5 125.5t-71.5 42.5zM227 1085q19 134 69.5 199.5t137.5 65.5q43 0 91.5 -23t84 -51t74.5 -51t64 -23q31 0 52 28t50 103h70q-19 -135 -69 -199.5t-138 -64.5q-43 0 -92 22.5t-85 50t-75 50t-64 22.5q-31 0 -50.5 -27.5 t-47.5 -101.5h-72z" />
<glyph unicode="&#xf2;" horiz-adv-x="1089" d="M94 457q0 136 66 250t181 180.5t253 66.5q206 0 332.5 -135.5t126.5 -335.5q0 -214 -143.5 -364t-356.5 -150q-208 0 -333.5 140t-125.5 348zM176 1427h232l192 -376h-70zM319 514q0 -280 103 -389q68 -68 160 -68q104 0 173.5 96t69.5 255q0 282 -102 387 q-65 69 -158 69q-107 0 -176.5 -94.5t-69.5 -255.5z" />
<glyph unicode="&#xf3;" horiz-adv-x="1093" d="M68 457q0 136 65.5 250t180.5 180.5t253 66.5q206 0 332.5 -135.5t126.5 -335.5q0 -214 -143.5 -364t-356.5 -150q-139 0 -244.5 66t-159.5 176t-54 246zM293 514q0 -281 102 -389q68 -68 160 -68q104 0 174 96t70 255q0 281 -103 387q-65 69 -157 69 q-107 0 -176.5 -94.5t-69.5 -255.5zM455 1051l188 376h236l-355 -376h-69z" />
<glyph unicode="&#xf4;" horiz-adv-x="1093" d="M68 457q0 136 65.5 250t180.5 180.5t253 66.5q206 0 332.5 -135.5t126.5 -335.5q0 -214 -143.5 -364t-356.5 -150q-139 0 -244.5 66t-159.5 176t-54 246zM268 1051l228 393h98l227 -393h-65l-209 217h-4l-209 -217h-66zM293 514q0 -281 102 -389q68 -68 160 -68 q104 0 174 96t70 255q0 281 -103 387q-65 69 -157 69q-107 0 -176.5 -94.5t-69.5 -255.5z" />
<glyph unicode="&#xf5;" horiz-adv-x="1093" d="M68 457q0 136 65.5 250t180.5 180.5t253 66.5q206 0 332.5 -135.5t126.5 -335.5q0 -214 -143.5 -364t-356.5 -150q-139 0 -244.5 66t-159.5 176t-54 246zM199 1085q19 134 69.5 199.5t137.5 65.5q43 0 91.5 -23t83.5 -51t74 -51t64 -23q31 0 52 28t50 103h70 q-19 -135 -69 -199.5t-138 -64.5q-43 0 -92 22.5t-85 50t-74.5 50t-63.5 22.5q-31 0 -51.5 -27.5t-47.5 -101.5h-71zM293 514q0 -281 102 -389q68 -68 160 -68q104 0 174 96t70 255q0 281 -103 387q-65 69 -157 69q-107 0 -176.5 -94.5t-69.5 -255.5z" />
<glyph unicode="&#xf6;" horiz-adv-x="1093" d="M68 457q0 136 65.5 250t180.5 180.5t253 66.5q206 0 332.5 -135.5t126.5 -335.5q0 -214 -143.5 -364t-356.5 -150q-139 0 -244.5 66t-159.5 176t-54 246zM205 1241q0 57 34.5 97t92.5 40q59 0 93 -40t34 -97q0 -56 -34 -95.5t-93 -39.5q-58 0 -92.5 40t-34.5 95zM293 514 q0 -281 102 -389q68 -68 160 -68q104 0 174 96t70 255q0 281 -103 387q-65 69 -157 69q-107 0 -176.5 -94.5t-69.5 -255.5zM631 1241q0 57 34.5 97t92.5 40t92.5 -40t34.5 -97q0 -55 -34.5 -95t-92.5 -40t-92.5 40t-34.5 95z" />
<glyph unicode="&#xf7;" horiz-adv-x="983" d="M76 424l6 113h817l6 -113h-829zM385 190q0 44 30.5 76.5t76.5 32.5t77 -32.5t31 -76.5t-31 -76t-77 -32t-76.5 32t-30.5 76zM385 770q0 44 30.5 76.5t76.5 32.5t77 -32.5t31 -76.5t-31 -76t-77 -32t-76.5 32t-30.5 76z" />
<glyph unicode="&#xf8;" horiz-adv-x="1089" d="M72 459q0 208 136.5 351.5t340.5 143.5q108 0 207 -47l184 318l82 -13l-201 -344q91 -66 142 -172.5t51 -232.5q0 -137 -61 -250t-170.5 -178.5t-243.5 -65.5q-114 0 -209 45l-160 -278l-82 12l176 305q-91 68 -141.5 174t-50.5 232zM279 520q0 -190 73 -311l332 575 q-65 74 -174 74q-104 0 -167.5 -89.5t-63.5 -248.5zM399 135q72 -72 174 -72q101 0 166.5 90.5t65.5 247.5q0 185 -72 310z" />
<glyph unicode="&#xf9;" horiz-adv-x="1114" d="M18 924h353l-13 -537q-3 -144 42.5 -200t140.5 -56q54 0 108.5 22t95.5 52v600q0 16 -15 24.5t-62 12.5l-70 6l-8 76h358v-764q0 -51 29 -60l121 -37l-6 -55l-347 -39v150h-10q-189 -150 -334 -150q-102 0 -170 68q-77 77 -77 233l4 533q0 5 -0.5 9t-1.5 7t-3.5 5t-4.5 4 t-6.5 3t-8.5 2t-11.5 2t-13.5 2t-17.5 2.5t-20.5 2.5l-45 6zM203 1427h231l193 -376h-70z" />
<glyph unicode="&#xfa;" horiz-adv-x="1114" d="M18 924h353l-13 -537q-3 -144 42.5 -200t140.5 -56q54 0 108.5 22t95.5 52v600q0 16 -15 24.5t-62 12.5l-70 6l-8 76h358v-764q0 -51 29 -60l121 -37l-6 -55l-347 -39v150h-10q-189 -150 -334 -150q-102 0 -170 68q-77 77 -77 233l4 533q0 5 -0.5 9t-1.5 7t-3.5 5t-4.5 4 t-6.5 3t-8.5 2t-11.5 2t-13.5 2t-17.5 2.5t-20.5 2.5l-45 6zM440 1051l189 376h235l-354 -376h-70z" />
<glyph unicode="&#xfb;" horiz-adv-x="1114" d="M18 924h353l-13 -537q-3 -144 42.5 -200t140.5 -56q54 0 108.5 22t95.5 52v600q0 16 -15 24.5t-62 12.5l-70 6l-8 76h358v-764q0 -51 29 -60l121 -37l-6 -55l-347 -39v150h-10q-189 -150 -334 -150q-102 0 -170 68q-77 77 -77 233l4 533q0 5 -0.5 9t-1.5 7t-3.5 5t-4.5 4 t-6.5 3t-8.5 2t-11.5 2t-13.5 2t-17.5 2.5t-20.5 2.5l-45 6zM258 1051l227 393h99l227 -393h-66l-208 217h-5l-208 -217h-66z" />
<glyph unicode="&#xfc;" horiz-adv-x="1114" d="M18 924h353l-13 -537q-3 -144 42.5 -200t140.5 -56q54 0 108.5 22t95.5 52v600q0 16 -15 24.5t-62 12.5l-70 6l-8 76h358v-764q0 -51 29 -60l121 -37l-6 -55l-347 -39v150h-10q-189 -150 -334 -150q-102 0 -170 68q-77 77 -77 233l4 533q0 5 -0.5 9t-1.5 7t-3.5 5t-4.5 4 t-6.5 3t-8.5 2t-11.5 2t-13.5 2t-17.5 2.5t-20.5 2.5l-45 6zM190 1241q0 57 34.5 97t92.5 40q59 0 93 -40t34 -97q0 -56 -34 -95.5t-93 -39.5q-58 0 -92.5 40t-34.5 95zM616 1241q0 57 34.5 97t92.5 40t92.5 -40t34.5 -97q0 -55 -34.5 -95t-92.5 -40t-92.5 40t-34.5 95z" />
<glyph unicode="&#xfd;" horiz-adv-x="964" d="M-39 924h479l-6 -76l-55 -14q-71 -7 -39 -76l229 -527l168 476q22 63 13 90t-58 34l-61 17l-6 76h389l-6 -76l-58 -12q-41 -9 -64.5 -37t-51.5 -101l-242 -637l-111 -329q-46 -139 -101.5 -203t-143.5 -64q-66 0 -107 33.5t-41 87.5q0 49 28 82t81 33q82 0 127 -76 q42 21 84 142l69 198v8l-364 783q-17 37 -36 51.5t-63 21.5l-45 17zM365 1051l188 376h235l-354 -376h-69z" />
<glyph unicode="&#xfe;" horiz-adv-x="1091" d="M2 1272l6 55l346 100v-641h11q61 71 136.5 112.5t155.5 41.5q165 0 267 -126.5t102 -315.5q0 -103 -33.5 -197.5t-94.5 -168.5t-155 -118.5t-206 -44.5q-88 0 -179 27h-4v-381q0 -32 78 -37l76 -6l6 -76h-498l7 76l57 6q39 5 54.5 13t15.5 26v1542q0 47 -29 60zM354 182 q109 -125 221 -125q94 0 162 99.5t68 259.5q0 167 -69 265.5t-179 98.5q-61 0 -113.5 -27.5t-89.5 -70.5v-500z" />
<glyph unicode="&#xff;" horiz-adv-x="964" d="M-39 924h479l-6 -76l-55 -14q-71 -7 -39 -76l229 -527l168 476q22 63 13 90t-58 34l-61 17l-6 76h389l-6 -76l-58 -12q-41 -9 -64.5 -37t-51.5 -101l-242 -637l-111 -329q-46 -139 -101.5 -203t-143.5 -64q-66 0 -107 33.5t-41 87.5q0 49 28 82t81 33q82 0 127 -76 q42 21 84 142l69 198v8l-364 783q-17 37 -36 51.5t-63 21.5l-45 17zM162 1241q0 57 34.5 97t92.5 40q59 0 93 -40t34 -97q0 -56 -34 -95.5t-93 -39.5q-58 0 -92.5 40t-34.5 95zM588 1241q0 57 34.5 97t92.5 40t92.5 -40t34.5 -97q0 -55 -34.5 -95t-92.5 -40t-92.5 40 t-34.5 95z" />
<glyph unicode="&#x152;" horiz-adv-x="1988" d="M92 612q0 109 31 208t94.5 184t153.5 147t216 97t275 34l1000 -2v-399h-111l-47 186q-9 33 -16 51t-27.5 34.5t-42.5 23t-74 11.5t-107 6t-157 1h-94v-502h67q114 0 150.5 9t48.5 44l47 138h86l-43 -463h-84l-18 129q-3 25 -15.5 35.5t-51.5 16t-124 5.5h-63v-520h84 q106 0 168 1t116 6.5t79.5 12.5t47.5 23t30.5 34t17.5 50l49 172h120l-40 -385h-1018q-220 0 -390.5 78t-264 217.5t-93.5 316.5zM326 664q0 -264 150.5 -420t430.5 -156h64v1081l-148 31q-117 0 -212 -41.5t-156.5 -114t-95 -170t-33.5 -210.5z" />
<glyph unicode="&#x153;" horiz-adv-x="1697" d="M68 459q5 209 147 352t352 143q113 0 204.5 -46t150.5 -126q66 82 161 127t203 45q149 0 241.5 -85t92.5 -228q0 -61 -12 -113l-600 9v-23q0 -170 87 -276.5t220 -106.5q152 0 254 119l43 -25q-54 -123 -156 -189.5t-237 -66.5q-100 0 -185 43.5t-141 120.5 q-67 -78 -161.5 -121t-205.5 -43q-140 0 -246.5 66.5t-160.5 177.5t-51 246zM293 520q-3 -284 102 -395q63 -68 158 -68q105 0 174 93t70 251q2 128 -25 233t-78 161q-69 69 -155 69q-108 0 -176.5 -91.5t-69.5 -252.5zM1012 604q25 0 66.5 0.5t128.5 0.5t143.5 0.5 t54.5 0.5q6 123 -38 193.5t-122 70.5q-84 0 -151.5 -70.5t-81.5 -195.5z" />
<glyph unicode="&#x178;" horiz-adv-x="1236" d="M-20 1280h552l-6 -78l-75 -12q-31 -5 -39 -26t8 -67.5t61 -123.5l193 -332h12l205 363q53 95 50.5 136t-60.5 52l-54 10l-6 78h432l-6 -78l-35 -10q-59 -17 -101 -52t-99 -132l-269 -455v-432q0 -15 15.5 -23t58.5 -12l113 -10l6 -76h-617l7 76l114 10q72 5 72 37v403 l-360 584q-39 60 -103 76l-63 16zM315 1583q0 57 34.5 97t92.5 40q59 0 93 -40t34 -97q0 -56 -34 -95.5t-93 -39.5q-58 0 -92.5 40t-34.5 95zM741 1583q0 57 34.5 97t92.5 40t92.5 -40t34.5 -97q0 -55 -34.5 -95t-92.5 -40t-92.5 40t-34.5 95z" />
<glyph unicode="&#x2c6;" d="M133 1051l227 393h99l227 -393h-65l-209 217h-4l-209 -217h-66z" />
<glyph unicode="&#x2dc;" d="M63 1085q19 134 69.5 199.5t137.5 65.5q43 0 91.5 -23t84 -51t74.5 -51t64 -23q31 0 52 28t50 103h70q-19 -135 -69 -199.5t-138 -64.5q-43 0 -92 22.5t-85 50t-75 50t-64 22.5q-31 0 -50.5 -27.5t-47.5 -101.5h-72z" />
<glyph unicode="&#x2000;" horiz-adv-x="893" />
<glyph unicode="&#x2001;" horiz-adv-x="1786" />
<glyph unicode="&#x2002;" horiz-adv-x="893" />
<glyph unicode="&#x2003;" horiz-adv-x="1786" />
<glyph unicode="&#x2004;" horiz-adv-x="595" />
<glyph unicode="&#x2005;" horiz-adv-x="446" />
<glyph unicode="&#x2006;" horiz-adv-x="297" />
<glyph unicode="&#x2007;" horiz-adv-x="297" />
<glyph unicode="&#x2008;" horiz-adv-x="223" />
<glyph unicode="&#x2009;" horiz-adv-x="357" />
<glyph unicode="&#x200a;" horiz-adv-x="99" />
<glyph unicode="&#x2010;" horiz-adv-x="677" d="M68 432l6 117h534l6 -117h-546z" />
<glyph unicode="&#x2011;" horiz-adv-x="677" d="M68 432l6 117h534l6 -117h-546z" />
<glyph unicode="&#x2012;" horiz-adv-x="677" d="M68 432l6 117h534l6 -117h-546z" />
<glyph unicode="&#x2013;" horiz-adv-x="962" d="M59 432l7 117h835l6 -117h-848z" />
<glyph unicode="&#x2014;" horiz-adv-x="1925" d="M59 432l7 117h1798l6 -117h-1811z" />
<glyph unicode="&#x2018;" horiz-adv-x="485" d="M61 948q0 62 25 122t71.5 113t96.5 96.5t115 88.5l55 -41q-182 -131 -182 -268q0 -30 12.5 -57t32 -45t41.5 -33.5t41.5 -24t32 -14.5t12.5 -8q0 -56 -42 -96t-110 -40q-77 0 -139 60.5t-62 146.5z" />
<glyph unicode="&#x2019;" horiz-adv-x="485" d="M68 764q77 53 129.5 123.5t52.5 144.5q0 36 -17.5 67t-43 50t-51 33t-43 21.5t-17.5 8.5q0 57 41.5 97.5t109.5 40.5q77 0 139 -60.5t62 -146.5q0 -63 -25 -123t-71 -113.5t-96 -97t-115 -88.5z" />
<glyph unicode="&#x201a;" horiz-adv-x="485" d="M68 -328q77 53 129.5 124t52.5 145q0 36 -17.5 67t-43 50t-51 33t-43 21.5t-17.5 8.5q0 56 41.5 96.5t109.5 40.5q77 0 139 -60.5t62 -146.5q0 -63 -25 -123t-71 -113.5t-96 -97t-115 -88.5z" />
<glyph unicode="&#x201c;" horiz-adv-x="913" d="M61 948q0 62 25 122t71.5 113t96.5 96.5t115 88.5l55 -41q-182 -131 -182 -268q0 -30 12.5 -57t32 -45t41.5 -33.5t41.5 -24t32 -14.5t12.5 -8q0 -56 -42 -96t-110 -40q-77 0 -139 60.5t-62 146.5zM512 948q0 62 25 122t71 113t95.5 96.5t113.5 88.5l57 -41 q-79 -56 -130.5 -125t-51.5 -143q0 -30 12.5 -57t32 -45t41.5 -33.5t41.5 -24t32 -14.5t12.5 -8q0 -56 -42 -96t-109 -40q-78 0 -139.5 60t-61.5 147z" />
<glyph unicode="&#x201d;" horiz-adv-x="913" d="M68 764q77 53 129.5 123.5t52.5 144.5q0 36 -17.5 67t-43 50t-51 33t-43 21.5t-17.5 8.5q0 57 41.5 97.5t109.5 40.5q77 0 139 -60.5t62 -146.5q0 -63 -25 -123t-71 -113.5t-96 -97t-115 -88.5zM518 764q78 52 130 123t52 145q0 36 -17.5 67t-43 50t-51 33t-43 21.5 t-17.5 8.5q0 56 42.5 97t109.5 41q78 0 139.5 -60t61.5 -147q0 -62 -25 -122.5t-71.5 -114t-96 -96.5t-113.5 -89z" />
<glyph unicode="&#x201e;" horiz-adv-x="909" d="M68 -328q77 53 129.5 124t52.5 145q0 36 -17.5 67t-43 50t-51 33t-43 21.5t-17.5 8.5q0 56 41.5 96.5t109.5 40.5q77 0 139 -60.5t62 -146.5q0 -63 -25 -123t-71 -113.5t-96 -97t-115 -88.5zM518 -328q78 52 130 123.5t52 145.5q0 36 -17.5 67t-43 50t-51 33t-43 21.5 t-17.5 8.5q0 56 42.5 96.5t109.5 40.5q78 0 139.5 -60t61.5 -147q0 -62 -25 -122.5t-71.5 -114t-96 -96.5t-113.5 -89z" />
<glyph unicode="&#x2022;" horiz-adv-x="931" d="M72 475q0 44 42.5 146t73.5 133t133.5 72.5t145.5 41.5q44 0 145.5 -41.5t132.5 -72.5t73 -133t42 -146q0 -45 -41.5 -146.5t-73.5 -133.5q-31 -31 -133.5 -73t-146.5 -42q-43 0 -145.5 42.5t-131.5 72.5q-31 33 -73.5 134.5t-42.5 145.5z" />
<glyph unicode="&#x2026;" horiz-adv-x="1425" d="M92 117q0 61 43 103t107 42q63 0 105 -42.5t42 -102.5t-42 -104t-105 -44t-106.5 44t-43.5 104zM567 117q0 61 43 103t107 42q63 0 105 -42.5t42 -102.5t-42 -104t-105 -44t-106.5 44t-43.5 104zM1042 117q0 61 43 103t107 42q63 0 105 -42.5t42 -102.5t-42 -104 t-105 -44t-106.5 44t-43.5 104z" />
<glyph unicode="&#x202f;" horiz-adv-x="357" />
<glyph unicode="&#x2039;" horiz-adv-x="634" d="M72 399v107l463 315l22 -43l-297 -325l297 -326l-22 -43z" />
<glyph unicode="&#x203a;" horiz-adv-x="634" d="M90 127l297 326l-297 325l23 43l462 -315v-107l-462 -315z" />
<glyph unicode="&#x205f;" horiz-adv-x="446" />
<glyph unicode="&#x20ac;" horiz-adv-x="1079" d="M45 440l6 90h117q-2 23 -2 72q0 28 4 90h-125l6 90h131q45 226 193 366t350 140q130 0 217.5 -50.5t87.5 -123.5q0 -47 -30.5 -77.5t-77.5 -30.5q-56 0 -93 47.5t-45 111.5q-45 29 -100 29q-126 0 -207.5 -112t-103.5 -300h409l6 -90h-423v-43q0 -63 6 -119h411l6 -90 h-401q36 -157 123 -239t213 -82q151 0 281 137l38 -25q-55 -121 -154 -191.5t-235 -70.5q-183 0 -308.5 127t-164.5 344h-135z" />
<glyph unicode="&#x2122;" horiz-adv-x="1898" d="M57 993l15 287h694v-287h-74l-10 39q-30 117 -65.5 152t-133.5 35h-2v-603q0 -9 6.5 -18t18.5 -10l86 -13l2 -57h-377l4 57l84 13q27 3 27 28v603h-2q-82 0 -120 -38.5t-73 -148.5l-12 -39h-68zM852 518l4 57l62 11q16 2 24 15t14 58.5t9 137.5l12 383q0 25 -25 30 l-71 13l-4 57h323l125 -563h21l172 563h323l-4 -57l-68 -13q-28 -5 -28 -30l8 -465q1 -73 10.5 -96.5t30.5 -28.5l61 -15l4 -57h-352l2 57l64 15q17 4 21.5 26.5t2.5 98.5l-8 475h-20l-209 -647h-123l-162 653h-20l-13 -399q-5 -136 -1.5 -170t24.5 -41l65 -11l2 -57h-276z " />
<glyph unicode="&#x25fc;" horiz-adv-x="921" d="M0 0v922h922v-922h-922z" />
<glyph unicode="&#xfb01;" horiz-adv-x="1185" d="M18 809l13 109h143l2 45q9 214 147 339t355 125q94 0 167 -44t73 -121q0 -51 -33 -83t-82 -32q-58 0 -94 34t-56 111l-2 8l-123 25q-141 -87 -141 -346v-61h361l249 32v-831q0 -18 16.5 -25t61.5 -12l53 -6l7 -76h-469l6 76l53 6q70 7 70 39v684h-408v-686 q0 -17 16 -25.5t62 -11.5l98 -6l6 -76h-514l6 76l54 6q38 5 53.5 13t15.5 26v676z" />
<glyph unicode="&#xfb02;" horiz-adv-x="1183" d="M18 809l13 109h143l2 45q9 214 147 339t355 125q107 0 174 -49l145 49v-1308q0 -16 15 -23.5t63 -13.5l51 -6l7 -76h-467l6 76l53 6q39 5 54.5 13t15.5 26v684h-408v-686q0 -17 16 -25.5t62 -11.5l98 -6l6 -76h-514l6 76l54 6q38 5 53.5 13t15.5 26v676zM387 918h408v229 q-55 2 -89 36.5t-53 108.5l-2 8l-123 25q-141 -87 -141 -346v-61z" />
<glyph unicode="&#xfb03;" horiz-adv-x="1800" d="M18 809l13 109h143l2 24q17 206 148 335.5t307 129.5q86 0 147.5 -41.5t61.5 -103.5q0 -53 -32 -82t-79 -29q-51 0 -89 38t-58 114l-2 8l-60 4q-133 -81 -133 -342v-55h401l5 45q20 217 152.5 340.5t346.5 123.5q94 0 167 -44t73 -121q0 -51 -33 -83t-82 -32 q-58 0 -93.5 34t-55.5 111l-2 8l-123 25q-142 -88 -142 -346v-61h361l250 32v-831q0 -18 16.5 -25t61.5 -12l53 -6l6 -76h-469l6 76l53 6q37 5 53.5 13t16.5 26v684h-408v-686q0 -17 16 -25.5t62 -11.5l99 -6l6 -76h-514l6 76l53 6q70 8 70 39v686h-412v-668q0 -37 55 -45 l129 -18l7 -76h-523l6 76l70 18q53 5 53 45v658z" />
<glyph unicode="&#xfb04;" horiz-adv-x="1798" d="M18 809l13 109h143l2 24q17 206 148 335.5t307 129.5q86 0 147.5 -41.5t61.5 -103.5q0 -53 -32 -82t-79 -29q-51 0 -89 38t-58 114l-2 8l-60 4q-133 -81 -133 -342v-55h401l5 45q20 217 152.5 340.5t346.5 123.5q107 0 174 -49l146 49v-1308q0 -16 15 -23.5t63 -13.5 l51 -6l6 -76h-467l6 76l53 6q39 5 54.5 13t15.5 26v684h-408v-686q0 -17 16 -25.5t62 -11.5l99 -6l6 -76h-514l6 76l53 6q70 8 70 39v686h-412v-668q0 -37 55 -45l129 -18l7 -76h-523l6 76l70 18q53 5 53 45v658zM1001 918h408v229q-54 2 -88 36.5t-53 108.5l-2 8l-123 25 q-142 -88 -142 -346v-61z" />
</font>
</defs>
</svg>
