<?xml version="1.0" standalone="no"?>
<!DOCTYPE svg PUBLIC "-//W3C//DTD SVG 1.1//EN" "http://www.w3.org/Graphics/SVG/1.1/DTD/svg11.dtd" >
<svg xmlns="http://www.w3.org/2000/svg">
<metadata></metadata>
<defs>
<font id="freight_text_probook_italic" horiz-adv-x="966" >
<font-face units-per-em="2048" ascent="1638" descent="-410" />
<missing-glyph horiz-adv-x="466" />
<glyph horiz-adv-x="0" />
<glyph horiz-adv-x="682" />
<glyph unicode=" "  horiz-adv-x="466" />
<glyph unicode="&#x09;" horiz-adv-x="466" />
<glyph unicode="&#xa0;" horiz-adv-x="466" />
<glyph unicode="!" horiz-adv-x="575" d="M123 86q0 46 34 79.5t85 33.5q50 0 82 -33.5t32 -79.5q0 -47 -32 -82t-82 -35q-51 0 -86 35t-33 82zM254 406l33 831q3 74 78 74h30q56 0 75 -21.5t11 -60.5l-184 -826q-3 -12 -23 -10.5t-20 13.5z" />
<glyph unicode="&#x22;" horiz-adv-x="727" d="M80 825l233 500h2l152 -53l-320 -447h-67zM399 825l236 500h2l151 -53l-319 -447h-70z" />
<glyph unicode="#" horiz-adv-x="1148" d="M4 371v71h283l104 389h-264v72h283l108 389h74l-107 -389h359l104 389h74l-104 -389h266v-72h-287l-104 -389h268v-71h-287l-102 -383h-74l102 383h-358l-102 -383h-74l102 383h-264zM360 442h359l104 389h-356z" />
<glyph unicode="$" horiz-adv-x="1019" d="M41 25l20 362h80l52 -283q58 -30 126 -41l146 537q-70 39 -117.5 72.5t-92 79t-66 101.5t-21.5 124q0 101 65.5 178.5t163 115.5t205.5 38q37 0 53 -2l58 204h73q-55 -206 -57 -206q75 -9 141 -25l109 27l-53 -394h-84l-21 256q-45 24 -116 41l-132 -481q45 -26 70 -41 t63.5 -41.5t61 -46.5t49.5 -50.5t41.5 -59.5t24.5 -66t10 -78q0 -115 -66 -202t-173.5 -131t-239.5 -44h-45l-84 -309h-74l84 313q-125 11 -254 52zM322 1034q0 -85 46.5 -145t141.5 -121q8 29 21 75.5t40 146t45 165.5t17 66q-36 4 -62 4q-62 0 -117 -20t-93 -65t-39 -106z M393 55q16 -2 51 -2q131 0 211.5 61.5t81.5 172.5q0 86 -52 147t-157 127z" />
<glyph unicode="%" horiz-adv-x="1527" d="M92 -31l1294 1340h117l-1294 -1340h-117zM113 946q0 156 109.5 267.5t262.5 111.5q138 0 231 -82.5t93 -218.5q0 -159 -109.5 -271t-267.5 -112q-135 0 -227 84.5t-92 220.5zM203 950q0 -102 68.5 -166.5t168.5 -64.5q116 0 195.5 83.5t79.5 201.5q0 104 -67 171.5 t-171 67.5q-115 0 -194.5 -88t-79.5 -205zM801 254q0 159 108 271t265 112q136 0 227.5 -82.5t91.5 -218.5q0 -158 -110 -270.5t-267 -112.5q-139 0 -227 82t-88 219zM891 262q0 -103 66.5 -167t166.5 -64q116 0 197.5 87.5t81.5 205.5q0 100 -69 165.5t-169 65.5 q-115 0 -194.5 -88t-79.5 -205z" />
<glyph unicode="&#x26;" horiz-adv-x="1265" d="M12 268q0 85 31.5 156t85.5 119t118 80t138 49v2q-69 74 -105 141.5t-36 151.5q0 147 112 244.5t267 97.5q135 0 227 -74.5t92 -190.5q0 -126 -95.5 -212.5t-289.5 -139.5v-2l272 -297h2l252 236v4q-43 9 -68.5 39t-25.5 65q0 42 31.5 69.5t79.5 27.5q52 0 84.5 -37 t32.5 -84q0 -135 -228 -285l-119 -78l306 -332l-166 -49l-252 289h-2q-122 -146 -229.5 -218.5t-237.5 -72.5q-118 0 -197.5 88t-79.5 213zM162 307q0 -95 52 -155t124 -60q75 0 166.5 51t214.5 156l-299 338q-258 -134 -258 -330zM393 1010q0 -87 29.5 -144.5t95.5 -134.5 q140 67 207.5 136.5t67.5 164.5q0 90 -49.5 147.5t-135.5 57.5q-96 0 -155.5 -65.5t-59.5 -161.5z" />
<glyph unicode="'" horiz-adv-x="405" d="M78 825l235 500h2l152 -53l-320 -447h-69z" />
<glyph unicode="(" horiz-adv-x="808" d="M190 428q0 143 35.5 278.5t92 238.5t130 190.5t145 145t140.5 91.5q49 -65 49 -69q-81 -43 -163.5 -122.5t-157 -189t-121.5 -258t-47 -305.5q0 -127 31.5 -249t81.5 -218t115.5 -178.5t131 -138t129.5 -88.5l-49 -72q-69 34 -140.5 91.5t-145 145t-130 190.5t-92 238.5 t-35.5 278.5z" />
<glyph unicode=")" horiz-adv-x="808" d="M27 -446q64 34 129.5 90t131 138.5t115.5 178.5t81.5 218t31.5 249q0 157 -47 305.5t-121.5 258t-157 189t-163.5 122.5l51 69q69 -35 140 -92t143.5 -144.5t129 -190.5t92 -238.5t35.5 -278.5t-35.5 -278.5t-92 -238.5t-129 -190.5t-143.5 -144.5t-140 -92 q-51 66 -51 70z" />
<glyph unicode="*" horiz-adv-x="710" d="M129 793l70 116l178 49l2 35l-174 54l-64 110l27 37l129 -25l100 -155l35 10l6 190l86 93l45 -15l11 -127l-125 -151l20 -27l184 62l111 -56l-2 -45l-115 -55l-180 63l-20 -26l108 -152l-22 -127l-43 -10l-82 94l12 189l-31 8l-112 -150l-127 -26z" />
<glyph unicode="+" horiz-adv-x="983" d="M66 430l6 100h368v379h105v-379h366l7 -100h-373v-381h-105v381h-374z" />
<glyph unicode="," horiz-adv-x="462" d="M-55 -307q87 52 146 120.5t63 145.5q1 31 -12 59t-32.5 46.5t-39 32t-33.5 20.5t-14 8q2 43 39.5 73.5t91.5 30.5q70 0 120.5 -54t47.5 -132q-7 -195 -334 -387z" />
<glyph unicode="-" horiz-adv-x="671" d="M51 428l6 104h525l6 -104h-537z" />
<glyph unicode="." horiz-adv-x="464" d="M59 96q2 51 37 87t90 36t91 -36.5t34 -86.5q0 -51 -35.5 -89t-89.5 -38q-56 0 -92.5 38t-34.5 89z" />
<glyph unicode="/" horiz-adv-x="571" d="M18 -432l439 1790h92l-438 -1790h-93z" />
<glyph unicode="0" horiz-adv-x="1034" d="M82 410q0 110 34 214t94 185t149 130.5t192 49.5q171 0 280 -118t109 -318q0 -148 -56.5 -280.5t-165.5 -218t-245 -85.5q-171 0 -281 119.5t-110 321.5zM203 410q0 -146 78 -240t198 -94q69 0 127 31t96.5 80.5t65.5 113t39 127.5t12 125q0 144 -77.5 236t-196.5 92 q-86 0 -154.5 -45.5t-108 -117.5t-59.5 -151.5t-20 -156.5z" />
<glyph unicode="1" horiz-adv-x="749" d="M57 0l9 70l161 20q37 5 41 37l99 727l-232 29l15 59l376 35l-114 -850q-4 -32 32 -37l160 -20l4 -70h-551z" />
<glyph unicode="2" horiz-adv-x="917" d="M20 0l5 113q49 36 130 92t126.5 88.5t108 79.5t97 80.5t69.5 74t50 78.5t15 76q0 87 -60.5 135.5t-150.5 48.5q-71 0 -148.5 -36t-138.5 -91l-19 47q73 83 183.5 141t214.5 58q121 0 203.5 -65.5t82.5 -180.5q0 -79 -39 -151t-134 -149.5t-163.5 -123t-214.5 -135.5 q-49 -30 -73 -45l-2 -10h59q121 0 190 2.5t123 8t81.5 19.5t45 32.5t33.5 50.5l49 100h84l-98 -338h-709z" />
<glyph unicode="3" horiz-adv-x="849" d="M-68 -279q0 41 31 71t72 30q56 0 96.5 -44.5t46.5 -101.5q31 -8 68 -8q129 0 226 102t97 234q0 108 -66 176t-181 68q-85 0 -166 -33l-19 49q15 9 58.5 34.5t70 41t70 44.5t71 51t61 53.5t53 59.5t33 62.5t13.5 67.5q0 90 -54.5 140t-143.5 50q-133 0 -295 -125l-21 48 q204 196 410 196q120 0 206.5 -68t86.5 -186q0 -53 -26 -104.5t-63 -91t-92.5 -80t-100 -66t-99.5 -53.5v-4q30 6 71 6q123 0 207 -78t84 -201q0 -77 -33.5 -151t-90.5 -131.5t-128.5 -101.5t-151 -67.5t-155.5 -23.5q-32 0 -71 7t-80 21t-68 42t-27 65z" />
<glyph unicode="4" horiz-adv-x="956" d="M-25 80l2 74l777 841h59l-108 -825h231l-27 -90h-217l-59 -457h-146l60 457h-572zM100 170h459l86 588h-8z" />
<glyph unicode="5" horiz-adv-x="874" d="M-74 -276q1 42 32 72t73 30q58 0 97 -44t44 -104q27 -8 64 -8q128 0 223.5 82t99.5 203q3 77 -36 147.5t-109 126t-146 97.5t-166 77l217 560h521l-25 -154h-469l-108 -289q101 -39 183 -85.5t149.5 -106.5t103.5 -135.5t33 -159.5q-4 -131 -80.5 -234.5t-195.5 -158 t-255 -54.5q-38 0 -79.5 8t-81 23.5t-65 43.5t-24.5 63z" />
<glyph unicode="6" horiz-adv-x="1036" d="M84 449q0 132 55.5 260t152.5 233t222.5 189t273 137t297.5 69l27 -55q-317 -66 -544 -241.5t-330 -434.5l20 -2q72 100 172.5 160.5t194.5 60.5q135 0 226 -98.5t91 -269.5q0 -96 -40.5 -187t-106 -156.5t-149.5 -105t-169 -39.5q-170 0 -281.5 135t-111.5 345zM233 385 q0 -90 28 -168t86 -129t136 -51q123 0 214 118.5t91 286.5q0 131 -68 215t-153 84q-179 0 -313 -217q-21 -94 -21 -139z" />
<glyph unicode="7" horiz-adv-x="915" d="M23 -379l749 1188v10h-283q-112 0 -159.5 -5t-65 -15.5t-33.5 -38.5q-65 -115 -67 -123h-68l86 326h725v-89l-780 -1253h-104z" />
<glyph unicode="8" horiz-adv-x="997" d="M80 313q7 231 317 334v4q-204 120 -198 307q6 153 121 248t282 92q141 -3 239.5 -94t92.5 -227q-8 -221 -277 -318v-4q112 -64 175 -144t59 -189q-4 -116 -64 -198.5t-156.5 -120t-217.5 -34.5q-100 2 -186 44.5t-138.5 122t-48.5 177.5zM231 313q-5 -122 66 -198.5 t199 -79.5q112 -2 179 57t73 170q2 41 -9 78.5t-36 71t-50 59.5t-67 55.5t-69 46.5t-73 45q-205 -123 -213 -305zM344 1020q-2 -53 18 -101t60 -89t84 -73.5t104 -66.5q165 99 174 283q5 108 -51.5 185.5t-163.5 80.5q-99 1 -159.5 -59.5t-65.5 -159.5z" />
<glyph unicode="9" horiz-adv-x="1036" d="M-80 -326q317 66 544 241.5t331 434.5l-21 2q-72 -100 -173 -160.5t-193 -60.5q-136 0 -227 99t-91 270q0 96 40.5 187t105 156t148.5 104.5t169 39.5q170 0 282.5 -135t112.5 -344q0 -164 -86 -321t-225.5 -273.5t-321.5 -195.5t-370 -99zM244 514q0 -132 67 -215.5 t152 -83.5q179 0 313 217q21 94 21 139q0 91 -27.5 168.5t-85.5 129t-137 51.5q-122 0 -212.5 -119t-90.5 -287z" />
<glyph unicode=":" horiz-adv-x="462" d="M59 96q2 51 37 87t90 36t91 -36.5t34 -86.5q0 -51 -35.5 -89t-89.5 -38q-56 0 -92.5 38t-34.5 89zM143 731q0 51 36.5 87t90.5 36q56 0 92.5 -36.5t34.5 -86.5q-2 -51 -37.5 -88t-89.5 -37q-55 0 -91 37t-36 88z" />
<glyph unicode=";" horiz-adv-x="462" d="M-55 -307q87 52 146 120.5t63 145.5q1 31 -12 59t-32.5 46.5t-39 32t-33.5 20.5t-14 8q2 43 39.5 73.5t91.5 30.5q70 0 120.5 -54t47.5 -132q-7 -195 -334 -387zM145 731q0 51 35.5 87t91.5 36q55 0 91 -36.5t34 -86.5q0 -51 -35.5 -88t-89.5 -37q-55 0 -91 37t-36 88z " />
<glyph unicode="&#x3c;" horiz-adv-x="983" d="M59 457v49l820 385l24 -92l-667 -312v-10l667 -313l-24 -92z" />
<glyph unicode="=" horiz-adv-x="983" d="M86 250l6 100h799l6 -100h-811zM86 707h811l-6 -101h-799z" />
<glyph unicode="&#x3e;" horiz-adv-x="983" d="M80 164l668 313v10l-668 312l24 92l820 -385v-49l-820 -385z" />
<glyph unicode="?" horiz-adv-x="727" d="M123 86q0 46 34 79.5t85 33.5t82.5 -33.5t31.5 -79.5q0 -48 -31.5 -82.5t-82.5 -34.5t-85 35t-34 82zM166 590q0 56 21 98t63 71t80 45.5t96 35.5q115 39 149 60q49 33 50 79q0 70 -95.5 124t-232.5 54q-46 0 -96 -8q-11 17 -11 45q0 52 39.5 82.5t110.5 30.5 q155 0 262 -100t107 -226q1 -53 -14 -96t-36.5 -70.5t-57.5 -51t-67 -36t-75 -27.5q-104 -36 -136 -58q-63 -41 -63 -110q0 -68 82 -161l-63 4q-113 113 -113 215z" />
<glyph unicode="@" horiz-adv-x="1708" d="M94 537q7 159 75.5 303.5t177.5 248t256.5 163t307.5 55.5q208 -5 377.5 -95.5t266.5 -253t87 -364.5q-10 -225 -141 -371.5t-311 -146.5q-57 0 -99.5 11t-63 28.5t-33.5 38.5t-11.5 41.5t2.5 37.5l72 314h-27q-229 -441 -371 -441q-81 0 -143.5 63t-62.5 136 q0 122 72 292t165 263q94 94 201 94q72 0 126.5 -44.5t78.5 -116.5h22l51 137h97l-117 -334l-45 -365q-5 -37 22 -60.5t88 -23.5q143 0 240.5 128.5t106.5 318.5q9 181 -77.5 327.5t-238.5 228t-338 85.5q-142 4 -274.5 -51t-230 -149.5t-158.5 -224.5t-68 -271 q-7 -154 42 -289.5t138 -230t213 -149t265 -54.5q120 0 251 41l21 -68q-140 -47 -279 -47q-125 0 -240 38t-206.5 109t-158.5 167.5t-100.5 220.5t-27.5 260zM592 334q0 -65 36 -99t77 -34t133.5 131.5t187.5 304.5q9 18 19 47t10 35q-27 50 -85.5 98.5t-119.5 48.5 q-56 0 -88 -32q-58 -56 -114 -224t-56 -276z" />
<glyph unicode="A" horiz-adv-x="1181" d="M-66 0l7 70l96 20q33 10 51.5 30t40.5 68l451 1012v60l190 47l211 -1166q5 -25 14.5 -36t36.5 -15l117 -20l6 -70h-512l6 70l121 16q34 4 34 38q0 7 -1 15l-53 324h-402l-98 -234q-24 -57 -24 -91q0 -42 36 -48l111 -20l6 -70h-445zM383 547h352l-94 583h-10z" />
<glyph unicode="B" horiz-adv-x="1169" d="M27 0l6 70l127 20q38 6 41 37l137 1026q4 32 -33 37l-119 20l-6 70h498q211 0 319.5 -80.5t108.5 -214.5q0 -121 -92.5 -207.5t-237.5 -118.5l6 -8q139 -27 219 -107t80 -184q0 -133 -96 -229q-67 -65 -179.5 -98t-246.5 -33h-532zM369 102q6 0 76.5 -13t76.5 -13h76 q127 0 212 74t85 196q0 126 -94 200.5t-236 74.5h-129zM446 694h138q152 0 249 67.5t97 190.5q0 124 -88 188t-236 64h-90z" />
<glyph unicode="C" horiz-adv-x="1255" d="M102 532q0 159 59.5 307.5t168.5 256.5q213 213 501 213q148 0 277 -39l145 33l-55 -416h-84l-20 272q-126 70 -269 70q-148 0 -272 -92t-197 -254.5t-73 -358.5q0 -240 137 -377q98 -98 264 -98q122 0 246 62l121 274h96l-98 -387l-95 20q-152 -49 -280 -49 q-274 0 -423 150.5t-149 412.5z" />
<glyph unicode="D" horiz-adv-x="1331" d="M27 0l6 70l127 20q38 6 41 37l137 1026q4 32 -33 37l-119 20l-6 70h490q277 0 441.5 -153t164.5 -410q0 -295 -201 -496q-104 -104 -261.5 -162.5t-342.5 -58.5h-444zM369 104l149 -28q122 5 226.5 49.5t182 124.5t121.5 201.5t44 271.5q0 223 -120.5 352t-342.5 129 h-115z" />
<glyph unicode="E" horiz-adv-x="1175" d="M27 0l6 70l127 20q38 6 41 37l137 1026q4 32 -31 37l-119 20l-6 70h983l-49 -371h-88l-18 207q-3 33 -11.5 48t-56.5 25.5t-122 12.5t-234 2h-70l-70 -514h70q131 0 164.5 6t46.5 33l66 137h69l-100 -426h-68l8 131q1 18 -10 26.5t-54.5 13.5t-135.5 5h-66l-71 -540h47 q116 0 185.5 1t127 5t84 8.5t48 16.5t29.5 23.5t17 33.5l82 198h98l-86 -362h-970z" />
<glyph unicode="F" horiz-adv-x="1128" d="M27 0l6 70l127 20q38 6 41 37l137 1026q4 32 -31 37l-119 20l-6 70h967l-49 -371h-90l-19 207q-3 34 -11.5 48.5t-57 25.5t-120.5 12.5t-235 1.5h-51l-72 -526h82q132 0 166 6t47 33l66 137h69l-100 -426h-67l8 131q1 18 -11 26.5t-56 13.5t-136 5h-78l-63 -477 q-3 -32 30 -37l134 -20l6 -70h-514z" />
<glyph unicode="G" horiz-adv-x="1341" d="M102 532q0 159 59.5 307.5t168.5 256.5q213 213 501 213q142 0 271 -39l145 33l-55 -416h-84l-21 272q-126 70 -262 70q-109 0 -208.5 -54t-173 -147t-117 -224.5t-43.5 -279.5q0 -237 137 -374q45 -46 116 -73.5t150 -27.5q117 0 219 45l47 342q3 19 -3 27.5t-29 11.5 l-134 21l-6 67h502l-6 -67l-117 -21q-40 -6 -43 -39l-45 -311l115 -21l4 -55q-286 -80 -518 -80q-272 0 -421 152.5t-149 410.5z" />
<glyph unicode="H" horiz-adv-x="1468" d="M31 0l6 70l125 20q38 6 41 37l137 1026q4 32 -31 37l-119 20l-6 70h500l-6 -70l-127 -20q-34 -5 -41 -37l-59 -455h620l62 455q3 19 -3 26.5t-28 10.5l-121 20l-6 70h502l-9 -70l-125 -20q-37 -6 -40 -37l-138 -1026q-3 -32 31 -37l119 -20l6 -70h-500l6 70l127 20 q21 3 29.5 10.5t11.5 26.5l66 487h-623l-65 -487q-3 -32 33 -37l118 -20l6 -70h-499z" />
<glyph unicode="I" horiz-adv-x="716" d="M37 0l6 70l141 20q38 6 41 37l137 1026q4 32 -30 37l-135 20l-7 70h529l-6 -70l-142 -20q-34 -6 -41 -37l-135 -1026q-3 -32 31 -37l135 -20l6 -70h-530z" />
<glyph unicode="J" horiz-adv-x="798" d="M-51 102q2 40 29 65.5t69 25.5q119 -3 139 -156h2q58 11 94.5 48t66 128.5t50.5 253.5l93 686q4 32 -31 37l-154 20l-6 70h547l-6 -70l-140 -20q-37 -6 -40 -37l-89 -666q-35 -259 -143 -388.5t-274 -129.5q-91 0 -149.5 37t-57.5 96z" />
<glyph unicode="K" horiz-adv-x="1294" d="M27 0l6 70l127 20q38 6 41 37l137 1026q4 32 -31 37l-119 20l-6 70h500l-8 -70l-125 -20q-34 -5 -41 -37l-72 -543l461 418q35 31 51.5 46t35.5 34.5t26.5 31.5t7.5 21q0 13 -9 21t-32 16l-84 14l-6 70h485l-6 -68l-61 -8q-87 -11 -193 -106l-401 -359l344 -594 q15 -25 29.5 -38.5t25 -17t31.5 -7.5l73 -14l7 -70h-441l6 70l82 18q26 6 6 39l-284 516l-172 -147l-47 -369q-3 -32 30 -37l121 -20l6 -70h-501z" />
<glyph unicode="L" horiz-adv-x="1124" d="M27 0l6 70l127 20q34 5 41 37l135 1026q7 31 -31 37l-123 20l-6 70h522l-6 -70l-145 -20q-34 -5 -41 -37l-141 -1077h41q125 0 195 2t122 6t75 15.5t35.5 25t22.5 39.5l96 244h97l-99 -408h-923z" />
<glyph unicode="M" horiz-adv-x="1617" d="M-23 0l7 70l139 22q18 2 28.5 16t27 77t38.5 192l129 780q6 32 -27 35l-139 18l-6 70h418l166 -1020h10l496 1020h393l-6 -70l-142 -20q-38 -6 -41 -37l-77 -782q-12 -115 -13 -177v-15q0 -49 6 -65q7 -18 23 -22l123 -22l6 -70h-522l6 70l135 22q25 5 38 58t30 221 l80 774h-11l-542 -1104h-119l-187 1118h-10l-129 -782q-17 -104 -24.5 -156t-8 -83t4 -37.5t16.5 -8.5l133 -22l6 -70h-455z" />
<glyph unicode="N" horiz-adv-x="1433" d="M16 0l7 70l124 16q31 4 47 24.5t29 77.5t31 189l90 676q4 30 4 53q0 26 -6 42q-10 28 -45 36l-113 26l-6 70h363l534 -1028h8l88 651q25 176 25 230q0 8 -1 13q-4 42 -48 48l-121 16l-6 70h477l-6 -70l-125 -16q-30 -4 -45 -22t-29 -77.5t-32 -191.5l-123 -919h-103 l-590 1126h-8l-94 -733q-22 -169 -22 -225q0 -10 1 -16q4 -44 48 -50l118 -16l7 -70h-478z" />
<glyph unicode="O" horiz-adv-x="1409" d="M102 567q0 142 46 273.5t131 234.5q93 110 219.5 172t277.5 62q169 0 302 -79.5t205.5 -216t72.5 -304.5q0 -153 -55 -295t-154 -244q-90 -95 -209 -148t-256 -53q-169 0 -302 79t-205.5 215t-72.5 304zM287 547q0 -254 133 -387q109 -109 280 -109q94 0 174.5 44.5 t133.5 115.5t91 161.5t55 182t17 178.5q0 254 -131 385q-108 111 -282 111q-94 0 -174.5 -44.5t-133.5 -115.5t-91 -161.5t-55 -182t-17 -178.5z" />
<glyph unicode="P" horiz-adv-x="1124" d="M27 0l6 70l127 20q38 6 41 37l137 1026q4 32 -31 37l-119 20l-6 70h475q209 0 336 -96t127 -256q0 -95 -43 -173.5t-115 -129t-164.5 -78t-193.5 -27.5q-79 0 -178 15l-55 -408q-3 -32 30 -37l162 -20l6 -70h-542zM436 612q88 -18 162 -18q153 0 246.5 88.5t93.5 245.5 q0 130 -85.5 204t-225.5 74q-99 0 -111 -2z" />
<glyph unicode="Q" horiz-adv-x="1413" d="M102 567q0 142 46 273.5t131 234.5q93 110 219.5 172t277.5 62q169 0 302 -79.5t205.5 -216t72.5 -304.5q0 -151 -55 -292.5t-154 -246.5q-85 -88 -195.5 -141t-232.5 -60q80 -164 212 -225q110 -51 284 -51q34 0 71 2l2 -66q-96 -22 -227 -22q-112 0 -188.5 16.5 t-143 61t-118.5 117.5t-107 192q-185 55 -293.5 207.5t-108.5 365.5zM287 547q0 -254 133 -387q109 -109 280 -109q94 0 174.5 44.5t133.5 115.5t91 161.5t55 182t17 178.5q0 254 -131 385q-108 111 -282 111q-94 0 -174.5 -44.5t-133.5 -115.5t-91 -161.5t-55 -182 t-17 -178.5z" />
<glyph unicode="R" horiz-adv-x="1212" d="M29 0l6 70l125 20q34 5 41 37l135 1026q7 31 -31 37l-121 20l-6 70h529q201 0 309 -85t108 -218q0 -148 -98 -249.5t-268 -145.5l223 -412q19 -36 36 -55t26 -23.5t24 -7.5l78 -14l6 -70h-283l-67 141l-207 422l-164 6l-59 -442q-4 -32 30 -37l134 -20l6 -70h-512z M442 657l176 -26q145 19 231.5 100t86.5 213q0 122 -82 192q-79 68 -221 68h-12l-109 -2z" />
<glyph unicode="S" horiz-adv-x="1011" d="M41 25l20 362h80l52 -283q97 -51 251 -51q131 0 211.5 61.5t81.5 172.5q0 43 -15 81t-36 66t-61 60t-73 52.5t-89 53.5q-76 45 -120.5 76.5t-89.5 77.5t-65 100t-20 123q0 101 65.5 178.5t163 115.5t205.5 38q133 0 268 -29l109 27l-53 -394h-84l-21 256q-109 56 -250 56 q-62 0 -117.5 -20t-93.5 -65t-38 -106v-6q0 -40 13 -76q14 -38 35 -67t60.5 -60.5t74.5 -54t93 -55.5q54 -31 90 -54.5t78.5 -59.5t67.5 -70.5t42 -82.5t17 -102q0 -115 -66 -202t-173.5 -131t-239.5 -44q-199 0 -373 56z" />
<glyph unicode="T" horiz-adv-x="1257" d="M102 887l86 393h1096l-51 -393h-84l-19 215q-3 33 -10.5 49t-38.5 30t-92 18.5t-170 4.5h-14l-141 -1077q-7 -32 30 -37l152 -20l6 -70h-567l8 70l160 20q34 5 41 37l141 1077h-14q-112 0 -166.5 -2t-94 -12.5t-52.5 -26t-25 -47.5l-84 -229h-97z" />
<glyph unicode="U" horiz-adv-x="1458" d="M164 1280h502l-7 -70l-127 -20q-37 -6 -40 -37l-89 -651q-10 -72 -10 -113q0 -160 91 -238.5t251 -78.5q153 0 252.5 84.5t124.5 269.5l64 477q14 108 20 158q3 31 3 55q1 15 -1 28q-4 33 -13.5 40t-33.5 10l-121 16l-6 70h477l-6 -70l-125 -16q-30 -4 -45 -22t-29 -77.5 t-32 -191.5l-68 -495q-30 -217 -169 -328t-351 -111q-204 0 -330.5 99t-126.5 288q0 71 10 136l93 661q4 32 -33 37l-119 20z" />
<glyph unicode="V" horiz-adv-x="1189" d="M70 1280h512l-7 -70l-122 -16q-32 -4 -32 -38q0 -7 1 -15l170 -977h8l418 950q12 24 4 47t-37 29l-108 20l-7 70h447l-6 -70l-99 -20q-33 -10 -51.5 -30t-40.5 -68l-504 -1094h-153l-219 1141q-5 25 -14.5 36t-36.5 15l-117 20z" />
<glyph unicode="W" horiz-adv-x="1757" d="M59 1280h512l-6 -70l-123 -16q-15 -2 -22.5 -10.5t-7.5 -19.5v-23l131 -983l8 -2l364 852l-20 131q-3 23 -14 35t-39 16l-117 20l-6 70h508l-6 -70l-123 -16q-34 -4 -34 -38q0 -7 1 -15l145 -981l7 -2l376 956q11 21 3 45.5t-37 30.5l-109 20l-6 70h446l-6 -70l-98 -20 q-65 -21 -96 -98l-445 -1094h-164l-129 848h-8l-371 -848h-163l-177 1141q-3 24 -13.5 35.5t-37.5 15.5l-116 20z" />
<glyph unicode="X" horiz-adv-x="1273" d="M-39 0l6 70l80 14q42 8 77 31t77 73l385 459l-250 445q-28 50 -46 69t-50 29l-95 20l-4 70h502l-8 -70l-105 -12q-25 -3 -33.5 -16t-2.5 -36.5t26 -62.5l172 -333h10l291 364q24 26 18.5 49.5t-46.5 30.5l-99 16l-6 70h469l-6 -70l-80 -14q-43 -8 -77.5 -30.5 t-75.5 -73.5l-345 -412l277 -492q28 -50 45.5 -69t48.5 -29l94 -20l7 -70h-504l8 70l102 12q41 4 41 36q0 28 -28 79l-201 381h-6l-332 -412q-22 -24 -16 -47.5t45 -30.5l98 -18l6 -70h-469z" />
<glyph unicode="Y" horiz-adv-x="1210" d="M76 1280h499l-8 -70l-102 -12q-25 -3 -33.5 -17t-2.5 -38t24 -64l209 -450h8l331 485q22 26 17 50t-45 30l-107 16l-6 70h467l-6 -70l-82 -14q-44 -8 -76 -30t-69 -74l-381 -543l-56 -422q-7 -31 31 -37l152 -20l6 -70h-567l6 70l161 20q34 5 41 37l54 420l-269 545 q-23 47 -43.5 67t-54.5 31l-92 20z" />
<glyph unicode="Z" horiz-adv-x="1116" d="M-2 0l8 70l955 1126v8h-224q-94 0 -156.5 -2t-108 -8.5t-70.5 -13t-44.5 -23t-27.5 -29.5t-21 -41l-65 -186h-84l49 379h962l-10 -72l-950 -1126l-2 -8l205 2q156 2 237.5 5.5t131.5 17t66 30t30 51.5l77 203h97l-95 -383h-960z" />
<glyph unicode="[" horiz-adv-x="753" d="M195 -451v1784h516v-86h-416v-1612h416v-86h-516z" />
<glyph unicode="\" horiz-adv-x="571" d="M20 1358h93l438 -1790h-92z" />
<glyph unicode="]" horiz-adv-x="753" d="M43 -365h416v1612h-416v86h516v-1784h-516v86z" />
<glyph unicode="^" horiz-adv-x="819" d="M188 1040l226 377h182l125 -377h-43l-182 271h-4l-259 -271h-45z" />
<glyph unicode="_" horiz-adv-x="962" d="M-78 -106l6 104h983l7 -104h-996z" />
<glyph unicode="`" horiz-adv-x="819" d="M238 1417h192l141 -377h-45z" />
<glyph unicode="a" d="M45 233q0 155 65.5 321.5t161.5 262.5q59 59 125.5 95t128.5 36q104 0 168 -155h15l41 153h127l-101 -364l-108 -488l61 -18l162 137l35 -37q-40 -71 -118.5 -139t-133.5 -68q-37 0 -92.5 22t-55.5 44q0 32 117 401h-18q-46 -84 -79 -141t-77.5 -124t-81 -107t-78 -67.5 t-78.5 -27.5q-84 0 -135 72t-51 192zM186 270q0 -88 26.5 -134t74.5 -46q53 0 127.5 101.5t236.5 373.5l29 119q-43 63 -110 116.5t-128 53.5q-41 0 -82 -41q-57 -57 -115.5 -235.5t-58.5 -307.5z" />
<glyph unicode="b" horiz-adv-x="915" d="M80 102l223 1106q6 35 -14 41l-142 45l7 52l333 81l-112 -477l-121 -485h18q43 83 79 146t79.5 129.5t81.5 109.5t79 70.5t77 27.5q80 0 130 -85t50 -204q0 -157 -56 -311.5t-149 -245.5q-62 -62 -139.5 -99.5t-151.5 -37.5q-53 0 -120 27.5t-111 60t-41 49.5zM205 164 q53 -51 120 -88t115 -37q46 0 92 49q66 66 119.5 232t53.5 303q0 87 -26 144.5t-73 57.5h-1q-50 1 -126 -107q-77 -108 -235 -386z" />
<glyph unicode="c" horiz-adv-x="763" d="M61 287q0 159 66.5 311.5t180 250t239.5 97.5q91 0 156 -45t65 -113q0 -45 -26.5 -76.5t-67.5 -31.5q-80 0 -80 76q0 34 14 55q-10 15 -65 35t-101 20q-20 0 -61 -41q-61 -61 -118.5 -218t-57.5 -296q0 -110 53.5 -171.5t130.5 -61.5q75 0 246 131l29 -37 q-82 -97 -163 -150t-167 -53q-117 0 -195 91.5t-78 226.5z" />
<glyph unicode="d" d="M45 233q0 155 65.5 321.5t161.5 262.5q59 59 125.5 95t128.5 36q104 0 168 -155h15l82 415q6 35 -15 41l-141 45l8 52l332 81l-203 -862l-104 -471l61 -18l162 137l35 -37q-40 -71 -118.5 -139t-133.5 -68q-37 0 -92.5 22t-55.5 44q0 32 117 401h-18q-46 -84 -79 -141 t-77.5 -124t-81 -107t-78 -67.5t-78.5 -27.5q-84 0 -135 72t-51 192zM186 270q0 -88 26.5 -134t74.5 -46q53 0 127.5 101.5t236.5 373.5l29 119q-43 63 -110 116.5t-128 53.5q-41 0 -82 -41q-57 -57 -115.5 -235.5t-58.5 -307.5z" />
<glyph unicode="e" horiz-adv-x="751" d="M61 287q0 162 67.5 315.5t178.5 248.5t230 95q95 0 155 -53.5t60 -128.5q0 -32 -10 -58t-32.5 -51.5t-59 -52t-90.5 -58t-125.5 -69.5t-165.5 -87q-41 -21 -62 -32q-2 -14 -2 -45q0 -110 53.5 -171.5t130.5 -61.5q75 0 246 131l29 -37q-82 -97 -163 -150t-167 -53 q-117 0 -195 91.5t-78 226.5zM209 418l4 -2q168 89 253 146.5t117.5 102t32.5 97.5q0 38 -54 67t-97 29q-55 0 -94 -39q-42 -44 -89 -153.5t-73 -247.5z" />
<glyph unicode="f" horiz-adv-x="552" d="M-305 -385q0 45 25.5 73.5t66.5 28.5q47 0 77 -37t36 -94l120 64q35 77 91 381l137 788l-185 8l7 58l194 43q50 258 162 370q108 111 254 111q79 0 128.5 -40t49.5 -93q0 -44 -25.5 -74.5t-64.5 -30.5q-46 0 -77 36.5t-42 97.5l-166 -37q-62 -136 -92 -350h244l8 -93 h-268l-117 -645q-86 -467 -201 -590q-43 -46 -100.5 -70t-116.5 -24q-62 0 -103.5 34t-41.5 85z" />
<glyph unicode="g" horiz-adv-x="872" d="M-121 -254q0 44 26 85.5t68 73t86.5 54.5t90.5 39v10q-99 55 -99 137q0 58 51 103.5t134 73.5v10q-56 40 -90.5 106t-34.5 142q0 103 55 187.5t146.5 131.5t197.5 47q90 0 235 -37h207l-39 -135l-239 47v-16q46 -53 67 -98t21 -103q0 -89 -53 -167t-131.5 -121.5 t-157.5 -43.5q-62 0 -135 27q-47 -11 -76 -43t-29 -63q0 -40 36.5 -66t137.5 -61l95 -33q56 -20 95 -36t81.5 -39.5t68 -48.5t42 -59.5t16.5 -74.5q0 -111 -137 -196t-365 -85q-100 0 -183 28t-135.5 86.5t-52.5 137.5zM6 -231q0 -85 95.5 -141t238.5 -56q119 0 205 47.5 t86 116.5q0 53 -53.5 89.5t-159.5 74.5q-30 11 -104 35.5t-111 39.5q-197 -94 -197 -206zM246 543q1 -59 17.5 -106t39.5 -70q35 -35 76 -35q84 0 158 74q49 49 75.5 128.5t26.5 161.5q0 64 -62 117t-126 53q-54 0 -99 -41q-49 -49 -78 -127q-28 -73 -28 -145v-10z" />
<glyph unicode="h" horiz-adv-x="1005" d="M45 0l72 301l186 907q6 35 -14 41l-142 45l7 52l333 81l-114 -479l-137 -590h18q188 398 303 519q66 69 141 69q58 0 106 -42t48 -101q0 -81 -86 -371l-100 -338l59 -18l164 137l33 -37q-40 -71 -118.5 -139t-133.5 -68q-36 0 -89 22t-53 44q0 16 6.5 46.5t19.5 76.5 t24 83.5t30 98t27 88.5q4 14 13 41.5t13.5 42.5t12 39.5t12 39.5t10 35t9 33.5t6.5 28t4.5 25t1.5 18.5q0 34 -31 62t-68 28q-86 0 -376 -579l-45 -252z" />
<glyph unicode="i" horiz-adv-x="522" d="M41 707q40 81 116 160t130 79q23 0 59 -9.5t65 -25.5t25 -30l-217 -787l62 -18l163 137l35 -37q-42 -72 -120.5 -139.5t-133.5 -67.5q-34 0 -88.5 23.5t-50.5 42.5l209 788l-62 11l-157 -164zM346 1233q0 56 32 94.5t73 38.5q46 0 73 -29.5t27 -74.5q0 -56 -30.5 -95 t-71.5 -39q-48 0 -75.5 29.5t-27.5 75.5z" />
<glyph unicode="j" horiz-adv-x="499" d="M-274 -426q0 41 29 68.5t69 27.5q84 0 119 -100l41 8q55 101 137 479l168 766l-62 11l-157 -164l-35 37q40 81 116 160t130 79q23 0 59 -9.5t65 -25.5t25 -30l-174 -752q-53 -231 -105.5 -374t-123.5 -214q-78 -78 -168 -78q-53 0 -92.5 31t-40.5 80zM338 1233 q0 56 30.5 94.5t71.5 38.5q46 0 73.5 -29.5t27.5 -74.5q0 -56 -31 -95t-72 -39q-48 0 -74 29.5t-26 75.5z" />
<glyph unicode="k" horiz-adv-x="884" d="M41 0l76 301l186 907q6 35 -14 41l-142 45l7 52l333 81l-114 -479l-107 -442h13l405 221l16 29q-40 9 -61 34t-21 60q0 41 34 71.5t77 30.5q48 0 80.5 -34t32.5 -76q0 -80 -49 -131t-162 -103l-174 -80l149 -438h45l146 146l34 -37q-39 -80 -112.5 -155t-128.5 -75 q-20 0 -59 22t-44 36l-141 454l-80 -37l-76 -454z" />
<glyph unicode="l" horiz-adv-x="501" d="M53 35l250 1173q6 34 -14 41l-142 45l9 52l327 81l-297 -1333l62 -18l164 137l34 -37q-40 -71 -118 -139t-133 -68q-35 0 -90.5 24t-51.5 42z" />
<glyph unicode="m" horiz-adv-x="1523" d="M35 707q40 81 116 160t130 79q37 0 92 -22t55 -43q0 -19 -20 -101t-61 -237.5t-48 -184.5h20q192 406 299 519q66 69 142 69q56 0 94.5 -42t38.5 -107q0 -61 -113 -439h19q188 398 303 519q66 69 141 69q59 0 106.5 -41.5t47.5 -101.5q0 -74 -88 -371q-23 -77 -60.5 -202 t-40.5 -136l62 -18l162 137l34 -37q-40 -71 -118.5 -139t-133.5 -68q-36 0 -88.5 22t-52.5 44q0 10 3.5 28.5t10.5 46t14.5 54t19 65.5t19.5 66t21 69.5t19 63.5q4 14 13 41.5t13.5 42.5t12 39.5t12 39.5t10 35t9 33.5t6.5 28t4.5 25t1.5 18.5q0 34 -31 62t-68 28 q-44 0 -145 -157.5t-232 -421.5l-57 -252l-151 10l120 428q8 29 33 111.5t36 126.5t11 65q0 34 -30.5 62t-67.5 28q-44 0 -142.5 -155.5t-230.5 -423.5l-47 -252l-149 10l69 301l111 522l-62 11l-159 -164z" />
<glyph unicode="n" horiz-adv-x="1042" d="M35 707q40 81 116 160t130 79q36 0 91.5 -22t55.5 -43q0 -19 -20 -101t-61 -237.5t-48 -184.5h20q192 403 302 519q66 69 141 69q59 0 106 -41.5t47 -101.5q0 -94 -86 -371q-94 -315 -102 -338l61 -18l164 137l35 -37q-39 -71 -119 -139t-135 -68q-35 0 -87 22t-52 44 q0 16 6 45.5t19.5 78t23.5 82.5t30 99.5t27 87.5q7 24 22 73t22.5 75.5t17.5 61.5t14 57.5t4 35.5q0 34 -30.5 62t-67.5 28q-44 0 -144 -156.5t-231 -422.5l-47 -252l-149 10l69 301l109 514l-60 12l-161 -157z" />
<glyph unicode="o" horiz-adv-x="894" d="M68 362q0 100 34.5 203.5t92.5 188t144 138.5t181 54q149 0 226 -110.5t77 -282.5q0 -79 -21.5 -162.5t-63 -158.5t-96 -134t-125.5 -94t-146 -35q-150 0 -226.5 110t-76.5 283zM207 317q0 -72 16 -134t55.5 -106t96.5 -44q53 0 101.5 37.5t83 97.5t58 117.5t37.5 113.5 q27 118 27 211q0 113 -42 193t-126 80q-50 0 -97.5 -37t-82 -95t-59 -114.5t-39.5 -110.5q-29 -113 -29 -209z" />
<glyph unicode="p" horiz-adv-x="972" d="M-156 -504l4 70l129 20q37 5 43 37l271 1196l-64 15l-157 -164l-35 37q40 81 116 160t130 79q37 0 94 -22t57 -43q0 -26 -117 -416h19q44 83 79.5 145.5t79 129.5t81 110t78.5 70.5t77 27.5q80 0 130 -85t50 -204q0 -153 -62.5 -310t-156.5 -253q-129 -129 -270 -129 q-98 0 -174 76h-4l-82 -420q-6 -32 28 -37l152 -20l6 -70h-502zM268 178q53 -57 112 -98t105 -41q44 0 93 49q68 68 128 235t60 300q0 87 -25.5 144.5t-72.5 57.5h-1q-50 0 -127 -108q-78 -109 -235 -385z" />
<glyph unicode="q" horiz-adv-x="901" d="M45 233q0 155 65.5 321.5t161.5 262.5q59 59 125.5 95t128.5 36q104 0 168 -155h15l39 147l126 -4l-98 -354l-207 -959q-6 -31 29 -37l133 -20l4 -70h-491l4 70l135 20q36 5 43 37l113 463q81 280 104 350h-18q-46 -84 -79 -141t-77.5 -124t-81 -107t-78 -67.5 t-78.5 -27.5q-84 0 -135 72t-51 192zM186 270q0 -88 26.5 -134t74.5 -46q53 0 127.5 101.5t236.5 373.5l29 119q-43 63 -110 116.5t-128 53.5q-41 0 -82 -41q-57 -57 -115.5 -235.5t-58.5 -307.5z" />
<glyph unicode="r" horiz-adv-x="804" d="M35 707q40 81 116 160t130 79q37 0 92 -22t55 -43q0 -55 -131 -523h27q40 110 115.5 263.5t119.5 209.5q55 69 87.5 92t84.5 23q53 0 88 -35.5t35 -87.5q0 -51 -27.5 -83.5t-68.5 -32.5q-44 1 -68 31q-15 19 -15 47q0 17 5 36q-1 1 -3 2t-7.5 4t-9.5 4.5t-9 3t-6 -0.5 q-41 -36 -159 -248.5t-179 -343.5l-47 -252l-149 10l69 301l109 522l-62 11l-157 -164z" />
<glyph unicode="s" horiz-adv-x="696" d="M-8 119q0 42 27 69t69 27q33 0 53.5 -23.5t20.5 -56.5q0 -21 -12 -45q91 -41 192 -47q41 18 75.5 63t37.5 87v5q1 34 -23 72q-26 42 -53 69t-82 77q-39 37 -61 60t-55 63.5t-48 80.5q-13 33 -13 65q0 6 1 13q4 59 35.5 108t78.5 78.5t100 45.5t105 16q244 0 244 -145 q0 -43 -26.5 -71t-67.5 -28q-33 0 -53.5 23.5t-20.5 56.5q0 24 10 47q-100 41 -172 43q-40 -12 -72.5 -54.5t-35.5 -86.5q-1 -28 8 -54t36.5 -59t45.5 -51t65 -63q40 -39 60.5 -60.5t54.5 -63.5q35 -42 50 -82q12 -33 12 -65v-12q-5 -75 -57 -134.5t-123 -88.5t-144 -29 q-118 0 -190 36t-72 114z" />
<glyph unicode="t" horiz-adv-x="604" d="M80 827l6 60q12 4 31 10t59 18.5t67 21t27 7.5l49 254h132l-56 -280h252l6 -93h-276l-154 -731l62 -18l164 137l34 -37q-42 -72 -120.5 -139.5t-133.5 -67.5q-37 0 -90 19.5t-49 38.5l160 792z" />
<glyph unicode="u" horiz-adv-x="1042" d="M59 707q42 81 118 160t130 79q35 0 89.5 -22t54.5 -43q0 -15 -6 -45t-20 -78t-24 -83t-30 -99.5t-27 -88.5q-5 -17 -16.5 -52.5t-17 -54.5t-14.5 -48.5t-14 -47.5t-10.5 -39t-7.5 -35t-2 -24q0 -35 30.5 -63.5t67.5 -28.5q44 0 143.5 156t233.5 424l49 252l150 -11 l-72 -301q-96 -473 -110 -520l61 -18l162 137l35 -37q-40 -71 -118.5 -139t-133.5 -68q-36 0 -90 22t-54 44q0 12 8.5 52.5t24.5 104t30.5 119.5t34.5 133.5t29 112.5h-18q-190 -399 -303 -518q-67 -70 -148 -70q-58 0 -102.5 42t-44.5 102q0 80 86 370l100 340l-61 11 l-158 -164z" />
<glyph unicode="v" horiz-adv-x="874" d="M-4 702q40 82 115 163t129 81q36 0 91.5 -24.5t55.5 -47.5l-10 -776h14l246 396q94 154 94 227q-1 40 -33.5 67.5t-87.5 38.5q12 60 46 90.5t83 30.5q55 0 93 -37t38 -106q0 -68 -52.5 -163t-184.5 -290l-238 -352l-147 -31v848l-60 12l-157 -163z" />
<glyph unicode="w" horiz-adv-x="1359" d="M-4 702q40 82 115 163t129 81q36 0 91.5 -24.5t55.5 -47.5l-2 -776h10l330 672l-4 170l61 -12l74 -15l25 -815h12l217 396q88 163 88 225q-1 42 -33 69.5t-86 38.5q12 59 46.5 90t82.5 31q55 0 93 -36.5t38 -104.5q0 -16 -2.5 -33.5t-9.5 -38.5t-14 -38.5t-22 -45.5 t-25.5 -47t-32.5 -55t-35.5 -58t-42 -67t-45.5 -72l-221 -352l-148 -31l-10 658h-6l-324 -627l-147 -31l-6 848l-60 12l-157 -163z" />
<glyph unicode="x" horiz-adv-x="960" d="M-23 84q1 52 28 85.5t67 33.5q45 0 68 -30q19 -25 19 -65q0 -9 -1 -18l57 -6l213 367l-143 380h-47l-117 -147l-31 37q123 227 207 227q21 0 66 -21.5t49 -35.5l104 -359h4q81 174 134 262.5t92 120t85 31.5q65 0 109.5 -32.5t44.5 -82.5q-1 -52 -29.5 -85t-68.5 -33 q-44 1 -66 29q-17 22 -17 58q0 10 1 21l-60 6l-202 -348l145 -395h47l117 149l31 -36q-25 -45 -45 -77.5t-49 -71t-58 -59t-57 -20.5q-20 0 -64.5 22t-48.5 36l-106 362h-9q-94 -189 -146.5 -276t-88 -115.5t-82.5 -28.5q-65 0 -108.5 32.5t-43.5 82.5z" />
<glyph unicode="y" horiz-adv-x="878" d="M-227 -393q0 43 30.5 72.5t67.5 29.5q48 0 83 -37q32 -32 32 -78v-10l55 -4q4 1 74 102t139 202l68 100l-80 22l6 811l-60 12l-157 -163l-35 36q40 82 115 163t129 81q36 0 91.5 -24.5t55.5 -47.5l-16 -776h20l354 592l7 33q-43 15 -73 44t-30 69q0 47 30 80.5t75 33.5 q58 0 92.5 -36t34.5 -95q0 -14 -3.5 -31t-7.5 -32.5t-14 -36.5t-16.5 -35.5t-21 -39t-22 -37.5t-25.5 -40t-24.5 -37t-26 -39t-24.5 -36l-237 -355l-121 -215q-51 -90 -89 -150.5t-78.5 -113.5t-76.5 -82.5t-76.5 -46t-85.5 -16.5q-64 0 -111.5 36.5t-47.5 94.5z" />
<glyph unicode="z" horiz-adv-x="808" d="M-14 66q0 51 33.5 92.5t97.5 83.5l506 448q-59 22 -194 99t-155 85l-38 -38q38 -50 38 -88q0 -36 -22 -58t-59 -22q-42 0 -66.5 24t-24.5 58q0 73 69.5 134t178.5 62h6q56 0 104 -18q50 -19 83.5 -54.5t52 -63t37.5 -63.5l6 -12l18 2l58 209q52 -1 85.5 -28.5t33.5 -63.5 q0 -50 -35.5 -90t-102.5 -84l-495 -436q69 -28 206 -116.5t160 -96.5l43 43q-51 54 -51 96q0 32 25 54t65 22q39 0 60.5 -23t21.5 -59q0 -71 -61.5 -132t-165.5 -71q-61 0 -115.5 22t-93.5 58.5t-66 75t-45 80.5l-18 -2l-60 -226q-52 3 -86 31.5t-34 65.5z" />
<glyph unicode="{" horiz-adv-x="681" d="M57 442l23 56q53 2 98 10.5t84.5 25.5t62.5 48.5t23 74.5q0 46 -19 96.5t-41.5 89.5t-41.5 96.5t-19 115.5q0 136 100.5 215.5t288.5 91.5v-68q-117 -10 -184 -64.5t-67 -127.5q0 -47 18.5 -97.5t41.5 -89t41.5 -96.5t18.5 -117q0 -97 -86 -171.5t-176 -77.5v-25 q57 -4 116.5 -36.5t102.5 -90.5t43 -123q0 -58 -18.5 -114.5t-41.5 -94.5t-41.5 -88t-18.5 -96q0 -74 67 -131.5t184 -67.5v-63q-187 9 -288 89.5t-101 217.5q0 58 19 115t41.5 95t41.5 88t19 97q0 42 -23 73t-63 49t-84.5 27t-97.5 11z" />
<glyph unicode="|" horiz-adv-x="569" d="M240 -381v1790h90v-1790h-90z" />
<glyph unicode="}" horiz-adv-x="681" d="M51 -414q117 10 184.5 67.5t67.5 131.5q0 46 -19 96t-41.5 88t-41.5 94.5t-19 114.5q0 65 43 123t102.5 90.5t116.5 36.5v25q-90 3 -176 77.5t-86 171.5q0 59 19 117t41.5 96.5t41.5 89t19 97.5q0 73 -67 127.5t-185 64.5v68q188 -12 288.5 -91.5t100.5 -215.5 q0 -58 -19 -115.5t-41.5 -96.5t-41.5 -89.5t-19 -96.5q0 -43 23 -74.5t63 -48.5t85 -25.5t98 -10.5l22 -56l-22 -57q-53 -2 -98 -11t-85 -27t-63 -49t-23 -73q0 -47 19 -97t41.5 -88t41.5 -95t19 -115q0 -137 -101 -217.5t-288 -89.5v63z" />
<glyph unicode="~" horiz-adv-x="774" d="M39 367q35 118 89 172.5t134 54.5q43 0 87.5 -23.5t75 -51.5t64.5 -51.5t58 -23.5q33 0 60.5 28.5t66.5 107.5h55q-37 -119 -90.5 -173.5t-134.5 -54.5q-42 0 -86.5 23.5t-74.5 51.5t-64 51.5t-58 23.5q-34 0 -61 -28t-68 -107h-53z" />
<glyph unicode="&#xa1;" horiz-adv-x="575" d="M141 49l185 825q3 12 22 12t19 -12l-33 -833q-3 -72 -76 -72h-31q-57 0 -75.5 21t-10.5 59zM264 1192q0 47 33 82t84 35q50 0 82.5 -34t34.5 -83q0 -45 -33.5 -79t-83.5 -34q-51 0 -84 33.5t-33 79.5z" />
<glyph unicode="&#xa2;" horiz-adv-x="755" d="M61 287q0 160 61 311t170.5 249.5t235.5 98.5h7l98 357h72l-101 -365q71 -15 115.5 -59t44.5 -99q0 -44 -29 -75t-69 -31t-68 28t-33 62l-188 -686q64 -5 254 131l33 -37q-168 -193 -320 -201l-82 -311h-72l84 313q-93 19 -153 105.5t-60 208.5zM205 311 q0 -88 29.5 -145.5t76.5 -77.5l205 752q-30 18 -86 18q-22 0 -55 -33q-59 -59 -114.5 -219.5t-55.5 -294.5z" />
<glyph unicode="&#xa3;" horiz-adv-x="946" d="M-57 23q83 19 141 50t94 77t55.5 99.5t30.5 127.5q13 97 17 153h-209l6 80h209q12 181 18 240q26 202 144 320t294 118q100 0 165 -41.5t65 -107.5q0 -44 -28.5 -76.5t-72.5 -32.5q-55 0 -83.5 45t-8.5 107q-41 32 -104 32q-80 2 -136.5 -71t-76.5 -242 q-12 -109 -23 -291h322l6 -80h-336q-6 -69 -18 -133q-25 -143 -90 -225v-8q4 -1 83 -29.5t132 -41.5t98 -13q72 0 111 39q29 29 90 137l41 -14q-8 -79 -37.5 -142.5t-89.5 -106t-142 -42.5q-64 0 -130.5 29.5t-102 56.5t-81.5 68q-7 7 -11 10q-127 -134 -330 -166z" />
<glyph unicode="&#xa4;" horiz-adv-x="886" d="M74 1032l69 70l119 -119q79 53 178 53q106 0 183 -55l112 113l68 -68l-115 -115q49 -77 49 -176q0 -97 -51 -176l127 -127l-70 -70l-125 125q-79 -53 -178 -53q-102 0 -178 51l-115 -114l-67 67l115 115q-54 79 -54 182q0 105 52 178zM229 735q0 -88 58 -151.5t153 -63.5 q94 0 151.5 63.5t57.5 151.5q0 89 -57.5 152t-151.5 63q-95 0 -153 -62.5t-58 -152.5z" />
<glyph unicode="&#xa5;" horiz-adv-x="1253" d="M115 1280h485l-6 -70l-105 -12q-37 -4 -36 -39.5t41 -118.5l188 -389h6l303 436q72 103 -4 113l-76 10l-6 70h414l-6 -70l-62 -10q-45 -12 -79 -34.5t-72 -75.5l-334 -463h324l8 -82h-377l-23 -174h392l8 -82h-410l-22 -162q-4 -32 30 -37l160 -20l6 -70h-565l6 70 l164 20q18 1 28.5 12t12.5 25l22 162h-356l4 82h361l24 174h-389l6 82h357l-256 512q-22 42 -76 57l-84 14z" />
<glyph unicode="&#xa6;" horiz-adv-x="569" d="M240 -285v686h90v-686h-90zM240 629v686h90v-686h-90z" />
<glyph unicode="&#xa7;" horiz-adv-x="880" d="M88 657q0 88 62 160t149 107q-29 60 -29 112q0 105 90 186t224 81q34 0 72 -9t74.5 -26t60.5 -46.5t24 -66.5q0 -41 -28.5 -70.5t-67.5 -29.5q-51 0 -80.5 42t-34.5 113q-38 19 -72 19q-67 0 -104 -41t-37 -96q0 -32 13 -62.5t28.5 -52.5t50 -52t55 -45.5t66.5 -48.5 q36 -27 49 -36.5t44 -35t44 -39.5t34 -39.5t30 -46t16.5 -47.5t7.5 -55q0 -89 -60.5 -162.5t-147.5 -107.5q28 -58 28 -112q0 -103 -91.5 -190t-233.5 -87q-34 0 -72 8.5t-75 25.5t-61 46.5t-24 66.5q0 44 29 72.5t69 28.5q51 0 79.5 -42t33.5 -112q39 -20 90 -20 q60 0 97.5 44t37.5 105q0 31 -12.5 61t-29 52.5t-49 51.5t-55.5 46t-65 47q-56 40 -87.5 65.5t-69 65t-55 82t-17.5 90.5zM207 725q0 -60 41 -111.5t125 -113.5q6 -4 39.5 -28.5t43.5 -32.5t37 -29.5t40.5 -35t31.5 -33t31 -38.5q115 56 115 160q0 65 -42 116t-116 107 q-7 5 -34 25t-35 26t-30 23t-31.5 25t-26.5 23t-27 25.5t-22 24.5t-21 27q-50 -25 -84.5 -68.5t-34.5 -91.5z" />
<glyph unicode="&#xa8;" horiz-adv-x="819" d="M188 1223q0 48 31.5 84t81.5 36q52 0 82.5 -35.5t30.5 -84.5q0 -50 -30.5 -85.5t-82.5 -35.5q-51 0 -82 36t-31 85zM598 1223q0 48 31.5 84t81.5 36t81 -36t31 -84q0 -50 -30.5 -85.5t-81.5 -35.5t-82 36t-31 85z" />
<glyph unicode="&#xa9;" horiz-adv-x="1503" d="M82 639q0 183 89.5 337.5t244 244.5t336.5 90q137 0 261 -53t213 -143.5t142 -214.5t53 -261t-53 -261t-142 -213.5t-213 -142.5t-261 -53t-261 53t-213.5 142.5t-142.5 213.5t-53 261zM156 639q0 -122 47 -233t127 -192t190.5 -129t231.5 -48t231.5 48t190.5 129 t127 192t47 233t-47 233.5t-126.5 192.5t-190.5 129.5t-232 48.5t-232 -48.5t-190.5 -129.5t-126.5 -192.5t-47 -233.5zM389 627q0 172 107.5 282.5t275.5 110.5q87 0 166 -23l92 23v-260h-53l-43 151q-60 43 -172 43q-111 0 -184.5 -82t-73.5 -215q0 -151 76.5 -243 t212.5 -92q79 0 129 32l63 162h55l-26 -242l-58 13q-85 -29 -180 -29q-179 0 -283 103t-104 266z" />
<glyph unicode="&#xaa;" horiz-adv-x="706" d="M111 803q0 102 46.5 224t114.5 190q92 92 187 92q75 0 121 -115h12l26 115h87l-64 -269l-78 -354l39 -10l139 121l19 -27q-39 -60 -105 -118t-106 -58q-23 0 -51.5 25.5t-28.5 44.5q0 14 11.5 52t39.5 124.5t51 165.5h-10q-100 -195 -177 -303.5t-136 -108.5 q-64 0 -100.5 58t-36.5 151zM215 823q0 -63 22.5 -99t55.5 -36q53 0 242 340l20 76q-26 46 -72 85.5t-92 39.5q-28 0 -57 -29q-43 -43 -81 -160t-38 -217z" />
<glyph unicode="&#xab;" horiz-adv-x="997" d="M51 414l2 82l492 301l14 -43l-344 -303l266 -291l-26 -39zM436 414l2 82l492 321l14 -43l-364 -323l280 -312l-24 -39z" />
<glyph unicode="&#xac;" horiz-adv-x="983" d="M72 528l6 101h833v-430h-104v329h-735z" />
<glyph unicode="&#xad;" horiz-adv-x="671" d="M51 428l6 104h525l6 -104h-537z" />
<glyph unicode="&#xae;" horiz-adv-x="1503" d="M82 639q0 183 89.5 337.5t244 244.5t336.5 90q137 0 261 -53t213 -143.5t142 -214.5t53 -261t-53 -261t-142 -213.5t-213 -142.5t-261 -53t-261 53t-213.5 142.5t-142.5 213.5t-53 261zM156 639q0 -122 47 -233t127 -192t190.5 -129t231.5 -48t231.5 48t190.5 129 t127 192t47 233t-47 233.5t-126.5 192.5t-190.5 129.5t-232 48.5t-232 -48.5t-190.5 -129.5t-126.5 -192.5t-47 -233.5zM440 281l6 59l76 12q21 3 21 23v538q0 20 -21 23l-76 12l-6 60h324q130 0 198 -54.5t68 -132.5q0 -76 -47 -130t-131 -81l145 -221q19 -23 29 -30.5 t23 -10.5l69 -8l6 -59h-190l-45 81l-141 224l-97 4v-215q0 -20 21 -23l88 -12l4 -59h-324zM651 655l94 -10q76 6 121 46t45 112q0 147 -198 141l-62 -2v-287z" />
<glyph unicode="&#xaf;" horiz-adv-x="819" d="M231 1104l15 84h491v-84h-506z" />
<glyph unicode="&#xb0;" horiz-adv-x="841" d="M150 948q0 156 109.5 267.5t262.5 111.5q138 0 231 -82.5t93 -218.5q0 -159 -109.5 -271t-267.5 -112q-135 0 -227 84.5t-92 220.5zM242 952q-1 -102 66.5 -165.5t168.5 -65.5q115 -1 194 82.5t81 202.5q1 105 -66 171t-172 66q-114 1 -192 -86.5t-80 -204.5z" />
<glyph unicode="&#xb1;" horiz-adv-x="983" d="M66 29l6 100h839l7 -100h-852zM66 471l6 100h368v338h105v-338h366l7 -100h-373v-305h-105v305h-374z" />
<glyph unicode="&#xb2;" horiz-adv-x="675" d="M8 559l4 70q47 37 122 94t116.5 89t94 77.5t79 78.5t46 72.5t19.5 77.5q0 66 -46.5 105t-114.5 39q-105 0 -226 -93l-12 29q147 152 305 152q92 0 159 -54.5t67 -138.5q0 -37 -14.5 -74.5t-46 -75.5t-63 -69.5t-85.5 -73t-91.5 -68t-103.5 -72t-100 -69.5q-2 -6 0 -6h106 q177 0 228 9.5t75 50.5l35 59h57l-69 -209h-541z" />
<glyph unicode="&#xb3;" horiz-adv-x="675" d="M16 633q0 26 20.5 45.5t49.5 19.5q44 0 73 -33.5t29 -76.5q36 -6 52 -6q94 0 151.5 60t59.5 140q0 59 -40 96t-106 37q-49 0 -123 -24l-14 35q159 75 202 101q99 63 99 132q0 50 -38.5 77.5t-88.5 27.5q-108 0 -223 -80l-10 33q58 56 139.5 94.5t165.5 38.5 q79 0 141.5 -41t62.5 -109q0 -22 -7 -43t-15.5 -37t-28.5 -33.5t-31.5 -28t-40 -24.5t-39.5 -20t-43.5 -18.5t-38.5 -15t-38 -13.5v-2q32 8 74 8q78 0 128 -45t50 -123q0 -77 -58 -142t-143.5 -99t-173.5 -34q-41 0 -83.5 9t-78 34t-35.5 60z" />
<glyph unicode="&#xb4;" horiz-adv-x="819" d="M369 1040l243 377h193l-389 -377h-47z" />
<glyph unicode="&#xb5;" horiz-adv-x="1077" d="M20 913h306l-9 -622q-3 -197 191 -197q115 0 244 111v602q0 14 -11 21t-45 10l-102 8l-6 67h311v-786q0 -34 19 -39l147 -33l-6 -49l-307 -37v156h-11q-32 -39 -51.5 -59.5t-51 -47t-66 -38t-74.5 -11.5q-133 0 -191 119h-6l16 -573l-180 -19l29 731l4 580q0 6 -1 9.5 t-2 6.5t-4 5t-6 3t-9 2t-11 1.5l-15 1.5t-18 2l-77 8z" />
<glyph unicode="&#xb6;" horiz-adv-x="1011" d="M141 872q0 106 39.5 186t108.5 127.5t156.5 71t191.5 23.5h311l-176 -1346h-96l80 617q-113 -23 -168 -23q-196 0 -321.5 93.5t-125.5 250.5z" />
<glyph unicode="&#xb7;" horiz-adv-x="462" d="M59 465q2 51 37 87t90 36t91 -36.5t34 -86.5q0 -51 -35.5 -88t-89.5 -37q-56 0 -92.5 37t-34.5 88z" />
<glyph unicode="&#xb8;" horiz-adv-x="819" d="M68 -502q344 47 344 195q0 44 -40.5 70t-119.5 26q-53 0 -121 -10l4 35l242 225h84l-174 -160q111 3 177 -40t66 -120q0 -106 -123 -178.5t-331 -87.5z" />
<glyph unicode="&#xb9;" horiz-adv-x="675" d="M76 559l2 51l149 15q33 2 37 28l86 592l-182 21l8 39l309 43l-100 -695q-4 -25 27 -28l127 -15l4 -51h-467z" />
<glyph unicode="&#xba;" horiz-adv-x="653" d="M123 881q0 99 40.5 196t118 164.5t171.5 67.5q110 0 166.5 -80.5t56.5 -208.5q0 -99 -40.5 -195.5t-118.5 -163.5t-173 -67q-110 0 -165.5 80t-55.5 207zM227 848q0 -83 30 -142t91 -59q38 0 73.5 27t61 70.5t42.5 85.5t28 83q18 77 18 150q0 81 -30 136.5t-92 55.5 q-47 0 -91.5 -47.5t-70 -102t-41.5 -110.5q-19 -78 -19 -147z" />
<glyph unicode="&#xbb;" horiz-adv-x="997" d="M20 137l363 324l-279 311l23 39l399 -315l-2 -82l-491 -320zM403 158l347 303l-269 291l27 39l405 -295l-2 -82l-493 -299z" />
<glyph unicode="&#xbc;" horiz-adv-x="1464" d="M41 -238l1300 1518h105l-1303 -1518h-102zM117 559l2 51l149 15q33 2 37 28l86 592l-182 21l8 39l309 43l-100 -695q-4 -25 27 -28l127 -15l4 -51h-467zM756 -14l479 512l78 -11l-72 -489h143l-18 -64h-133l-35 -227h-115l33 227h-360v52zM831 -2h293l54 358h-11z" />
<glyph unicode="&#xbd;" horiz-adv-x="1464" d="M41 -238l1300 1518h105l-1303 -1518h-102zM117 559l2 51l149 15q33 2 37 28l86 592l-182 21l8 39l309 43l-100 -695q-4 -25 27 -28l127 -15l4 -51h-467zM756 -293l4 70q47 37 122 94t116.5 89t94 77.5t79 78.5t46 72.5t19.5 77.5q0 66 -47 105t-115 39q-104 0 -225 -93 l-12 29q147 152 305 152q92 0 158.5 -54.5t66.5 -138.5q0 -37 -14.5 -74.5t-46 -75.5t-63 -69.5t-85.5 -73t-91.5 -68t-103.5 -72t-100 -69.5q-2 -6 0 -6h107q177 0 228 9.5t75 50.5l35 59h57l-70 -209h-540z" />
<glyph unicode="&#xbe;" horiz-adv-x="1464" d="M41 -238l1300 1518h105l-1303 -1518h-102zM57 633q0 26 20.5 45.5t49.5 19.5q44 0 73 -33.5t29 -76.5q36 -6 52 -6q94 0 151.5 60t59.5 140q0 59 -40 96t-106 37q-49 0 -123 -24l-14 35q159 75 202 101q99 63 99 132q0 50 -38.5 77.5t-88.5 27.5q-108 0 -223 -80l-10 33 q58 56 139.5 94.5t165.5 38.5q79 0 141.5 -41t62.5 -109q0 -22 -7 -43t-15.5 -37t-28.5 -33.5t-31.5 -28t-40 -24.5t-39.5 -20t-43.5 -18.5t-38.5 -15t-38 -13.5v-2q32 8 74 8q78 0 128 -45t50 -123q0 -77 -58 -142t-143.5 -99t-173.5 -34q-41 0 -83.5 9t-78 34t-35.5 60z M756 -14l479 512l78 -11l-72 -489h143l-18 -64h-133l-35 -227h-115l33 227h-360v52zM831 -2h293l54 358h-11z" />
<glyph unicode="&#xbf;" horiz-adv-x="727" d="M49 305q0 53 14.5 96t36 70.5t57 51t66 36.5t74.5 27q41 13 61 20.5t51.5 23t47 30.5t27.5 39.5t12 54.5q0 72 -82 161l63 -4q115 -115 115 -215q0 -55 -21.5 -97t-63.5 -70.5t-80 -45t-95 -34.5q-42 -14 -62.5 -21.5t-52.5 -21.5t-47 -26.5t-27 -31.5t-12 -41 q0 -69 95 -122.5t233 -53.5q59 0 96 6q12 -18 12 -45q0 -50 -40 -81t-111 -31q-155 0 -261 99.5t-106 225.5zM399 1200q0 47 32.5 82t82.5 35q51 0 86 -35t33 -82q0 -46 -34 -79.5t-85 -33.5q-50 0 -82.5 33.5t-32.5 79.5z" />
<glyph unicode="&#xc0;" horiz-adv-x="1181" d="M-66 0l7 70l96 20q33 10 51.5 30t40.5 68l451 1012v60l190 47l211 -1166q5 -25 14.5 -36t36.5 -15l117 -20l6 -70h-512l6 70l121 16q41 5 33 53l-53 324h-402l-98 -234q-53 -127 12 -139l111 -20l6 -70h-445zM383 547h352l-94 583h-10zM420 1769h192l142 -376h-45z" />
<glyph unicode="&#xc1;" horiz-adv-x="1181" d="M-66 0l7 70l96 20q33 10 51.5 30t40.5 68l451 1012v60l190 47l211 -1166q5 -25 14.5 -36t36.5 -15l117 -20l6 -70h-512l6 70l121 16q41 5 33 53l-53 324h-402l-98 -234q-53 -127 12 -139l111 -20l6 -70h-445zM383 547h352l-94 583h-10zM610 1393l244 376h193l-390 -376 h-47z" />
<glyph unicode="&#xc2;" horiz-adv-x="1181" d="M-66 0l7 70l96 20q33 10 51.5 30t40.5 68l451 1012v60l190 47l211 -1166q5 -25 14.5 -36t36.5 -15l117 -20l6 -70h-512l6 70l121 16q41 5 33 53l-53 324h-402l-98 -234q-53 -127 12 -139l111 -20l6 -70h-445zM383 547h352l-94 583h-10zM414 1393l225 376h182l125 -376 h-43l-182 270h-4l-258 -270h-45z" />
<glyph unicode="&#xc3;" horiz-adv-x="1181" d="M-66 0l7 70l96 20q33 10 51.5 30t40.5 68l451 1012v60l190 47l211 -1166q5 -25 14.5 -36t36.5 -15l117 -20l6 -70h-512l6 70l121 16q41 5 33 53l-53 324h-402l-98 -234q-53 -127 12 -139l111 -20l6 -70h-445zM373 1432q71 239 225 239q43 0 87.5 -23t74.5 -50.5 t63.5 -50.5t57.5 -23q33 0 61 28t68 105h55q-75 -240 -227 -240q-42 0 -86.5 23t-74.5 51t-64 51t-58 23q-34 0 -61 -27.5t-68 -105.5h-53zM383 547h352l-94 583h-10z" />
<glyph unicode="&#xc4;" horiz-adv-x="1181" d="M-66 0l7 70l96 20q33 10 51.5 30t40.5 68l451 1012v60l190 47l211 -1166q5 -25 14.5 -36t36.5 -15l117 -20l6 -70h-512l6 70l121 16q41 5 33 53l-53 324h-402l-98 -234q-53 -127 12 -139l111 -20l6 -70h-445zM369 1575q0 48 31 84.5t81 36.5q51 0 82 -36t31 -85 q0 -50 -30.5 -85.5t-82.5 -35.5q-51 0 -81.5 35.5t-30.5 85.5zM383 547h352l-94 583h-10zM778 1575q0 48 31.5 84.5t81.5 36.5t81.5 -36.5t31.5 -84.5q0 -49 -31 -85t-82 -36t-82 36t-31 85z" />
<glyph unicode="&#xc5;" horiz-adv-x="1181" d="M-66 0l7 70l96 20q33 10 51.5 30t40.5 68l473 1063q-40 25 -62 67t-22 93q2 78 51 131t131 53q83 0 134 -53.5t49 -130.5q0 -56 -27 -101t-74 -67l199 -1102q5 -25 14.5 -36t36.5 -15l117 -20l6 -70h-512l6 70l121 16q41 5 33 53l-53 324h-402l-98 -234q-53 -127 12 -139 l111 -20l6 -70h-445zM383 547h352l-94 583h-10zM580 1411q0 -55 33 -93t89 -38q55 0 88 38t33 93q0 54 -33.5 91.5t-89.5 37.5q-55 0 -87.5 -37.5t-32.5 -91.5z" />
<glyph unicode="&#xc6;" horiz-adv-x="1642" d="M-117 0l6 70l97 20q58 18 110 100l613 963q9 12 2.5 23t-27.5 14l-125 20l-4 70h1085l-49 -371h-90l-18 207q-3 34 -11.5 48.5t-55.5 25t-121 12.5t-234 2h-47l-72 -514h47q135 0 167.5 5.5t45.5 33.5l64 137h71l-100 -426h-70l9 131q1 18 -10.5 26.5t-55 13.5t-135.5 5 h-43l-70 -540h25q138 0 215 2t134 6t82 15.5t37 25t23 39.5l80 198h98l-86 -362h-938l9 70l129 20q38 6 41 37l45 336h-385l-99 -156q-94 -152 -94 -180q-3 -29 35 -37l109 -20l6 -70h-445zM424 547h342l90 657h-18z" />
<glyph unicode="&#xc7;" horiz-adv-x="1255" d="M102 532q0 159 59.5 307.5t168.5 256.5q213 213 501 213q148 0 277 -39l145 33l-55 -416h-84l-20 272q-126 70 -269 70q-148 0 -272 -92t-197 -254.5t-73 -358.5q0 -240 137 -377q98 -98 264 -98q122 0 246 62l121 274h96l-98 -387l-95 20q-152 -49 -280 -49h-15l-98 -90 q111 3 177.5 -40t66.5 -120q0 -106 -123 -178.5t-332 -87.5l-8 45q344 47 344 195q0 44 -40.5 70t-119.5 26q-52 0 -120 -10l4 35l172 159q-232 26 -356 173t-124 386z" />
<glyph unicode="&#xc8;" horiz-adv-x="1175" d="M27 0l6 70l127 20q38 6 41 37l137 1026q4 32 -31 37l-119 20l-6 70h983l-49 -371h-88l-18 207q-3 33 -11.5 48t-56.5 25.5t-122 12.5t-234 2h-70l-70 -514h70q131 0 164.5 6t46.5 33l66 137h69l-100 -426h-68l8 131q1 18 -10 26.5t-54.5 13.5t-135.5 5h-66l-71 -540h47 q116 0 185.5 1t127 5t84 8.5t48 16.5t29.5 23.5t17 33.5l82 198h98l-86 -362h-970zM444 1769h193l141 -376h-45z" />
<glyph unicode="&#xc9;" horiz-adv-x="1175" d="M27 0l6 70l127 20q38 6 41 37l137 1026q4 32 -31 37l-119 20l-6 70h983l-49 -371h-88l-18 207q-3 33 -11.5 48t-56.5 25.5t-122 12.5t-234 2h-70l-70 -514h70q131 0 164.5 6t46.5 33l66 137h69l-100 -426h-68l8 131q1 18 -10 26.5t-54.5 13.5t-135.5 5h-66l-71 -540h47 q116 0 185.5 1t127 5t84 8.5t48 16.5t29.5 23.5t17 33.5l82 198h98l-86 -362h-970zM547 1393l244 376h192l-389 -376h-47z" />
<glyph unicode="&#xca;" horiz-adv-x="1175" d="M27 0l6 70l127 20q38 6 41 37l137 1026q4 32 -31 37l-119 20l-6 70h983l-49 -371h-88l-18 207q-3 33 -11.5 48t-56.5 25.5t-122 12.5t-234 2h-70l-70 -514h70q131 0 164.5 6t46.5 33l66 137h69l-100 -426h-68l8 131q1 18 -10 26.5t-54.5 13.5t-135.5 5h-66l-71 -540h47 q116 0 185.5 1t127 5t84 8.5t48 16.5t29.5 23.5t17 33.5l82 198h98l-86 -362h-970zM426 1393l225 376h183l124 -376h-43l-182 270h-4l-258 -270h-45z" />
<glyph unicode="&#xcb;" horiz-adv-x="1175" d="M27 0l6 70l127 20q38 6 41 37l137 1026q4 32 -31 37l-119 20l-6 70h983l-49 -371h-88l-18 207q-3 33 -11.5 48t-56.5 25.5t-122 12.5t-234 2h-70l-70 -514h70q131 0 164.5 6t46.5 33l66 137h69l-100 -426h-68l8 131q1 18 -10 26.5t-54.5 13.5t-135.5 5h-66l-71 -540h47 q116 0 185.5 1t127 5t84 8.5t48 16.5t29.5 23.5t17 33.5l82 198h98l-86 -362h-970zM393 1575q0 48 31.5 84.5t81.5 36.5q51 0 81.5 -36t30.5 -85q0 -50 -30 -85.5t-82 -35.5q-51 0 -82 36t-31 85zM803 1575q0 48 31 84.5t81 36.5t81.5 -36.5t31.5 -84.5q0 -49 -31 -85 t-82 -36t-81.5 35.5t-30.5 85.5z" />
<glyph unicode="&#xcc;" horiz-adv-x="716" d="M37 0l6 70l141 20q38 6 41 37l137 1026q4 32 -30 37l-135 20l-7 70h529l-6 -70l-142 -20q-34 -6 -41 -37l-135 -1026q-3 -32 31 -37l135 -20l6 -70h-530zM168 1769h192l142 -376h-45z" />
<glyph unicode="&#xcd;" horiz-adv-x="716" d="M37 0l6 70l141 20q38 6 41 37l137 1026q4 32 -30 37l-135 20l-7 70h529l-6 -70l-142 -20q-34 -6 -41 -37l-135 -1026q-3 -32 31 -37l135 -20l6 -70h-530zM434 1393l244 376h192l-389 -376h-47z" />
<glyph unicode="&#xce;" horiz-adv-x="716" d="M37 0l6 70l141 20q38 6 41 37l137 1026q4 32 -30 37l-135 20l-7 70h529l-6 -70l-142 -20q-34 -6 -41 -37l-135 -1026q-3 -32 31 -37l135 -20l6 -70h-530zM201 1393l225 376h182l125 -376h-43l-182 270h-4l-258 -270h-45z" />
<glyph unicode="&#xcf;" horiz-adv-x="716" d="M37 0l6 70l141 20q38 6 41 37l137 1026q4 32 -30 37l-135 20l-7 70h529l-6 -70l-142 -20q-34 -6 -41 -37l-135 -1026q-3 -32 31 -37l135 -20l6 -70h-530zM162 1575q0 48 31 84.5t81 36.5q51 0 82 -36t31 -85q0 -50 -30.5 -85.5t-82.5 -35.5q-51 0 -81.5 35.5t-30.5 85.5z M571 1575q0 48 31.5 84.5t81.5 36.5t81.5 -36.5t31.5 -84.5q0 -49 -31 -85t-82 -36t-82 36t-31 85z" />
<glyph unicode="&#xd0;" horiz-adv-x="1331" d="M27 0l6 70l127 20q38 6 41 37l65 487h-176l6 80h180l62 459q4 32 -33 37l-119 20l-6 70h490q277 0 441.5 -153t164.5 -410q0 -295 -201 -496q-104 -104 -261.5 -162.5t-342.5 -58.5h-444zM369 104l149 -28q122 5 226.5 49.5t182 124.5t121.5 201.5t44 271.5 q0 223 -120.5 352t-342.5 129h-115l-68 -510h238l6 -80h-254z" />
<glyph unicode="&#xd1;" horiz-adv-x="1433" d="M16 0l7 70l124 16q31 4 47 24.5t29 77.5t31 189l90 676q9 66 -1.5 94.5t-45.5 36.5l-113 26l-6 70h363l534 -1028h8l88 651q28 201 24 243t-48 48l-121 16l-6 70h477l-6 -70l-125 -16q-30 -4 -45 -22t-29 -77.5t-32 -191.5l-123 -919h-103l-590 1126h-8l-94 -733 q-25 -196 -21 -240.5t48 -50.5l118 -16l7 -70h-478zM453 1432q71 239 225 239q43 0 87.5 -23t74.5 -50.5t63.5 -50.5t57.5 -23q33 0 61 28t68 105h55q-75 -240 -227 -240q-42 0 -86.5 23t-74.5 51t-64 51t-58 23q-34 0 -61 -27.5t-68 -105.5h-53z" />
<glyph unicode="&#xd2;" horiz-adv-x="1409" d="M102 567q0 142 46 273.5t131 234.5q93 110 219.5 172t277.5 62q169 0 302 -79.5t205.5 -216t72.5 -304.5q0 -153 -55 -295t-154 -244q-90 -95 -209 -148t-256 -53q-169 0 -302 79t-205.5 215t-72.5 304zM287 547q0 -254 133 -387q109 -109 280 -109q94 0 174.5 44.5 t133.5 115.5t91 161.5t55 182t17 178.5q0 254 -131 385q-108 111 -282 111q-94 0 -174.5 -44.5t-133.5 -115.5t-91 -161.5t-55 -182t-17 -178.5zM514 1769h193l141 -376h-45z" />
<glyph unicode="&#xd3;" horiz-adv-x="1409" d="M102 567q0 142 46 273.5t131 234.5q93 110 219.5 172t277.5 62q169 0 302 -79.5t205.5 -216t72.5 -304.5q0 -153 -55 -295t-154 -244q-90 -95 -209 -148t-256 -53q-169 0 -302 79t-205.5 215t-72.5 304zM287 547q0 -254 133 -387q109 -109 280 -109q94 0 174.5 44.5 t133.5 115.5t91 161.5t55 182t17 178.5q0 254 -131 385q-108 111 -282 111q-94 0 -174.5 -44.5t-133.5 -115.5t-91 -161.5t-55 -182t-17 -178.5zM729 1393l244 376h192l-389 -376h-47z" />
<glyph unicode="&#xd4;" horiz-adv-x="1409" d="M102 567q0 142 46 273.5t131 234.5q93 110 219.5 172t277.5 62q169 0 302 -79.5t205.5 -216t72.5 -304.5q0 -153 -55 -295t-154 -244q-90 -95 -209 -148t-256 -53q-169 0 -302 79t-205.5 215t-72.5 304zM287 547q0 -254 133 -387q109 -109 280 -109q94 0 174.5 44.5 t133.5 115.5t91 161.5t55 182t17 178.5q0 254 -131 385q-108 111 -282 111q-94 0 -174.5 -44.5t-133.5 -115.5t-91 -161.5t-55 -182t-17 -178.5zM555 1393l225 376h183l124 -376h-43l-182 270h-4l-258 -270h-45z" />
<glyph unicode="&#xd5;" horiz-adv-x="1409" d="M102 567q0 142 46 273.5t131 234.5q93 110 219.5 172t277.5 62q169 0 302 -79.5t205.5 -216t72.5 -304.5q0 -153 -55 -295t-154 -244q-90 -95 -209 -148t-256 -53q-169 0 -302 79t-205.5 215t-72.5 304zM287 547q0 -254 133 -387q109 -109 280 -109q94 0 174.5 44.5 t133.5 115.5t91 161.5t55 182t17 178.5q0 254 -131 385q-108 111 -282 111q-94 0 -174.5 -44.5t-133.5 -115.5t-91 -161.5t-55 -182t-17 -178.5zM498 1432q71 239 225 239q43 0 87.5 -23t74.5 -50.5t63.5 -50.5t57.5 -23q33 0 61 28t68 105h55q-75 -240 -227 -240 q-42 0 -86.5 23t-74.5 51t-64 51t-58 23q-34 0 -61 -27.5t-68 -105.5h-53z" />
<glyph unicode="&#xd6;" horiz-adv-x="1409" d="M102 567q0 142 46 273.5t131 234.5q93 110 219.5 172t277.5 62q169 0 302 -79.5t205.5 -216t72.5 -304.5q0 -153 -55 -295t-154 -244q-90 -95 -209 -148t-256 -53q-169 0 -302 79t-205.5 215t-72.5 304zM287 547q0 -254 133 -387q109 -109 280 -109q94 0 174.5 44.5 t133.5 115.5t91 161.5t55 182t17 178.5q0 254 -131 385q-108 111 -282 111q-94 0 -174.5 -44.5t-133.5 -115.5t-91 -161.5t-55 -182t-17 -178.5zM483 1575q0 48 31.5 84.5t81.5 36.5q51 0 82 -36t31 -85q0 -50 -30.5 -85.5t-82.5 -35.5q-51 0 -82 36t-31 85zM893 1575 q0 48 31.5 84.5t81.5 36.5t81 -36.5t31 -84.5q0 -50 -30.5 -85.5t-81.5 -35.5t-82 36t-31 85z" />
<glyph unicode="&#xd7;" horiz-adv-x="983" d="M74 133l346 348l-346 346l69 70l349 -346l348 346l69 -70l-346 -346l346 -348l-69 -72l-348 349l-349 -349z" />
<glyph unicode="&#xd8;" horiz-adv-x="1409" d="M102 567q0 142 46 273.5t131 234.5q93 110 219.5 172t277.5 62q158 0 281 -72l108 172h90q-133 -211 -133 -213q110 -79 172 -206t62 -281q0 -153 -55 -295t-154 -244q-90 -95 -209 -148t-256 -53q-158 0 -279 68q0 1 -29.5 -46.5t-59.5 -94.5l-29 -48h-88l141 228 q-111 83 -173.5 210.5t-62.5 280.5zM287 547q0 -238 114 -369l603 971q-99 80 -246 80q-94 0 -174.5 -44.5t-133.5 -115.5t-91 -161.5t-55 -182t-17 -178.5zM459 127q95 -76 241 -76q94 0 174.5 44.5t133.5 115.5t91 161.5t55 182t17 178.5q0 235 -110 365z" />
<glyph unicode="&#xd9;" horiz-adv-x="1458" d="M164 1280h502l-7 -70l-127 -20q-37 -6 -40 -37l-89 -651q-10 -72 -10 -113q0 -160 91 -238.5t251 -78.5q153 0 252.5 84.5t124.5 269.5l64 477q14 108 19.5 158t2 83t-13 40t-33.5 10l-121 16l-6 70h477l-6 -70l-125 -16q-30 -4 -45 -22t-29 -77.5t-32 -191.5l-68 -495 q-30 -217 -169 -328t-351 -111q-204 0 -330.5 99t-126.5 288q0 71 10 136l93 661q4 32 -33 37l-119 20zM567 1769h193l141 -376h-45z" />
<glyph unicode="&#xda;" horiz-adv-x="1458" d="M164 1280h502l-7 -70l-127 -20q-37 -6 -40 -37l-89 -651q-10 -72 -10 -113q0 -160 91 -238.5t251 -78.5q153 0 252.5 84.5t124.5 269.5l64 477q14 108 19.5 158t2 83t-13 40t-33.5 10l-121 16l-6 70h477l-6 -70l-125 -16q-30 -4 -45 -22t-29 -77.5t-32 -191.5l-68 -495 q-30 -217 -169 -328t-351 -111q-204 0 -330.5 99t-126.5 288q0 71 10 136l93 661q4 32 -33 37l-119 20zM791 1393l243 376h193l-389 -376h-47z" />
<glyph unicode="&#xdb;" horiz-adv-x="1458" d="M164 1280h502l-7 -70l-127 -20q-37 -6 -40 -37l-89 -651q-10 -72 -10 -113q0 -160 91 -238.5t251 -78.5q153 0 252.5 84.5t124.5 269.5l64 477q14 108 19.5 158t2 83t-13 40t-33.5 10l-121 16l-6 70h477l-6 -70l-125 -16q-30 -4 -45 -22t-29 -77.5t-32 -191.5l-68 -495 q-30 -217 -169 -328t-351 -111q-204 0 -330.5 99t-126.5 288q0 71 10 136l93 661q4 32 -33 37l-119 20zM584 1393l225 376h182l125 -376h-43l-182 270h-4l-258 -270h-45z" />
<glyph unicode="&#xdc;" horiz-adv-x="1458" d="M164 1280h502l-7 -70l-127 -20q-37 -6 -40 -37l-89 -651q-10 -72 -10 -113q0 -160 91 -238.5t251 -78.5q153 0 252.5 84.5t124.5 269.5l64 477q14 108 19.5 158t2 83t-13 40t-33.5 10l-121 16l-6 70h477l-6 -70l-125 -16q-30 -4 -45 -22t-29 -77.5t-32 -191.5l-68 -495 q-30 -217 -169 -328t-351 -111q-204 0 -330.5 99t-126.5 288q0 71 10 136l93 661q4 32 -33 37l-119 20zM508 1575q0 48 31.5 84.5t81.5 36.5q51 0 81.5 -36t30.5 -85q0 -50 -30 -85.5t-82 -35.5q-51 0 -82 36t-31 85zM918 1575q0 48 31 84.5t81 36.5t81.5 -36.5t31.5 -84.5 q0 -49 -31 -85t-82 -36t-81.5 35.5t-30.5 85.5z" />
<glyph unicode="&#xdd;" horiz-adv-x="1210" d="M76 1280h499l-8 -70l-102 -12q-25 -3 -33.5 -17t-2.5 -38t24 -64l209 -450h8l331 485q22 26 17 50t-45 30l-107 16l-6 70h467l-6 -70l-82 -14q-44 -8 -76 -30t-69 -74l-381 -543l-56 -422q-7 -31 31 -37l152 -20l6 -70h-567l6 70l161 20q34 5 41 37l54 420l-269 545 q-23 47 -43.5 67t-54.5 31l-92 20zM668 1393l243 376h193l-389 -376h-47z" />
<glyph unicode="&#xde;" horiz-adv-x="1124" d="M27 0l6 70l127 20q38 6 41 37l139 1026q4 32 -31 37l-119 20l-6 70h500l-6 -70l-127 -20q-34 -5 -41 -37l-16 -125h131q209 0 335.5 -96t126.5 -256q0 -96 -42.5 -174.5t-115 -129t-164.5 -77.5t-194 -27q-79 0 -178 15l-22 -156q-3 -32 30 -37l162 -20l6 -70h-542z M403 360q82 -20 162 -20q153 0 246.5 89t93.5 247q0 129 -85.5 203.5t-225.5 74.5q-83 0 -111 -4z" />
<glyph unicode="&#xdf;" horiz-adv-x="1026" d="M-291 -385q0 45 25.5 73.5t66.5 28.5q47 0 77 -37t36 -94l121 64q40 88 90 381l131 788l-178 8l6 58l192 43q52 253 153 369t265 116q133 0 216 -78t77 -192q-14 -231 -299 -289q118 -83 201.5 -216.5t75.5 -283.5q-8 -151 -120.5 -269t-250.5 -114q-104 3 -165 53 t-58 123q3 49 36.5 84t81.5 35q58 -1 81.5 -42t9 -89.5t-53.5 -71.5q30 -26 80 -26q85 -3 150 73t71 185q8 139 -67 281.5t-232 259.5l9 41q302 15 317 268q5 73 -44.5 133t-125.5 61q-115 3 -176 -98t-102 -323l-134 -738q-87 -475 -200 -590q-43 -46 -100.5 -70 t-116.5 -24q-62 0 -104 34t-42 85z" />
<glyph unicode="&#xe0;" d="M45 233q0 155 65.5 321.5t161.5 262.5q59 59 125.5 95t128.5 36q104 0 168 -155h15l41 153h127l-101 -364l-108 -488l61 -18l162 137l35 -37q-40 -71 -118.5 -139t-133.5 -68q-37 0 -92.5 22t-55.5 44q0 32 117 401h-18q-46 -84 -79 -141t-77.5 -124t-81 -107t-78 -67.5 t-78.5 -27.5q-84 0 -135 72t-51 192zM186 270q0 -88 26.5 -134t74.5 -46q53 0 127.5 101.5t236.5 373.5l29 119q-43 63 -110 116.5t-128 53.5q-41 0 -82 -41q-57 -57 -115.5 -235.5t-58.5 -307.5zM313 1417h193l141 -377h-45z" />
<glyph unicode="&#xe1;" d="M45 233q0 155 65.5 321.5t161.5 262.5q59 59 125.5 95t128.5 36q104 0 168 -155h15l41 153h127l-101 -364l-108 -488l61 -18l162 137l35 -37q-40 -71 -118.5 -139t-133.5 -68q-37 0 -92.5 22t-55.5 44q0 32 117 401h-18q-46 -84 -79 -141t-77.5 -124t-81 -107t-78 -67.5 t-78.5 -27.5q-84 0 -135 72t-51 192zM186 270q0 -88 26.5 -134t74.5 -46q53 0 127.5 101.5t236.5 373.5l29 119q-43 63 -110 116.5t-128 53.5q-41 0 -82 -41q-57 -57 -115.5 -235.5t-58.5 -307.5zM449 1040l243 377h193l-389 -377h-47z" />
<glyph unicode="&#xe2;" d="M45 233q0 155 65.5 321.5t161.5 262.5q59 59 125.5 95t128.5 36q104 0 168 -155h15l41 153h127l-101 -364l-108 -488l61 -18l162 137l35 -37q-40 -71 -118.5 -139t-133.5 -68q-37 0 -92.5 22t-55.5 44q0 32 117 401h-18q-46 -84 -79 -141t-77.5 -124t-81 -107t-78 -67.5 t-78.5 -27.5q-84 0 -135 72t-51 192zM186 270q0 -88 26.5 -134t74.5 -46q53 0 127.5 101.5t236.5 373.5l29 119q-43 63 -110 116.5t-128 53.5q-41 0 -82 -41q-57 -57 -115.5 -235.5t-58.5 -307.5zM285 1040l225 377h182l125 -377h-43l-182 271h-4l-258 -271h-45z" />
<glyph unicode="&#xe3;" d="M45 233q0 155 65.5 321.5t161.5 262.5q59 59 125.5 95t128.5 36q104 0 168 -155h15l41 153h127l-101 -364l-108 -488l61 -18l162 137l35 -37q-40 -71 -118.5 -139t-133.5 -68q-37 0 -92.5 22t-55.5 44q0 32 117 401h-18q-46 -84 -79 -141t-77.5 -124t-81 -107t-78 -67.5 t-78.5 -27.5q-84 0 -135 72t-51 192zM186 270q0 -88 26.5 -134t74.5 -46q53 0 127.5 101.5t236.5 373.5l29 119q-43 63 -110 116.5t-128 53.5q-41 0 -82 -41q-57 -57 -115.5 -235.5t-58.5 -307.5zM225 1079q71 240 226 240q43 0 87 -23t74 -51t63.5 -51t57.5 -23q33 0 61 28 t68 106h56q-75 -240 -228 -240q-42 0 -86 23t-74 50.5t-64 50.5t-58 23q-34 0 -61 -27.5t-68 -105.5h-54z" />
<glyph unicode="&#xe4;" d="M45 233q0 155 65.5 321.5t161.5 262.5q59 59 125.5 95t128.5 36q104 0 168 -155h15l41 153h127l-101 -364l-108 -488l61 -18l162 137l35 -37q-40 -71 -118.5 -139t-133.5 -68q-37 0 -92.5 22t-55.5 44q0 32 117 401h-18q-46 -84 -79 -141t-77.5 -124t-81 -107t-78 -67.5 t-78.5 -27.5q-84 0 -135 72t-51 192zM186 270q0 -88 26.5 -134t74.5 -46q53 0 127.5 101.5t236.5 373.5l29 119q-43 63 -110 116.5t-128 53.5q-41 0 -82 -41q-57 -57 -115.5 -235.5t-58.5 -307.5zM262 1223q0 48 31.5 84t81.5 36q51 0 81.5 -35.5t30.5 -84.5 q0 -50 -30 -85.5t-82 -35.5q-51 0 -82 36t-31 85zM672 1223q0 48 31 84t81 36t81.5 -36t31.5 -84q0 -49 -31 -85t-82 -36t-81.5 35.5t-30.5 85.5z" />
<glyph unicode="&#xe5;" d="M45 233q0 155 65.5 321.5t161.5 262.5q59 59 125.5 95t128.5 36q104 0 168 -155h15l41 153h127l-101 -364l-108 -488l61 -18l162 137l35 -37q-40 -71 -118.5 -139t-133.5 -68q-37 0 -92.5 22t-55.5 44q0 32 117 401h-18q-46 -84 -79 -141t-77.5 -124t-81 -107t-78 -67.5 t-78.5 -27.5q-84 0 -135 72t-51 192zM186 270q0 -88 26.5 -134t74.5 -46q53 0 127.5 101.5t236.5 373.5l29 119q-43 63 -110 116.5t-128 53.5q-41 0 -82 -41q-57 -57 -115.5 -235.5t-58.5 -307.5zM399 1239q2 78 51.5 131t131.5 53q83 0 133.5 -53.5t48.5 -130.5 q0 -78 -50 -131t-132 -53t-132.5 53.5t-50.5 130.5zM461 1239q0 -54 33.5 -91.5t89.5 -37.5q55 0 88 38t33 91q0 55 -33.5 93t-89.5 38q-55 0 -88 -38t-33 -93z" />
<glyph unicode="&#xe6;" horiz-adv-x="1239" d="M45 262q0 156 58.5 307.5t154.5 247.5q59 59 125.5 95t128.5 36q37 0 70.5 -22t57 -58.5t39 -70t26.5 -68.5q73 110 149 163.5t170 53.5t153.5 -53t59.5 -125q0 -81 -77 -139t-339 -196q-82 -43 -129 -68q-2 -14 -2 -54q0 -110 53.5 -171.5t130.5 -61.5q75 0 246 131 l29 -37q-82 -97 -163 -150t-167 -53q-117 0 -194.5 91.5t-77.5 226.5q0 3 1 16.5t1 22.5q-91 -162 -180.5 -259.5t-149.5 -97.5q-84 0 -129 83t-45 210zM186 299q0 -89 23 -145t59 -56q34 0 71.5 31t93 117.5t79.5 127.5t94 170q3 4 4.5 7l3.5 7t4 7q7 11 21 41.5t18 38.5 q-37 81 -103 145t-130 64q-39 0 -80 -41q-56 -56 -107 -220t-51 -294zM694 426h4q175 95 259 150t116.5 96t32.5 90q0 25 -30.5 48t-68.5 35.5t-67 12.5q-43 0 -80 -33q-45 -45 -92.5 -154t-73.5 -245z" />
<glyph unicode="&#xe7;" horiz-adv-x="763" d="M55 -502q344 47 344 195q0 44 -40 70t-119 26q-53 0 -121 -10l4 35q170 157 170 159q-101 15 -166.5 103t-65.5 211q0 159 66.5 311.5t180 250t239.5 97.5q91 0 156 -45t65 -113q0 -45 -26.5 -76.5t-67.5 -31.5q-80 0 -80 76q0 34 14 55q-10 15 -65 35t-101 20 q-20 0 -61 -41q-61 -61 -118.5 -218t-57.5 -296q0 -110 53.5 -171.5t130.5 -61.5q75 0 246 131l29 -37q-154 -179 -287 -199l-103 -94q111 3 177.5 -40t66.5 -120q0 -106 -123 -178.5t-332 -87.5z" />
<glyph unicode="&#xe8;" horiz-adv-x="751" d="M61 287q0 162 67.5 315.5t178.5 248.5t230 95q95 0 155 -53.5t60 -128.5q0 -32 -10 -58t-32.5 -51.5t-59 -52t-90.5 -58t-125.5 -69.5t-165.5 -87q-41 -21 -62 -32q-2 -14 -2 -45q0 -110 53.5 -171.5t130.5 -61.5q75 0 246 131l29 -37q-82 -97 -163 -150t-167 -53 q-117 0 -195 91.5t-78 226.5zM209 418l4 -2q168 89 253 146.5t117.5 102t32.5 97.5q0 38 -54 67t-97 29q-55 0 -94 -39q-42 -44 -89 -153.5t-73 -247.5zM268 1417h193l141 -377h-45z" />
<glyph unicode="&#xe9;" horiz-adv-x="751" d="M61 287q0 162 67.5 315.5t178.5 248.5t230 95q95 0 155 -53.5t60 -128.5q0 -32 -10 -58t-32.5 -51.5t-59 -52t-90.5 -58t-125.5 -69.5t-165.5 -87q-41 -21 -62 -32q-2 -14 -2 -45q0 -110 53.5 -171.5t130.5 -61.5q75 0 246 131l29 -37q-82 -97 -163 -150t-167 -53 q-117 0 -195 91.5t-78 226.5zM209 418l4 -2q168 89 253 146.5t117.5 102t32.5 97.5q0 38 -54 67t-97 29q-55 0 -94 -39q-42 -44 -89 -153.5t-73 -247.5zM418 1040l244 377h192l-389 -377h-47z" />
<glyph unicode="&#xea;" horiz-adv-x="751" d="M61 287q0 162 67.5 315.5t178.5 248.5t230 95q95 0 155 -53.5t60 -128.5q0 -32 -10 -58t-32.5 -51.5t-59 -52t-90.5 -58t-125.5 -69.5t-165.5 -87q-41 -21 -62 -32q-2 -14 -2 -45q0 -110 53.5 -171.5t130.5 -61.5q75 0 246 131l29 -37q-82 -97 -163 -150t-167 -53 q-117 0 -195 91.5t-78 226.5zM209 418l4 -2q168 89 253 146.5t117.5 102t32.5 97.5q0 38 -54 67t-97 29q-55 0 -94 -39q-42 -44 -89 -153.5t-73 -247.5zM248 1040l225 377h182l125 -377h-43l-182 271h-4l-258 -271h-45z" />
<glyph unicode="&#xeb;" horiz-adv-x="751" d="M61 287q0 162 67.5 315.5t178.5 248.5t230 95q95 0 155 -53.5t60 -128.5q0 -32 -10 -58t-32.5 -51.5t-59 -52t-90.5 -58t-125.5 -69.5t-165.5 -87q-41 -21 -62 -32q-2 -14 -2 -45q0 -110 53.5 -171.5t130.5 -61.5q75 0 246 131l29 -37q-82 -97 -163 -150t-167 -53 q-117 0 -195 91.5t-78 226.5zM209 418l4 -2q168 89 253 146.5t117.5 102t32.5 97.5q0 38 -54 67t-97 29q-55 0 -94 -39q-42 -44 -89 -153.5t-73 -247.5zM217 1223q0 48 31.5 84t81.5 36q51 0 81.5 -35.5t30.5 -84.5q0 -50 -30 -85.5t-82 -35.5q-51 0 -82 36t-31 85z M627 1223q0 48 31 84t81 36t81.5 -36t31.5 -84q0 -49 -31 -85t-82 -36t-81.5 35.5t-30.5 85.5z" />
<glyph unicode="&#xec;" horiz-adv-x="522" d="M41 707q40 81 116 160t130 79q23 0 59 -9.5t65 -25.5t25 -30l-217 -787l62 -18l163 137l35 -37q-42 -72 -120.5 -139.5t-133.5 -67.5q-34 0 -88.5 23.5t-50.5 42.5l209 788l-62 11l-157 -164zM96 1417h193l141 -377h-45z" />
<glyph unicode="&#xed;" horiz-adv-x="522" d="M41 707q40 81 116 160t130 79q23 0 59 -9.5t65 -25.5t25 -30l-217 -787l62 -18l163 137l35 -37q-42 -72 -120.5 -139.5t-133.5 -67.5q-34 0 -88.5 23.5t-50.5 42.5l209 788l-62 11l-157 -164zM240 1040l243 377h193l-389 -377h-47z" />
<glyph unicode="&#xee;" horiz-adv-x="522" d="M41 707q40 81 116 160t130 79q23 0 59 -9.5t65 -25.5t25 -30l-217 -787l62 -18l163 137l35 -37q-42 -72 -120.5 -139.5t-133.5 -67.5q-34 0 -88.5 23.5t-50.5 42.5l209 788l-62 11l-157 -164zM76 1040l225 377h182l125 -377h-43l-182 271h-4l-258 -271h-45z" />
<glyph unicode="&#xef;" horiz-adv-x="522" d="M39 1223q0 48 31.5 84t81.5 36q51 0 81.5 -35.5t30.5 -84.5q0 -50 -30 -85.5t-82 -35.5q-51 0 -82 36t-31 85zM41 707q40 81 116 160t130 79q23 0 59 -9.5t65 -25.5t25 -30l-217 -787l62 -18l163 137l35 -37q-42 -72 -120.5 -139.5t-133.5 -67.5q-34 0 -88.5 23.5 t-50.5 42.5l209 788l-62 11l-157 -164zM449 1223q0 48 31 84t81 36t81.5 -36t31.5 -84q0 -49 -31 -85t-82 -36t-81.5 35.5t-30.5 85.5z" />
<glyph unicode="&#xf0;" horiz-adv-x="894" d="M68 362q0 100 33.5 203.5t90.5 188t141.5 138.5t178.5 54q149 0 207 -145q-19 207 -148 354l-325 -100l18 84l244 75q-80 66 -207 111l43 70q157 -52 264 -150l297 92l-18 -84l-215 -67q90 -97 138 -222t48 -262q1 -132 -37 -264t-102.5 -235.5t-156.5 -168.5t-191 -65 q-150 0 -226.5 110t-76.5 283zM207 317q0 -72 16 -134t55.5 -106t96.5 -44q53 0 101.5 37.5t83 97.5t58 117.5t37.5 113.5q27 118 27 211q0 113 -42 193t-126 80q-50 0 -97.5 -37t-82 -95t-59 -114.5t-39.5 -110.5q-29 -113 -29 -209z" />
<glyph unicode="&#xf1;" horiz-adv-x="1042" d="M35 707q40 81 116 160t130 79q36 0 91.5 -22t55.5 -43q0 -19 -20 -101t-61 -237.5t-48 -184.5h20q192 403 302 519q66 69 141 69q59 0 106 -41.5t47 -101.5q0 -94 -86 -371q-94 -315 -102 -338l61 -18l164 137l35 -37q-39 -71 -119 -139t-135 -68q-35 0 -87 22t-52 44 q0 16 6 45.5t19.5 78t23.5 82.5t30 99.5t27 87.5q7 24 22 73t22.5 75.5t17.5 61.5t14 57.5t4 35.5q0 34 -30.5 62t-67.5 28q-44 0 -144 -156.5t-231 -422.5l-47 -252l-149 10l69 301l109 514l-60 12l-161 -157zM256 1079q71 240 225 240q35 0 70.5 -15t63.5 -37t53.5 -44 t50.5 -37t45 -15q33 0 61 28t68 106h55q-75 -240 -227 -240q-42 0 -86.5 23t-74.5 50.5t-64 50.5t-58 23q-34 0 -61 -27.5t-68 -105.5h-53z" />
<glyph unicode="&#xf2;" horiz-adv-x="894" d="M68 362q0 100 34.5 203.5t92.5 188t144 138.5t181 54q149 0 226 -110.5t77 -282.5q0 -79 -21.5 -162.5t-63 -158.5t-96 -134t-125.5 -94t-146 -35q-150 0 -226.5 110t-76.5 283zM207 317q0 -72 16 -134t55.5 -106t96.5 -44q53 0 101.5 37.5t83 97.5t58 117.5t37.5 113.5 q27 118 27 211q0 113 -42 193t-126 80q-50 0 -97.5 -37t-82 -95t-59 -114.5t-39.5 -110.5q-29 -113 -29 -209zM303 1417h193l141 -377h-45z" />
<glyph unicode="&#xf3;" horiz-adv-x="894" d="M68 362q0 100 34.5 203.5t92.5 188t144 138.5t181 54q149 0 226 -110.5t77 -282.5q0 -79 -21.5 -162.5t-63 -158.5t-96 -134t-125.5 -94t-146 -35q-150 0 -226.5 110t-76.5 283zM207 317q0 -72 16 -134t55.5 -106t96.5 -44q53 0 101.5 37.5t83 97.5t58 117.5t37.5 113.5 q27 118 27 211q0 113 -42 193t-126 80q-50 0 -97.5 -37t-82 -95t-59 -114.5t-39.5 -110.5q-29 -113 -29 -209zM455 1040l243 377h193l-389 -377h-47z" />
<glyph unicode="&#xf4;" horiz-adv-x="894" d="M68 362q0 100 34.5 203.5t92.5 188t144 138.5t181 54q149 0 226 -110.5t77 -282.5q0 -79 -21.5 -162.5t-63 -158.5t-96 -134t-125.5 -94t-146 -35q-150 0 -226.5 110t-76.5 283zM207 317q0 -72 16 -134t55.5 -106t96.5 -44q53 0 101.5 37.5t83 97.5t58 117.5t37.5 113.5 q27 118 27 211q0 113 -42 193t-126 80q-50 0 -97.5 -37t-82 -95t-59 -114.5t-39.5 -110.5q-29 -113 -29 -209zM276 1040l226 377h182l125 -377h-43l-182 271h-4l-258 -271h-46z" />
<glyph unicode="&#xf5;" horiz-adv-x="894" d="M68 362q0 100 34.5 203.5t92.5 188t144 138.5t181 54q149 0 226 -110.5t77 -282.5q0 -79 -21.5 -162.5t-63 -158.5t-96 -134t-125.5 -94t-146 -35q-150 0 -226.5 110t-76.5 283zM207 317q0 -72 16 -134t55.5 -106t96.5 -44q53 0 101.5 37.5t83 97.5t58 117.5t37.5 113.5 q27 118 27 211q0 113 -42 193t-126 80q-50 0 -97.5 -37t-82 -95t-59 -114.5t-39.5 -110.5q-29 -113 -29 -209zM225 1079q71 240 226 240q43 0 87 -23t74 -51t63.5 -51t57.5 -23q33 0 61 28t68 106h56q-75 -240 -228 -240q-42 0 -86 23t-74 50.5t-64 50.5t-58 23 q-34 0 -61 -27.5t-68 -105.5h-54z" />
<glyph unicode="&#xf6;" horiz-adv-x="894" d="M68 362q0 100 34.5 203.5t92.5 188t144 138.5t181 54q149 0 226 -110.5t77 -282.5q0 -79 -21.5 -162.5t-63 -158.5t-96 -134t-125.5 -94t-146 -35q-150 0 -226.5 110t-76.5 283zM207 317q0 -72 16 -134t55.5 -106t96.5 -44q53 0 101.5 37.5t83 97.5t58 117.5t37.5 113.5 q27 118 27 211q0 113 -42 193t-126 80q-50 0 -97.5 -37t-82 -95t-59 -114.5t-39.5 -110.5q-29 -113 -29 -209zM260 1223q0 48 31.5 84t81.5 36q51 0 81.5 -35.5t30.5 -84.5q0 -50 -30 -85.5t-82 -35.5q-51 0 -82 36t-31 85zM670 1223q0 48 31 84t81 36t81.5 -36t31.5 -84 q0 -49 -31 -85t-82 -36t-81.5 35.5t-30.5 85.5z" />
<glyph unicode="&#xf7;" horiz-adv-x="983" d="M66 430l6 100h839l7 -100h-852zM389 193q0 42 31 73t76 31t74.5 -31t29.5 -73q0 -43 -30 -75t-74 -32q-45 0 -76 32.5t-31 74.5zM389 766q0 42 30 74t75 32t75.5 -32t30.5 -74t-30.5 -74.5t-75.5 -32.5t-75 32t-30 75z" />
<glyph unicode="&#xf8;" horiz-adv-x="894" d="M-18 -229l176 290q-90 106 -90 301q0 100 34.5 203.5t92.5 188t144 138.5t181 54q92 0 156 -45l166 273h78q-191 -316 -193 -318q96 -105 96 -303q0 -79 -21.5 -162.5t-63 -158.5t-96 -134t-125.5 -94t-146 -35q-98 0 -160 47q-19 -34 -56.5 -95t-65.5 -105l-28 -45h-79z M207 317q0 -81 20 -145l402 649q-49 62 -115 62q-50 0 -97.5 -37t-82 -95t-59 -114.5t-39.5 -110.5q-29 -113 -29 -209zM260 98q45 -65 115 -65q53 0 101.5 37.5t83 97.5t58 117.5t37.5 113.5q27 118 27 211q0 79 -20 140q-400 -652 -402 -652z" />
<glyph unicode="&#xf9;" horiz-adv-x="1042" d="M59 707q42 81 118 160t130 79q35 0 89.5 -22t54.5 -43q0 -15 -6 -45t-20 -78t-24 -83t-30 -99.5t-27 -88.5q-5 -17 -16.5 -52.5t-17 -54.5t-14.5 -48.5t-14 -47.5t-10.5 -39t-7.5 -35t-2 -24q0 -35 30.5 -63.5t67.5 -28.5q44 0 143.5 156t233.5 424l49 252l150 -11 l-72 -301q-96 -473 -110 -520l61 -18l162 137l35 -37q-40 -71 -118.5 -139t-133.5 -68q-36 0 -90 22t-54 44q0 12 8.5 52.5t24.5 104t30.5 119.5t34.5 133.5t29 112.5h-18q-190 -399 -303 -518q-67 -70 -148 -70q-58 0 -102.5 42t-44.5 102q0 80 86 370l100 340l-61 11 l-158 -164zM336 1417h192l142 -377h-45z" />
<glyph unicode="&#xfa;" horiz-adv-x="1042" d="M59 707q42 81 118 160t130 79q35 0 89.5 -22t54.5 -43q0 -15 -6 -45t-20 -78t-24 -83t-30 -99.5t-27 -88.5q-5 -17 -16.5 -52.5t-17 -54.5t-14.5 -48.5t-14 -47.5t-10.5 -39t-7.5 -35t-2 -24q0 -35 30.5 -63.5t67.5 -28.5q44 0 143.5 156t233.5 424l49 252l150 -11 l-72 -301q-96 -473 -110 -520l61 -18l162 137l35 -37q-40 -71 -118.5 -139t-133.5 -68q-36 0 -90 22t-54 44q0 12 8.5 52.5t24.5 104t30.5 119.5t34.5 133.5t29 112.5h-18q-190 -399 -303 -518q-67 -70 -148 -70q-58 0 -102.5 42t-44.5 102q0 80 86 370l100 340l-61 11 l-158 -164zM508 1040l244 377h192l-389 -377h-47z" />
<glyph unicode="&#xfb;" horiz-adv-x="1042" d="M59 707q42 81 118 160t130 79q35 0 89.5 -22t54.5 -43q0 -15 -6 -45t-20 -78t-24 -83t-30 -99.5t-27 -88.5q-5 -17 -16.5 -52.5t-17 -54.5t-14.5 -48.5t-14 -47.5t-10.5 -39t-7.5 -35t-2 -24q0 -35 30.5 -63.5t67.5 -28.5q44 0 143.5 156t233.5 424l49 252l150 -11 l-72 -301q-96 -473 -110 -520l61 -18l162 137l35 -37q-40 -71 -118.5 -139t-133.5 -68q-36 0 -90 22t-54 44q0 12 8.5 52.5t24.5 104t30.5 119.5t34.5 133.5t29 112.5h-18q-190 -399 -303 -518q-67 -70 -148 -70q-58 0 -102.5 42t-44.5 102q0 80 86 370l100 340l-61 11 l-158 -164zM336 1040l225 377h182l125 -377h-43l-182 271h-4l-258 -271h-45z" />
<glyph unicode="&#xfc;" horiz-adv-x="1042" d="M59 707q42 81 118 160t130 79q35 0 89.5 -22t54.5 -43q0 -15 -6 -45t-20 -78t-24 -83t-30 -99.5t-27 -88.5q-5 -17 -16.5 -52.5t-17 -54.5t-14.5 -48.5t-14 -47.5t-10.5 -39t-7.5 -35t-2 -24q0 -35 30.5 -63.5t67.5 -28.5q44 0 143.5 156t233.5 424l49 252l150 -11 l-72 -301q-96 -473 -110 -520l61 -18l162 137l35 -37q-40 -71 -118.5 -139t-133.5 -68q-36 0 -90 22t-54 44q0 12 8.5 52.5t24.5 104t30.5 119.5t34.5 133.5t29 112.5h-18q-190 -399 -303 -518q-67 -70 -148 -70q-58 0 -102.5 42t-44.5 102q0 80 86 370l100 340l-61 11 l-158 -164zM319 1223q0 48 31.5 84t81.5 36q52 0 82.5 -35.5t30.5 -84.5q0 -50 -30.5 -85.5t-82.5 -35.5q-51 0 -82 36t-31 85zM729 1223q0 48 31.5 84t81.5 36t81 -36t31 -84q0 -50 -30.5 -85.5t-81.5 -35.5t-82 36t-31 85z" />
<glyph unicode="&#xfd;" horiz-adv-x="878" d="M-227 -393q0 43 30.5 72.5t67.5 29.5q48 0 83.5 -36.5t31.5 -88.5l55 -4q4 1 74 102t139 202l68 100l-80 22l6 811l-60 12l-157 -163l-35 36q40 82 115 163t129 81q36 0 91.5 -24.5t55.5 -47.5l-16 -776h20l354 592l7 33q-43 15 -73 44t-30 69q0 47 30 80.5t75 33.5 q58 0 92.5 -36t34.5 -95q0 -14 -3.5 -31t-7.5 -32.5t-14 -36.5t-16.5 -35.5t-21 -39t-22 -37.5t-25.5 -40t-24.5 -37t-26 -39t-24.5 -36l-237 -355l-121 -215q-51 -90 -89 -150.5t-78.5 -113.5t-76.5 -82.5t-76.5 -46t-85.5 -16.5q-64 0 -111.5 36.5t-47.5 94.5zM426 1040 l244 377h192l-389 -377h-47z" />
<glyph unicode="&#xfe;" horiz-adv-x="911" d="M-217 -504l4 70l129 20q37 5 43 37l344 1585q6 35 -14 41l-142 45l7 52l333 81l-112 -477l-127 -504h16q64 122 111 202.5t99.5 154t99.5 109t92 36.5q81 1 131.5 -84t50.5 -205q0 -153 -60.5 -308t-154.5 -249q-138 -135 -275 -135q-98 0 -174 76h-4l-84 -420 q-3 -34 29 -37l154 -20l6 -70h-502zM211 178q126 -139 213 -139q16 0 41.5 12t44.5 31q71 71 133 239.5t62 301.5q0 87 -26 144.5t-73 57.5q-50 1 -126.5 -107t-233.5 -386z" />
<glyph unicode="&#xff;" horiz-adv-x="878" d="M-227 -393q0 43 30.5 72.5t67.5 29.5q48 0 83.5 -36.5t31.5 -88.5l55 -4q4 1 74 102t139 202l68 100l-80 22l6 811l-60 12l-157 -163l-35 36q40 82 115 163t129 81q36 0 91.5 -24.5t55.5 -47.5l-16 -776h20l354 592l7 33q-43 15 -73 44t-30 69q0 47 30 80.5t75 33.5 q58 0 92.5 -36t34.5 -95q0 -14 -3.5 -31t-7.5 -32.5t-14 -36.5t-16.5 -35.5t-21 -39t-22 -37.5t-25.5 -40t-24.5 -37t-26 -39t-24.5 -36l-237 -355l-121 -215q-51 -90 -89 -150.5t-78.5 -113.5t-76.5 -82.5t-76.5 -46t-85.5 -16.5q-64 0 -111.5 36.5t-47.5 94.5zM238 1223 q0 48 31 84t81 36q52 0 82.5 -35.5t30.5 -84.5q0 -50 -30.5 -85.5t-82.5 -35.5q-51 0 -81.5 35.5t-30.5 85.5zM647 1223q0 48 31.5 84t81.5 36t81 -36t31 -84q0 -50 -30.5 -85.5t-81.5 -35.5t-82 36t-31 85z" />
<glyph unicode="&#x152;" horiz-adv-x="1839" d="M102 563q0 295 201 496q104 104 262.5 162.5t343.5 58.5h928l-63 -371h-74l-19 207q-3 33 -11.5 48t-56.5 25.5t-122 12.5t-234 2h-69l-70 -514h70q124 0 166.5 10t60.5 39l49 127h70l-100 -426h-68l8 131q1 18 -10 26.5t-54.5 13.5t-135.5 5h-66l-72 -540h47 q116 0 185.5 1t127 5t84.5 8.5t48.5 16.5t29.5 23.5t17 33.5l82 198h98l-86 -362h-958q-278 0 -443.5 153t-165.5 410zM287 557q0 -223 120.5 -352t342.5 -129h116l146 1100l-150 28q-122 -5 -226.5 -49.5t-182.5 -124.5t-122 -201.5t-44 -271.5z" />
<glyph unicode="&#x153;" horiz-adv-x="1339" d="M68 362q0 100 33 203t90.5 188t144 139t184.5 54q106 0 173.5 -58t94.5 -159q63 101 150.5 159t183.5 58q95 0 155 -53t60 -125q0 -81 -76 -138t-346 -199q-25 -14 -40 -21.5t-39 -20.5t-45 -24v-54q0 -110 53.5 -171.5t128.5 -61.5q77 0 248 131l28 -37 q-85 -98 -164 -150.5t-165 -52.5q-88 0 -149 48t-87 130q-130 -178 -313 -178q-102 0 -171.5 54t-100.5 140.5t-31 198.5zM207 317q0 -72 16 -134t55.5 -106t96.5 -44q53 0 101.5 37.5t83 97.5t58 117.5t37.5 113.5q27 118 27 211q0 113 -42 193t-126 80q-50 0 -97.5 -37 t-82 -95t-59 -114.5t-39.5 -110.5q-29 -113 -29 -209zM795 426h4q175 94 259 149.5t116 96.5t32 90q0 37 -59.5 66.5t-108.5 29.5q-47 0 -80 -33q-44 -44 -90.5 -152.5t-72.5 -246.5z" />
<glyph unicode="&#x178;" horiz-adv-x="1210" d="M76 1280h499l-8 -70l-102 -12q-25 -3 -33.5 -17t-2.5 -38t24 -64l209 -450h8l331 485q22 26 17 50t-45 30l-107 16l-6 70h467l-6 -70l-82 -14q-44 -8 -76 -30t-69 -74l-381 -543l-56 -422q-7 -31 31 -37l152 -20l6 -70h-567l6 70l161 20q34 5 41 37l54 420l-269 545 q-23 47 -43.5 67t-54.5 31l-92 20zM430 1575q0 48 31.5 84.5t81.5 36.5q51 0 81.5 -36t30.5 -85q0 -50 -30 -85.5t-82 -35.5q-51 0 -82 36t-31 85zM840 1575q0 48 31 84.5t81 36.5t81.5 -36.5t31.5 -84.5q0 -49 -31 -85t-82 -36t-81.5 35.5t-30.5 85.5z" />
<glyph unicode="&#x2c6;" horiz-adv-x="819" d="M205 1040l225 377h182l125 -377h-43l-182 271h-4l-258 -271h-45z" />
<glyph unicode="&#x2dc;" horiz-adv-x="819" d="M145 1079q71 240 226 240q43 0 87 -23t74 -51t63.5 -51t57.5 -23q33 0 61 28t68 106h56q-75 -240 -228 -240q-42 0 -86 23t-74 50.5t-64 50.5t-58 23q-34 0 -61 -27.5t-68 -105.5h-54z" />
<glyph unicode="&#x2000;" horiz-adv-x="884" />
<glyph unicode="&#x2001;" horiz-adv-x="1769" />
<glyph unicode="&#x2002;" horiz-adv-x="884" />
<glyph unicode="&#x2003;" horiz-adv-x="1769" />
<glyph unicode="&#x2004;" horiz-adv-x="589" />
<glyph unicode="&#x2005;" horiz-adv-x="442" />
<glyph unicode="&#x2006;" horiz-adv-x="294" />
<glyph unicode="&#x2007;" horiz-adv-x="294" />
<glyph unicode="&#x2008;" horiz-adv-x="221" />
<glyph unicode="&#x2009;" horiz-adv-x="353" />
<glyph unicode="&#x200a;" horiz-adv-x="98" />
<glyph unicode="&#x2010;" horiz-adv-x="671" d="M51 428l6 104h525l6 -104h-537z" />
<glyph unicode="&#x2011;" horiz-adv-x="671" d="M51 428l6 104h525l6 -104h-537z" />
<glyph unicode="&#x2012;" horiz-adv-x="671" d="M51 428l6 104h525l6 -104h-537z" />
<glyph unicode="&#x2013;" horiz-adv-x="962" d="M55 424l6 100h848l6 -100h-860z" />
<glyph unicode="&#x2014;" horiz-adv-x="1921" d="M55 424l6 100h1805l8 -100h-1819z" />
<glyph unicode="&#x2018;" horiz-adv-x="462" d="M125 954q2 64 36 127.5t91.5 116.5t126.5 97t149 79l29 -39q-95 -51 -168.5 -131t-77.5 -160q-1 -20 5 -39.5t15.5 -34.5t22 -28.5t24.5 -23t22 -16.5t16 -11.5t6 -5.5q-9 -44 -46 -73.5t-91 -29.5q-72 0 -117.5 50t-42.5 122z" />
<glyph unicode="&#x2019;" horiz-adv-x="462" d="M96 813q88 52 147 120.5t62 143.5q2 32 -11 60t-32.5 46.5t-39.5 31.5t-34 20t-14 8q2 45 39.5 76t91.5 31q70 0 120.5 -54.5t47.5 -132.5q-7 -201 -336 -387z" />
<glyph unicode="&#x201a;" horiz-adv-x="462" d="M-55 -307q88 52 147 120.5t62 143.5q2 32 -11 60t-32.5 46.5t-39.5 31.5t-34 20t-14 8q2 44 39.5 75t91.5 31q70 0 120.5 -54t47.5 -132q-7 -201 -336 -387z" />
<glyph unicode="&#x201c;" horiz-adv-x="868" d="M125 969q2 62 33 120.5t84.5 108t103 85.5t113.5 73l43 -37q-87 -52 -146 -120.5t-63 -145.5q-1 -31 12 -59t32.5 -46.5t39 -32t33.5 -20.5t14 -8q-2 -43 -39.5 -74t-91.5 -31q-70 0 -120.5 54.5t-47.5 132.5zM551 969q2 62 33 120.5t84.5 108t103 85.5t113.5 73l43 -37 q-87 -52 -146 -120.5t-63 -145.5q-1 -31 12 -59t32.5 -46.5t39 -32t33.5 -20.5t14 -8q-2 -43 -39.5 -74t-91.5 -31q-70 0 -120.5 54.5t-47.5 132.5z" />
<glyph unicode="&#x201d;" horiz-adv-x="868" d="M106 813q86 53 145 121t62 143q2 32 -11 60t-32 46.5t-38.5 31.5t-33.5 20t-14 8q2 45 39.5 76t91.5 31q70 0 120.5 -54.5t47.5 -132.5q-7 -201 -336 -387zM532 813q88 52 147 120.5t62 143.5q2 32 -11 60t-32.5 46.5t-39.5 31.5t-34 20t-14 8q2 45 39.5 76t91.5 31 q70 0 120.5 -54.5t47.5 -132.5q-7 -201 -336 -387z" />
<glyph unicode="&#x201e;" horiz-adv-x="868" d="M-45 -307q86 53 145 121t62 143q2 32 -11 60t-32 46.5t-38.5 31.5t-33.5 20t-14 8q2 44 39.5 75t91.5 31q70 0 120.5 -54t47.5 -132q-7 -201 -336 -387zM381 -307q88 52 147 120.5t62 143.5q2 32 -11 60t-32.5 46.5t-39.5 31.5t-34 20t-14 8q2 44 39.5 75t91.5 31 q70 0 120.5 -54t47.5 -132q-7 -201 -336 -387z" />
<glyph unicode="&#x2022;" horiz-adv-x="931" d="M72 475q0 44 42.5 146t73.5 133t133.5 72.5t145.5 41.5q44 0 145.5 -41.5t132.5 -72.5t73 -133t42 -146q0 -45 -41.5 -146.5t-73.5 -133.5q-31 -31 -133.5 -73t-146.5 -42q-43 0 -145.5 42.5t-131.5 72.5q-31 33 -73.5 134.5t-42.5 145.5z" />
<glyph unicode="&#x2026;" horiz-adv-x="1392" d="M59 96q2 51 37 87t90 36t91 -36.5t34 -86.5q0 -51 -35.5 -89t-89.5 -38q-56 0 -92.5 38t-34.5 89zM522 96q0 51 36.5 87t92.5 36q54 0 89.5 -36t35.5 -87t-36 -89t-91 -38q-54 0 -90.5 38t-36.5 89zM987 96q2 51 37.5 87t89.5 36q56 0 91.5 -36t33.5 -87q0 -51 -35.5 -89 t-89.5 -38q-56 0 -92.5 38t-34.5 89z" />
<glyph unicode="&#x202f;" horiz-adv-x="353" />
<glyph unicode="&#x2039;" horiz-adv-x="620" d="M63 414l3 82l491 321l14 -43l-366 -323l282 -312l-24 -39z" />
<glyph unicode="&#x203a;" horiz-adv-x="620" d="M47 137l344 318l-260 317l25 39l399 -315l-12 -86l-482 -316z" />
<glyph unicode="&#x205f;" horiz-adv-x="442" />
<glyph unicode="&#x20ac;" horiz-adv-x="1028" d="M20 434l7 80h125v16q0 71 14 160h-123l6 80h133q61 230 221 374t367 144q133 0 218 -49t85 -127q0 -45 -25 -75.5t-69 -30.5q-52 0 -82.5 48t-30.5 111q-25 20 -68 31.5t-83 11.5q-146 0 -245.5 -117t-135.5 -321h420l6 -80h-436q-11 -67 -11 -155v-21h416l8 -80h-418 q20 -159 104 -258.5t220 -99.5q153 0 297 137l29 -45q-67 -90 -166 -144.5t-211 -54.5q-97 0 -175.5 37.5t-131 102.5t-84.5 147t-43 178h-138z" />
<glyph unicode="&#x2122;" horiz-adv-x="1865" d="M102 1012l17 268h672v-268h-60l-14 71q-15 49 -25 71.5t-33 41t-56 23t-93 4.5h-6v-615q0 -19 18 -22l105 -13l2 -55h-371l4 55l105 13q20 3 20 22v615h-10q-100 0 -139.5 -27.5t-61.5 -112.5l-18 -71h-56zM879 518l4 55l80 11q11 1 17 10.5t10.5 42.5t6.5 98l15 453 q0 22 -19 24l-86 13l-4 55h289l156 -586h18l199 586h288l-4 -55l-84 -13q-22 -3 -22 -24l12 -510q1 -52 9 -70t22 -22l80 -13l4 -55h-336l4 55l78 13q14 2 17.5 20t2.5 72l-12 520h-20l-228 -655h-92l-186 659h-21l-16 -467q-3 -96 0 -120.5t18 -30.5l82 -11l2 -55h-284z " />
<glyph unicode="&#x25fc;" horiz-adv-x="952" d="M0 0v952h952v-952h-952z" />
<glyph unicode="&#xfb01;" horiz-adv-x="991" d="M-305 -385q0 45 25.5 73.5t66.5 28.5q47 0 77 -37t36 -94l120 64q35 77 91 381l137 788l-185 8l7 58l192 43q46 258 168 377q51 51 130 83.5t163 32.5q83 0 134.5 -41t51.5 -96q0 -45 -26.5 -76.5t-67.5 -31.5q-48 0 -80 38.5t-43 100.5l-203 -37q-63 -116 -98 -360h283 q45 28 78 28q34 0 86.5 -36t46.5 -58l-211 -764l47 -16l184 141l33 -37q-43 -71 -125.5 -139t-138.5 -68q-32 0 -81 37.5t-44 56.5l201 756l-15 6h-360l-117 -645q-86 -467 -201 -590q-43 -46 -100.5 -70t-116.5 -24q-62 0 -103.5 34t-41.5 85z" />
<glyph unicode="&#xfb02;" horiz-adv-x="1013" d="M-305 -385q0 45 25.5 73.5t66.5 28.5q47 0 77 -37t36 -94l125 64q45 86 92 381l125 788l-179 8l7 58l192 43q46 258 168 377q51 51 130 83.5t163 32.5q64 0 115 -28l157 34l-297 -1333l58 -18l176 137l31 -37q-43 -71 -126 -139t-139 -68q-30 0 -80 37.5t-45 56.5 l162 762h-360l-117 -645q-86 -467 -201 -590q-43 -46 -100.5 -70t-116.5 -24q-62 0 -103.5 34t-41.5 85zM391 918h363l65 305q-38 -11 -68.5 16t-39.5 80l-215 -35q-70 -121 -105 -366z" />
<glyph unicode="&#xfb03;" horiz-adv-x="1492" d="M-305 -385q0 45 25.5 73.5t66.5 28.5q47 0 77 -37t36 -94l120 64q35 77 91 381l137 788l-185 8l7 58l192 43q45 247 162 364q108 111 256 111q79 0 128.5 -40t49.5 -93q0 -44 -25.5 -74.5t-64.5 -30.5q-46 0 -77 36.5t-42 96.5l-166 -36q-66 -145 -92 -344h371 q24 138 63.5 230t106.5 157q51 51 130 83.5t163 32.5q83 0 134.5 -41t51.5 -96q0 -45 -26.5 -76.5t-67.5 -31.5q-48 0 -80 38.5t-43 100.5l-203 -37q-68 -124 -98 -360h283q45 28 77 28q34 0 86.5 -36t46.5 -58l-210 -764l47 -16l184 141l33 -37q-43 -71 -125.5 -139 t-138.5 -68q-32 0 -81 37.5t-44 56.5l200 756l-14 6h-360l-109 -589q-87 -473 -201 -590q-91 -97 -198 -97q-62 0 -105 34.5t-43 86.5q0 43 26 72t66 29q49 0 79 -36.5t36 -94.5l107 65q20 44 47.5 157.5t44.5 223.5l118 739h-370l-117 -645q-86 -467 -201 -590 q-43 -46 -100.5 -70t-116.5 -24q-62 0 -103.5 34t-41.5 85z" />
<glyph unicode="&#xfb04;" horiz-adv-x="1515" d="M-305 -385q0 45 25.5 73.5t66.5 28.5q47 0 77 -37t36 -94l120 64q35 77 91 381l137 788l-185 8l7 58l192 43q45 247 162 364q108 111 256 111q79 0 128.5 -40t49.5 -93q0 -44 -25.5 -74.5t-64.5 -30.5q-46 0 -77 36.5t-42 96.5l-166 -36q-66 -145 -92 -344h371 q24 138 63.5 230t106.5 157q51 51 130 83.5t163 32.5q63 0 114 -28l158 34l-297 -1333l57 -18l175 137l32 -37q-43 -71 -125.5 -139t-138.5 -68q-30 0 -80 37.5t-45 56.5l162 762h-360l-109 -589q-86 -473 -201 -590q-91 -97 -198 -97q-62 0 -105 34.5t-43 86.5q0 43 26 72 t66 29q49 0 79 -36.5t36 -94.5l107 65q20 44 47.5 157.5t44.5 223.5l118 739h-370l-117 -645q-86 -467 -201 -590q-43 -46 -100.5 -70t-116.5 -24q-62 0 -103.5 34t-41.5 85zM893 918h362l66 305q-39 -11 -69.5 15t-39.5 81l-215 -35q-73 -127 -104 -366z" />
</font>
</defs>
</svg>
